<?xml version="1.0" encoding="UTF-8" standalone="no"?>
<svg
   xmlns:dc="http://purl.org/dc/elements/1.1/"
   xmlns:cc="http://web.resource.org/cc/"
   xmlns:rdf="http://www.w3.org/1999/02/22-rdf-syntax-ns#"
   xmlns:svg="http://www.w3.org/2000/svg"
   xmlns="http://www.w3.org/2000/svg"
   xmlns:sodipodi="http://sodipodi.sourceforge.net/DTD/sodipodi-0.dtd"
   xmlns:inkscape="http://www.inkscape.org/namespaces/inkscape"
   version="1.0"
   width="48"
   height="48"
   viewBox="0 0 128 128"
   overflow="visible"
   enable-background="new 0 0 128 128"
   xml:space="preserve"
   id="svg2"
   sodipodi:version="0.32"
   inkscape:version="0.45.1"
   sodipodi:docname="go-home.svg"
   sodipodi:docbase="/home/igancuhz/icons"
   inkscape:output_extension="org.inkscape.output.svg.inkscape"><metadata
   id="metadata117"><rdf:RDF><cc:Work
       rdf:about=""><dc:format>image/svg+xml</dc:format><dc:type
         rdf:resource="http://purl.org/dc/dcmitype/StillImage" /></cc:Work></rdf:RDF></metadata><defs
   id="defs115" /><sodipodi:namedview
   inkscape:window-height="618"
   inkscape:window-width="877"
   inkscape:pageshadow="2"
   inkscape:pageopacity="0.0"
   guidetolerance="10.0"
   gridtolerance="10.0"
   objecttolerance="10.0"
   borderopacity="1.0"
   bordercolor="#666666"
   pagecolor="#ffffff"
   id="base"
   width="48px"
   height="48px"
   inkscape:zoom="3.1796875"
   inkscape:cx="64"
   inkscape:cy="64"
   inkscape:window-x="0"
   inkscape:window-y="26"
   inkscape:current-layer="svg2" />
	<path
   d="M 108,53.429 L 108,115 C 108,117.205 106.205,119 104,119 L 25,119 C 22.794,119 21,117.205 21,115 L 21,53.429 L 108,53.429 z "
   id="path4"
   style="opacity:0.1" />
	<path
   d="M 108,52.429 L 108,114 C 108,116.205 106.205,118 104,118 L 25,118 C 22.794,118 21,116.205 21,114 L 21,52.429 L 108,52.429 z "
   id="path6"
   style="opacity:0.1" />
	<path
   d="M 58.85,26.222 L 21.454,50.591 C 21.171,50.775 21,51.091 21,51.429 L 21,113 C 21,115.205 22.794,117 25,117 L 104,117 C 106.205,117 108,115.205 108,113 L 108,51.429 C 108,51.07 107.808,50.739 107.496,50.561 L 59.892,26.192 C 59.566,26.006 59.164,26.018 58.85,26.222 z "
   id="path8"
   style="opacity:0.5;fill:#1a1a1a" />
	<linearGradient
   id="XMLID_10_"
   gradientUnits="userSpaceOnUse"
   x1="64.5"
   y1="54.187"
   x2="64.5"
   y2="83.489304">
		<stop
   offset="0"
   style="stop-color:#C9C7C7"
   id="stop11" />
		<stop
   offset="0.5715"
   style="stop-color:#EBEBEB"
   id="stop13" />
		<stop
   offset="0.9719"
   style="stop-color:#FFFFFF"
   id="stop15" />
	</linearGradient>
	<path
   d="M 107,113 C 107,114.65 105.65,116 104,116 L 25,116 C 23.35,116 22,114.65 22,113 L 22,51.429 L 59.396,27.06 L 107,51.429 L 107,113 z "
   id="path17"
   style="fill:url(#XMLID_10_)" />
	<linearGradient
   id="XMLID_11_"
   gradientUnits="userSpaceOnUse"
   x1="64.5"
   y1="38.1968"
   x2="64.5"
   y2="116.2671">
		<stop
   offset="0"
   style="stop-color:#ABABAB"
   id="stop20" />
		<stop
   offset="0.2781"
   style="stop-color:#D9D8D9"
   id="stop22" />
		<stop
   offset="0.4326"
   style="stop-color:#EDECED"
   id="stop24" />
		<stop
   offset="0.6872"
   style="stop-color:#E8E8E8"
   id="stop26" />
		<stop
   offset="0.9862"
   style="stop-color:#DBDBDA"
   id="stop28" />
		<stop
   offset="1"
   style="stop-color:#DADAD9"
   id="stop30" />
	</linearGradient>
	<path
   d="M 24,51.971 C 24,53.036 24,113 24,113 C 24,114.104 24.897,115 26,115 L 103,115 C 104.103,115 105,114.104 105,113 C 105,113 105,53.147 105,52.009 C 104.029,51.454 61.452,28.817 60.43,28.232 C 59.445,28.873 24.874,51.401 24,51.971 z "
   id="path32"
   style="fill:url(#XMLID_11_)" />
	<path
   d="M 77,10 C 76.447,10 76,10.448 76,11 L 76,39 C 76,39.552 76.447,40 77,40 L 99,40 C 99.553,40 100,39.552 100,39 L 100,11 C 100,10.448 99.553,10 99,10 L 77,10 z "
   id="path34"
   style="opacity:0.7;fill:#666666" />
	<rect
   x="77"
   y="11"
   width="22"
   height="28"
   id="rect36"
   style="fill:#ffffff" />
	<linearGradient
   id="XMLID_12_"
   gradientUnits="userSpaceOnUse"
   x1="88.167999"
   y1="33.128399"
   x2="88.167999"
   y2="13.6284">
		<stop
   offset="0"
   style="stop-color:#E8E7E8"
   id="stop39" />
		<stop
   offset="1"
   style="stop-color:#D7D7D7"
   id="stop41" />
	</linearGradient>
	<rect
   x="78.501999"
   y="12.7"
   width="19.333"
   height="26"
   id="rect43"
   style="fill:url(#XMLID_12_)" />
	<path
   d="M 65,36.723 C 67.333,36.723 108.426,61.296 114.141,64.153 C 119.856,67.009 123.702,62.956 123.702,60.099 C 123.702,57.242 125.001,53.866 119.287,51.009 L 65,22.438 L 10.715,51.009 C 5,53.866 6.398,57.042 6.398,59.899 C 6.398,62.756 8,67.866 15.859,64.153 C 21.637,61.424 62.667,36.723 65,36.723 z "
   id="path45"
   style="fill:#8f2e2e" />
	<radialGradient
   id="XMLID_13_"
   cx="47.400398"
   cy="30.091299"
   r="78.965797"
   gradientUnits="userSpaceOnUse">
		<stop
   offset="0"
   style="stop-color:#F56363"
   id="stop48" />
		<stop
   offset="1"
   style="stop-color:#A33A3A"
   id="stop50" />
	</radialGradient>
	<path
   d="M 65,33.857 C 67,33.857 108.426,58.43 114.141,61.287 C 119.856,64.144 123.702,62.428 123.702,59.571 C 123.702,56.714 125,51 119.286,48.143 C 119.286,48.143 67.333,19.572 65,19.572 C 62.667,19.572 10.715,48.143 10.715,48.143 C 5,51 6.398,56.714 6.398,59.571 C 6.398,62.428 8,65 15.859,61.287 C 21.637,58.558 63,33.857 65,33.857 z "
   id="path52"
   style="fill:url(#XMLID_13_)" />
	<rect
   x="32"
   y="71"
   width="31"
   height="45"
   id="rect54"
   style="fill:#7d533f" />
	<rect
   x="34"
   y="73"
   width="27"
   height="43"
   id="rect56"
   style="fill:#cd6f2f" />
	<rect
   x="35"
   y="74"
   width="25"
   height="41"
   id="rect58"
   style="fill:#f69a3b" />
	<linearGradient
   id="XMLID_14_"
   gradientUnits="userSpaceOnUse"
   x1="86"
   y1="71.125"
   x2="86"
   y2="94.999901">
		<stop
   offset="0"
   style="stop-color:#B3B3B3"
   id="stop61" />
		<stop
   offset="0.4362"
   style="stop-color:#C5C6C5"
   id="stop63" />
		<stop
   offset="1"
   style="stop-color:#D9DAD9"
   id="stop65" />
	</linearGradient>
	<rect
   x="72"
   y="74"
   width="28"
   height="21"
   id="rect67"
   style="fill:url(#XMLID_14_)" />
	<linearGradient
   id="XMLID_15_"
   gradientUnits="userSpaceOnUse"
   x1="86"
   y1="73.834"
   x2="86"
   y2="80.834">
		<stop
   offset="0"
   style="stop-color:#5E5E5E"
   id="stop70" />
		<stop
   offset="0.3296"
   style="stop-color:#6A6A6A"
   id="stop72" />
		<stop
   offset="1"
   style="stop-color:#7E7E7E"
   id="stop74" />
	</linearGradient>
	<rect
   x="73"
   y="75"
   width="26"
   height="21"
   id="rect76"
   style="fill:url(#XMLID_15_)" />
	<linearGradient
   id="XMLID_16_"
   gradientUnits="userSpaceOnUse"
   x1="95.576202"
   y1="94.089798"
   x2="81.657097"
   y2="81.6036">
		<stop
   offset="0"
   style="stop-color:#65F5FA"
   id="stop79" />
		<stop
   offset="0.5013"
   style="stop-color:#64DCFA"
   id="stop81" />
		<stop
   offset="1"
   style="stop-color:#64C8FA"
   id="stop83" />
	</linearGradient>
	<rect
   x="75"
   y="77"
   width="22"
   height="17"
   id="rect85"
   style="fill:url(#XMLID_16_)" />
	<rect
   x="75"
   y="77"
   width="22"
   height="17"
   id="rect87"
   style="fill:url(#XMLID_16_)" />
	<linearGradient
   id="XMLID_18_"
   gradientUnits="userSpaceOnUse"
   x1="79.327103"
   y1="72.0625"
   x2="91.505501"
   y2="90.736198">
		<stop
   offset="0"
   style="stop-color:#FFFFFF"
   id="stop90" />
		<stop
   offset="0.4789"
   style="stop-color:#AEFAFC"
   id="stop92" />
		<stop
   offset="0.8295"
   style="stop-color:#79F6FB"
   id="stop94" />
		<stop
   offset="1"
   style="stop-color:#65F5FA"
   id="stop96" />
	</linearGradient>
	<rect
   x="76"
   y="78"
   width="19.834"
   height="8.3339996"
   id="rect98"
   style="fill:url(#XMLID_18_)" />
	<rect
   x="35"
   y="74"
   width="25"
   height="1"
   id="rect100"
   style="fill:#fcaf43" />
	<rect
   x="35"
   y="114"
   width="25"
   height="1"
   id="rect102"
   style="fill:#f2a345" />
	<circle
   cx="58.5"
   cy="94.5"
   r="2.5"
   id="circle104"
   sodipodi:cx="58.5"
   sodipodi:cy="94.5"
   sodipodi:rx="2.5"
   sodipodi:ry="2.5"
   style="opacity:0.6;fill:#7d4e3d" />
	<circle
   cx="58.5"
   cy="95.5"
   r="2.5"
   id="circle106"
   sodipodi:cx="58.5"
   sodipodi:cy="95.5"
   sodipodi:rx="2.5"
   sodipodi:ry="2.5"
   style="opacity:0.3;fill:#7d4e3d" />
	<ellipse
   cx="58.5"
   cy="96.5"
   rx="1.8099999"
   ry="2.5"
   id="ellipse108"
   sodipodi:cx="58.5"
   sodipodi:cy="96.5"
   sodipodi:rx="1.8099999"
   sodipodi:ry="2.5"
   style="opacity:0.2;fill:#7d4e3d" />
	<ellipse
   cx="59.201"
   cy="97.5"
   rx="1.8099999"
   ry="2.5"
   id="ellipse110"
   sodipodi:cx="59.201"
   sodipodi:cy="97.5"
   sodipodi:rx="1.8099999"
   sodipodi:ry="2.5"
   style="opacity:0.2;fill:#7d4e3d" />
	<circle
   cx="58.5"
   cy="94.5"
   r="1.5"
   id="circle112"
   sodipodi:cx="58.5"
   sodipodi:cy="94.5"
   sodipodi:rx="1.5"
   sodipodi:ry="1.5"
   style="fill:#fcaf43" />
</svg>