<?xml version="1.0" encoding="UTF-8" standalone="no"?>
<!-- Created with Inkscape (http://www.inkscape.org/) -->
<svg
   xmlns:dc="http://purl.org/dc/elements/1.1/"
   xmlns:cc="http://web.resource.org/cc/"
   xmlns:rdf="http://www.w3.org/1999/02/22-rdf-syntax-ns#"
   xmlns:svg="http://www.w3.org/2000/svg"
   xmlns="http://www.w3.org/2000/svg"
   xmlns:xlink="http://www.w3.org/1999/xlink"
   xmlns:sodipodi="http://sodipodi.sourceforge.net/DTD/sodipodi-0.dtd"
   xmlns:inkscape="http://www.inkscape.org/namespaces/inkscape"
   width="254.72256"
   height="254.60004"
   id="svg2"
   sodipodi:version="0.32"
   inkscape:version="0.45.1"
   sodipodi:docbase="/home/christof/Grafiken/SVGs"
   sodipodi:docname="brit_icon_amarok.svg"
   inkscape:output_extension="org.inkscape.output.svg.inkscape"
   version="1.0">
  <defs
     id="defs4">
    <pattern
       inkscape:collect="always"
       xlink:href="#pattern7096"
       id="pattern7103"
       patternTransform="matrix(0.9807814,0.1951099,-0.1951099,0.9807814,88.853396,564.9863)" />
    <pattern
       patternUnits="userSpaceOnUse"
       width="52.64405"
       height="52.64405"
       patternTransform="translate(265.42265,627.97688)"
       id="pattern7044">
      <path
         id="path6068"
         d="M 0.5,0.5 L 52.14405,52.14405"
         style="fill:none;fill-rule:evenodd;stroke:#e04613;stroke-width:1px;stroke-linecap:butt;stroke-linejoin:miter;stroke-opacity:1" />
    </pattern>
    <pattern
       patternUnits="userSpaceOnUse"
       width="52.64405"
       height="52.64405"
       patternTransform="translate(265.69051,628.69118)"
       id="pattern7053">
      <path
         id="path7051"
         d="M 0.5,0.5 L 52.14405,52.14405"
         style="fill:none;fill-rule:evenodd;stroke:#e04613;stroke-width:1px;stroke-linecap:butt;stroke-linejoin:miter;stroke-opacity:1" />
    </pattern>
    <pattern
       patternUnits="userSpaceOnUse"
       width="7.5"
       height="41.425995"
       patternTransform="translate(198.25517,601.81158)"
       id="pattern7087">
      <rect
         y="1.25"
         x="1.25"
         height="38.925995"
         width="5"
         id="rect7085"
         style="opacity:1;fill:#262729;fill-opacity:1;fill-rule:nonzero;stroke:#e04613;stroke-width:2.5;stroke-linejoin:miter;stroke-miterlimit:4;stroke-dasharray:none;stroke-opacity:1" />
    </pattern>
    <pattern
       patternUnits="userSpaceOnUse"
       width="7.5000006"
       height="213.63924"
       patternTransform="translate(197.38019,536.79187)"
       id="pattern7096">
      <rect
         id="rect7090"
         y="0.87500006"
         x="0.87500006"
         height="211.88924"
         width="5.7500005"
         style="fill:#262729;fill-opacity:1;stroke:#e04613;stroke-width:1.75000012;stroke-miterlimit:4;stroke-dasharray:none;stroke-opacity:1" />
    </pattern>
  </defs>
  <sodipodi:namedview
     id="base"
     pagecolor="#a2a2a2"
     bordercolor="#666666"
     borderopacity="1.0"
     inkscape:pageopacity="0.87843137"
     inkscape:pageshadow="2"
     inkscape:zoom="4.2304298"
     inkscape:cx="108.82237"
     inkscape:cy="132.46305"
     inkscape:document-units="px"
     inkscape:current-layer="layer1"
     inkscape:window-width="1680"
     inkscape:window-height="1003"
     inkscape:window-x="0"
     inkscape:window-y="47"
     showgrid="true" />
  <metadata
     id="metadata7">
    <rdf:RDF>
      <cc:Work
         rdf:about="">
        <dc:format>image/svg+xml</dc:format>
        <dc:type
           rdf:resource="http://purl.org/dc/dcmitype/StillImage" />
      </cc:Work>
    </rdf:RDF>
  </metadata>
  <g
     inkscape:label="Ebene 1"
     inkscape:groupmode="layer"
     id="layer1"
     transform="translate(-259.63,-431.54916)">
    <path
       style="fill:#262729;fill-opacity:1;stroke:none;stroke-width:2.40000224;stroke-linejoin:miter;stroke-miterlimit:4;stroke-opacity:1"
       d="M 292.60735,436.28011 L 508.20734,436.28011 L 510.20734,653.8801 C 510.20734,670.5001 496.82734,683.8801 480.20734,683.8801 L 264.60735,683.8801 L 262.60735,466.28011 C 262.60735,449.66011 275.98735,436.28011 292.60735,436.28011 z "
       id="rect2160"
       sodipodi:nodetypes="ccccccc" />
    <path
       style="fill:none;fill-rule:evenodd;stroke:#6c9eab;stroke-width:10.00000191;stroke-linecap:butt;stroke-linejoin:miter;stroke-miterlimit:4;stroke-dasharray:none;stroke-opacity:1"
       d="M 263.33237,627.59304 L 508.53458,627.59304"
       id="path3134" />
    <path
       style="fill:none;fill-rule:evenodd;stroke:#6c9eab;stroke-width:0.69999981;stroke-linecap:butt;stroke-linejoin:miter;stroke-miterlimit:4;stroke-dasharray:none;stroke-opacity:1"
       d="M 262.28424,676.50298 L 267.14877,681.36751"
       id="path2180"
       inkscape:tile-w="52.72286"
       inkscape:tile-h="52.72285"
       inkscape:tile-cx="241.13734"
       inkscape:tile-cy="655.35609" />
    <path
       id="use14111"
       d="M 262.63882,676.85757 L 267.14877,681.36751"
       style="fill:none;fill-rule:evenodd;stroke:#6c9eab;stroke-width:0.69999981;stroke-linecap:butt;stroke-linejoin:miter;stroke-miterlimit:4;stroke-dasharray:none;stroke-opacity:1" />
    <path
       id="use14113"
       d="M 264.63998,673.90277 L 272.10472,681.36751"
       style="fill:none;fill-rule:evenodd;stroke:#6c9eab;stroke-width:0.69999987;stroke-linecap:butt;stroke-linejoin:miter;stroke-miterlimit:4;stroke-dasharray:none;stroke-opacity:1" />
    <path
       id="use14115"
       d="M 263.92274,668.22958 L 277.06066,681.3675"
       style="fill:none;fill-rule:evenodd;stroke:#6c9eab;stroke-width:0.69999975;stroke-linecap:butt;stroke-linejoin:miter;stroke-miterlimit:4;stroke-dasharray:none;stroke-opacity:1" />
    <path
       id="use14117"
       d="M 262.96912,662.32002 L 282.01662,681.36751"
       style="fill:none;fill-rule:evenodd;stroke:#6c9eab;stroke-width:0.69999981;stroke-linecap:butt;stroke-linejoin:miter;stroke-miterlimit:4;stroke-dasharray:none;stroke-opacity:1" />
    <path
       id="use14119"
       d="M 263.31562,657.71056 L 286.97258,681.36751"
       style="fill:none;fill-rule:evenodd;stroke:#6c9eab;stroke-width:0.69999981;stroke-linecap:butt;stroke-linejoin:miter;stroke-miterlimit:4;stroke-dasharray:none;stroke-opacity:1" />
    <path
       id="use14121"
       d="M 264.72582,654.16482 L 291.92851,681.36751"
       style="fill:none;fill-rule:evenodd;stroke:#6c9eab;stroke-width:0.69999981;stroke-linecap:butt;stroke-linejoin:miter;stroke-miterlimit:4;stroke-dasharray:none;stroke-opacity:1" />
    <path
       id="use14123"
       d="M 264.48136,648.96442 L 296.88447,681.36752"
       style="fill:none;fill-rule:evenodd;stroke:#6c9eab;stroke-width:0.69999981;stroke-linecap:butt;stroke-linejoin:miter;stroke-miterlimit:4;stroke-dasharray:none;stroke-opacity:1" />
    <path
       id="use14125"
       d="M 264.70965,644.23674 L 301.8404,681.36749"
       style="fill:none;fill-rule:evenodd;stroke:#6c9eab;stroke-width:0.69999981;stroke-linecap:butt;stroke-linejoin:miter;stroke-miterlimit:4;stroke-dasharray:none;stroke-opacity:1" />
    <path
       id="use14127"
       d="M 264.1106,638.68175 L 306.79635,681.36749"
       style="fill:none;fill-rule:evenodd;stroke:#6c9eab;stroke-width:0.69999975;stroke-linecap:butt;stroke-linejoin:miter;stroke-miterlimit:4;stroke-dasharray:none;stroke-opacity:1" />
    <path
       id="use14129"
       d="M 264.45711,634.07233 L 311.75232,681.36753"
       style="fill:none;fill-rule:evenodd;stroke:#6c9eab;stroke-width:0.69999987;stroke-linecap:butt;stroke-linejoin:miter;stroke-miterlimit:4;stroke-dasharray:none;stroke-opacity:1" />
    <path
       id="use14131"
       d="M 264.6854,629.34466 L 316.70826,681.36751"
       style="fill:none;fill-rule:evenodd;stroke:#6c9eab;stroke-width:0.69999981;stroke-linecap:butt;stroke-linejoin:miter;stroke-miterlimit:4;stroke-dasharray:none;stroke-opacity:1" />
    <path
       id="use14133"
       d="M 269.64135,629.34466 L 321.66421,681.36751"
       style="fill:none;fill-rule:evenodd;stroke:#6c9eab;stroke-width:0.69999981;stroke-linecap:butt;stroke-linejoin:miter;stroke-miterlimit:4;stroke-dasharray:none;stroke-opacity:1" />
    <path
       id="use14135"
       d="M 274.5973,629.34466 L 326.62016,681.36751"
       style="fill:none;fill-rule:evenodd;stroke:#6c9eab;stroke-width:0.69999981;stroke-linecap:butt;stroke-linejoin:miter;stroke-miterlimit:4;stroke-dasharray:none;stroke-opacity:1" />
    <path
       id="use14137"
       d="M 279.55325,629.34466 L 331.5761,681.36751"
       style="fill:none;fill-rule:evenodd;stroke:#6c9eab;stroke-width:0.69999981;stroke-linecap:butt;stroke-linejoin:miter;stroke-miterlimit:4;stroke-dasharray:none;stroke-opacity:1" />
    <path
       id="use14139"
       d="M 284.50919,629.34466 L 336.53205,681.36751"
       style="fill:none;fill-rule:evenodd;stroke:#6c9eab;stroke-width:0.69999981;stroke-linecap:butt;stroke-linejoin:miter;stroke-miterlimit:4;stroke-dasharray:none;stroke-opacity:1" />
    <path
       id="use14141"
       d="M 289.46514,629.34466 L 341.488,681.36751"
       style="fill:none;fill-rule:evenodd;stroke:#6c9eab;stroke-width:0.69999981;stroke-linecap:butt;stroke-linejoin:miter;stroke-miterlimit:4;stroke-dasharray:none;stroke-opacity:1" />
    <path
       id="use14143"
       d="M 294.42109,629.34466 L 346.44395,681.36751"
       style="fill:none;fill-rule:evenodd;stroke:#6c9eab;stroke-width:0.69999981;stroke-linecap:butt;stroke-linejoin:miter;stroke-miterlimit:4;stroke-dasharray:none;stroke-opacity:1" />
    <path
       id="use14145"
       d="M 299.37704,629.34466 L 351.3999,681.36751"
       style="fill:none;fill-rule:evenodd;stroke:#6c9eab;stroke-width:0.69999981;stroke-linecap:butt;stroke-linejoin:miter;stroke-miterlimit:4;stroke-dasharray:none;stroke-opacity:1" />
    <path
       id="use14147"
       d="M 304.33299,629.34466 L 356.35585,681.36751"
       style="fill:none;fill-rule:evenodd;stroke:#6c9eab;stroke-width:0.69999981;stroke-linecap:butt;stroke-linejoin:miter;stroke-miterlimit:4;stroke-dasharray:none;stroke-opacity:1" />
    <path
       id="use14149"
       d="M 309.28894,629.34466 L 361.3118,681.36751"
       style="fill:none;fill-rule:evenodd;stroke:#6c9eab;stroke-width:0.69999981;stroke-linecap:butt;stroke-linejoin:miter;stroke-miterlimit:4;stroke-dasharray:none;stroke-opacity:1" />
    <path
       id="use14151"
       d="M 314.24489,629.34466 L 366.26775,681.36751"
       style="fill:none;fill-rule:evenodd;stroke:#6c9eab;stroke-width:0.69999981;stroke-linecap:butt;stroke-linejoin:miter;stroke-miterlimit:4;stroke-dasharray:none;stroke-opacity:1" />
    <path
       id="use14153"
       d="M 319.20084,629.34466 L 371.2237,681.36751"
       style="fill:none;fill-rule:evenodd;stroke:#6c9eab;stroke-width:0.69999981;stroke-linecap:butt;stroke-linejoin:miter;stroke-miterlimit:4;stroke-dasharray:none;stroke-opacity:1" />
    <path
       id="use14155"
       d="M 324.15678,629.34466 L 376.17964,681.36751"
       style="fill:none;fill-rule:evenodd;stroke:#6c9eab;stroke-width:0.69999981;stroke-linecap:butt;stroke-linejoin:miter;stroke-miterlimit:4;stroke-dasharray:none;stroke-opacity:1" />
    <path
       id="use14157"
       d="M 329.11273,629.34466 L 381.13559,681.36751"
       style="fill:none;fill-rule:evenodd;stroke:#6c9eab;stroke-width:0.69999981;stroke-linecap:butt;stroke-linejoin:miter;stroke-miterlimit:4;stroke-dasharray:none;stroke-opacity:1" />
    <path
       id="use14159"
       d="M 334.06868,629.34466 L 386.09154,681.36751"
       style="fill:none;fill-rule:evenodd;stroke:#6c9eab;stroke-width:0.69999981;stroke-linecap:butt;stroke-linejoin:miter;stroke-miterlimit:4;stroke-dasharray:none;stroke-opacity:1" />
    <path
       id="use14161"
       d="M 339.02463,629.34466 L 391.04749,681.36751"
       style="fill:none;fill-rule:evenodd;stroke:#6c9eab;stroke-width:0.69999981;stroke-linecap:butt;stroke-linejoin:miter;stroke-miterlimit:4;stroke-dasharray:none;stroke-opacity:1" />
    <path
       id="use14163"
       d="M 343.98058,629.34466 L 396.00344,681.36751"
       style="fill:none;fill-rule:evenodd;stroke:#6c9eab;stroke-width:0.69999981;stroke-linecap:butt;stroke-linejoin:miter;stroke-miterlimit:4;stroke-dasharray:none;stroke-opacity:1" />
    <path
       id="use14165"
       d="M 348.93653,629.34466 L 400.95939,681.36751"
       style="fill:none;fill-rule:evenodd;stroke:#6c9eab;stroke-width:0.69999981;stroke-linecap:butt;stroke-linejoin:miter;stroke-miterlimit:4;stroke-dasharray:none;stroke-opacity:1" />
    <path
       id="use14167"
       d="M 353.89248,629.34466 L 405.91534,681.36751"
       style="fill:none;fill-rule:evenodd;stroke:#6c9eab;stroke-width:0.69999981;stroke-linecap:butt;stroke-linejoin:miter;stroke-miterlimit:4;stroke-dasharray:none;stroke-opacity:1" />
    <path
       id="use14169"
       d="M 358.84843,629.34466 L 410.87129,681.36751"
       style="fill:none;fill-rule:evenodd;stroke:#6c9eab;stroke-width:0.69999981;stroke-linecap:butt;stroke-linejoin:miter;stroke-miterlimit:4;stroke-dasharray:none;stroke-opacity:1" />
    <path
       id="use14171"
       d="M 363.80437,629.34466 L 415.82723,681.36751"
       style="fill:none;fill-rule:evenodd;stroke:#6c9eab;stroke-width:0.69999981;stroke-linecap:butt;stroke-linejoin:miter;stroke-miterlimit:4;stroke-dasharray:none;stroke-opacity:1" />
    <path
       id="use14173"
       d="M 368.76032,629.34466 L 420.78318,681.36751"
       style="fill:none;fill-rule:evenodd;stroke:#6c9eab;stroke-width:0.69999981;stroke-linecap:butt;stroke-linejoin:miter;stroke-miterlimit:4;stroke-dasharray:none;stroke-opacity:1" />
    <path
       id="use14175"
       d="M 373.71627,629.34466 L 425.73913,681.36751"
       style="fill:none;fill-rule:evenodd;stroke:#6c9eab;stroke-width:0.69999981;stroke-linecap:butt;stroke-linejoin:miter;stroke-miterlimit:4;stroke-dasharray:none;stroke-opacity:1" />
    <path
       id="use14177"
       d="M 378.67222,629.34466 L 430.69508,681.36751"
       style="fill:none;fill-rule:evenodd;stroke:#6c9eab;stroke-width:0.69999981;stroke-linecap:butt;stroke-linejoin:miter;stroke-miterlimit:4;stroke-dasharray:none;stroke-opacity:1" />
    <path
       id="use14179"
       d="M 383.62817,629.34466 L 435.65103,681.36751"
       style="fill:none;fill-rule:evenodd;stroke:#6c9eab;stroke-width:0.69999981;stroke-linecap:butt;stroke-linejoin:miter;stroke-miterlimit:4;stroke-dasharray:none;stroke-opacity:1" />
    <path
       id="use14181"
       d="M 388.58412,629.34466 L 440.60698,681.36751"
       style="fill:none;fill-rule:evenodd;stroke:#6c9eab;stroke-width:0.69999981;stroke-linecap:butt;stroke-linejoin:miter;stroke-miterlimit:4;stroke-dasharray:none;stroke-opacity:1" />
    <path
       id="use14183"
       d="M 393.54007,629.34466 L 445.56293,681.36751"
       style="fill:none;fill-rule:evenodd;stroke:#6c9eab;stroke-width:0.69999981;stroke-linecap:butt;stroke-linejoin:miter;stroke-miterlimit:4;stroke-dasharray:none;stroke-opacity:1" />
    <path
       id="use14185"
       d="M 398.49602,629.34466 L 450.51888,681.36751"
       style="fill:none;fill-rule:evenodd;stroke:#6c9eab;stroke-width:0.69999981;stroke-linecap:butt;stroke-linejoin:miter;stroke-miterlimit:4;stroke-dasharray:none;stroke-opacity:1" />
    <path
       id="use14187"
       d="M 403.45197,629.34466 L 455.47483,681.36751"
       style="fill:none;fill-rule:evenodd;stroke:#6c9eab;stroke-width:0.69999981;stroke-linecap:butt;stroke-linejoin:miter;stroke-miterlimit:4;stroke-dasharray:none;stroke-opacity:1" />
    <path
       id="use14189"
       d="M 408.40791,629.34466 L 460.43077,681.36751"
       style="fill:none;fill-rule:evenodd;stroke:#6c9eab;stroke-width:0.69999981;stroke-linecap:butt;stroke-linejoin:miter;stroke-miterlimit:4;stroke-dasharray:none;stroke-opacity:1" />
    <path
       id="use14191"
       d="M 413.36386,629.34466 L 465.38672,681.36751"
       style="fill:none;fill-rule:evenodd;stroke:#6c9eab;stroke-width:0.69999981;stroke-linecap:butt;stroke-linejoin:miter;stroke-miterlimit:4;stroke-dasharray:none;stroke-opacity:1" />
    <path
       id="use14193"
       d="M 418.31981,629.34466 L 470.34267,681.36751"
       style="fill:none;fill-rule:evenodd;stroke:#6c9eab;stroke-width:0.69999981;stroke-linecap:butt;stroke-linejoin:miter;stroke-miterlimit:4;stroke-dasharray:none;stroke-opacity:1" />
    <path
       id="use14195"
       d="M 423.27576,629.34466 L 475.29862,681.36751"
       style="fill:none;fill-rule:evenodd;stroke:#6c9eab;stroke-width:0.69999981;stroke-linecap:butt;stroke-linejoin:miter;stroke-miterlimit:4;stroke-dasharray:none;stroke-opacity:1" />
    <path
       id="use14197"
       d="M 428.23171,629.34466 L 480.25457,681.36751"
       style="fill:none;fill-rule:evenodd;stroke:#6c9eab;stroke-width:0.69999981;stroke-linecap:butt;stroke-linejoin:miter;stroke-miterlimit:4;stroke-dasharray:none;stroke-opacity:1" />
    <path
       id="use14199"
       d="M 433.18766,629.34466 L 485.21052,681.36751"
       style="fill:none;fill-rule:evenodd;stroke:#6c9eab;stroke-width:0.69999981;stroke-linecap:butt;stroke-linejoin:miter;stroke-miterlimit:4;stroke-dasharray:none;stroke-opacity:1" />
    <path
       id="use14201"
       d="M 438.14361,629.34466 L 490.16647,681.36751"
       style="fill:none;fill-rule:evenodd;stroke:#6c9eab;stroke-width:0.69999981;stroke-linecap:butt;stroke-linejoin:miter;stroke-miterlimit:4;stroke-dasharray:none;stroke-opacity:1" />
    <path
       id="use14203"
       d="M 443.09954,629.34463 L 492.404,678.64908"
       style="fill:none;fill-rule:evenodd;stroke:#6c9eab;stroke-width:0.69999981;stroke-linecap:butt;stroke-linejoin:miter;stroke-miterlimit:4;stroke-dasharray:none;stroke-opacity:1" />
    <path
       id="use14205"
       d="M 448.05551,629.34468 L 495.46891,676.75807"
       style="fill:none;fill-rule:evenodd;stroke:#6c9eab;stroke-width:0.69999981;stroke-linecap:butt;stroke-linejoin:miter;stroke-miterlimit:4;stroke-dasharray:none;stroke-opacity:1" />
    <path
       id="use14207"
       d="M 453.01147,629.34469 L 498.06104,674.39425"
       style="fill:none;fill-rule:evenodd;stroke:#6c9eab;stroke-width:0.69999987;stroke-linecap:butt;stroke-linejoin:miter;stroke-miterlimit:4;stroke-dasharray:none;stroke-opacity:1" />
    <path
       id="use14209"
       d="M 457.96741,629.34467 L 502.18964,673.5669"
       style="fill:none;fill-rule:evenodd;stroke:#6c9eab;stroke-width:0.69999981;stroke-linecap:butt;stroke-linejoin:miter;stroke-miterlimit:4;stroke-dasharray:none;stroke-opacity:1" />
    <path
       id="use14211"
       d="M 462.92335,629.34466 L 504.07261,670.49391"
       style="fill:none;fill-rule:evenodd;stroke:#6c9eab;stroke-width:0.69999981;stroke-linecap:butt;stroke-linejoin:miter;stroke-miterlimit:4;stroke-dasharray:none;stroke-opacity:1" />
    <path
       id="use14213"
       d="M 467.8793,629.34467 L 505.71921,667.18456"
       style="fill:none;fill-rule:evenodd;stroke:#6c9eab;stroke-width:0.69999981;stroke-linecap:butt;stroke-linejoin:miter;stroke-miterlimit:4;stroke-dasharray:none;stroke-opacity:1" />
    <path
       id="use14215"
       d="M 472.83527,629.34468 L 507.01124,663.52065"
       style="fill:none;fill-rule:evenodd;stroke:#6c9eab;stroke-width:0.69999987;stroke-linecap:butt;stroke-linejoin:miter;stroke-miterlimit:4;stroke-dasharray:none;stroke-opacity:1" />
    <path
       id="use14217"
       d="M 477.79119,629.34464 L 508.53961,660.09305"
       style="fill:none;fill-rule:evenodd;stroke:#6c9eab;stroke-width:0.69999975;stroke-linecap:butt;stroke-linejoin:miter;stroke-miterlimit:4;stroke-dasharray:none;stroke-opacity:1" />
    <path
       id="use14219"
       d="M 482.74713,629.34464 L 510.1862,656.7837"
       style="fill:none;fill-rule:evenodd;stroke:#6c9eab;stroke-width:0.69999975;stroke-linecap:butt;stroke-linejoin:miter;stroke-miterlimit:4;stroke-dasharray:none;stroke-opacity:1" />
    <path
       id="use14221"
       d="M 487.70311,629.34468 L 510.17815,651.81971"
       style="fill:none;fill-rule:evenodd;stroke:#6c9eab;stroke-width:0.69999981;stroke-linecap:butt;stroke-linejoin:miter;stroke-miterlimit:4;stroke-dasharray:none;stroke-opacity:1" />
    <path
       id="use14223"
       d="M 492.65904,629.34467 L 509.81547,646.50109"
       style="fill:none;fill-rule:evenodd;stroke:#6c9eab;stroke-width:0.69999987;stroke-linecap:butt;stroke-linejoin:miter;stroke-miterlimit:4;stroke-dasharray:none;stroke-opacity:1" />
    <path
       id="use14225"
       d="M 497.61501,629.34469 L 508.50729,640.23696"
       style="fill:none;fill-rule:evenodd;stroke:#6c9eab;stroke-width:0.69999993;stroke-linecap:butt;stroke-linejoin:miter;stroke-miterlimit:4;stroke-dasharray:none;stroke-opacity:1" />
    <path
       id="use14227"
       d="M 502.57094,629.34467 L 508.85377,635.62749"
       style="fill:none;fill-rule:evenodd;stroke:#6c9eab;stroke-width:0.69999987;stroke-linecap:butt;stroke-linejoin:miter;stroke-miterlimit:4;stroke-dasharray:none;stroke-opacity:1" />
    <path
       style="fill:none;fill-opacity:1;stroke:#ffffff;stroke-width:10.00000095;stroke-linejoin:miter;stroke-miterlimit:4;stroke-dasharray:none;stroke-opacity:1"
       d="M 293.67747,436.54916 L 509.35257,436.54916 L 509.23001,652.03395 C 509.23001,668.16379 496.27484,681.14919 480.18254,681.14919 L 264.67458,681.14919 L 264.63,465.66439 C 264.63,449.53456 277.58518,436.54916 293.67747,436.54916 z "
       id="rect6047"
       sodipodi:nodetypes="ccccccc" />
    <g
       id="g14797"
       transform="matrix(1.2007528,0,0,1.2007528,-4.1585833,-145.17533)">
      <path
         id="path58"
         d="M 364.6832,509.56025 C 361.99216,509.56025 356.76756,515.76168 354.80934,516.74068 C 352.85113,517.71989 337.34848,528.816 335.87988,530.77438 C 334.41127,532.73242 332.45289,533.54845 330.33174,533.38531 C 328.21055,533.22236 321.50446,533.15516 319.21997,534.46062 C 316.93513,535.76626 306.50718,546.44 303.89626,547.74567 C 301.28551,549.05076 297.87923,549.71948 296.2473,549.88279 C 294.61573,550.04577 289.20985,556.06751 287.74123,557.21003 C 286.27263,558.35256 274.66764,563.3742 273.0359,564.35287 C 271.40397,565.33205 284.9408,579.04491 286.89901,579.37103 C 288.85721,579.69783 285.55032,587.12772 281.78267,587.12772 C 281.36775,587.12772 285.14955,599.43954 304.92214,610.28606 C 322.01587,619.66287 340.15234,615.51121 346.88769,613.23743 C 351.65068,611.62895 348.30782,610.74005 348.47131,608.12928 C 348.63408,605.51819 348.77126,602.08499 349.09768,599.14798 C 349.42434,596.21076 350.56612,571.56981 354.80917,565.04267 C 359.05167,558.51587 371.17803,550.68015 375.42088,549.86426 C 379.66393,549.0484 378.8477,547.41648 378.8477,545.94805 C 378.8477,544.47961 378.19515,541.21576 377.05263,540.72616 C 375.91048,540.23676 371.45342,543.17653 369.98482,543.50278 C 368.51621,543.82907 361.49929,544.31885 360.51991,542.6871 C 359.5409,541.055 368.43593,524.41035 369.57825,522.45217 C 370.72077,520.49379 371.21,517.88265 369.08847,515.10893 C 366.96787,512.33431 365.49909,509.56025 364.6832,509.56025 z "
         style="fill:#ffffff;fill-opacity:1;stroke:none;stroke-opacity:1" />
      <path
         id="path60"
         d="M 332.13206,540.32069 C 332.13206,540.32069 325.6672,539.32589 321.93703,543.05624 C 318.20664,546.78645 314.9733,554.9926 315.22273,557.47944 C 315.47108,559.96629 322.93166,549.02442 326.16408,548.27867 C 329.39722,547.53237 332.87853,542.06107 332.13206,540.32069 z "
         style="fill:#271a1a;fill-opacity:1;stroke:none;stroke-opacity:1" />
      <path
         id="path116"
         d="M 348.4564,574.64602 C 348.4564,574.64602 342.67135,594.33959 342.52513,594.64387 C 341.69835,596.3621 340.17342,601.34108 340.69844,602.94902 C 341.31666,604.84327 343.63385,607.59738 344.7153,608.97442 C 345.79678,610.352 346.26022,611.04054 345.95119,611.55737 C 345.64237,612.07385 341.62551,612.07385 341.62551,612.07385 C 341.62551,612.07385 338.53587,607.42533 337.91748,605.70365 C 337.2998,603.98235 336.9906,600.36696 337.60882,599.16214 C 338.22667,597.95677 348.4564,574.64602 348.4564,574.64602 z "
         style="opacity:0.18000004;fill:#ffffff;fill-opacity:1;stroke:none;stroke-opacity:1" />
      <path
         id="polygon123"
         d="M 307.68133,578.31479 L 297.11277,587.4638 L 310.36291,579.57668 L 307.68133,578.31479 z "
         style="opacity:0.2;fill:#ffffff;fill-opacity:1;stroke:none;stroke-opacity:1" />
      <path
         id="polygon130"
         d="M 318.09235,575.16032 L 300.10975,598.50578 L 320.77379,576.73738 L 318.09235,575.16032 z "
         style="opacity:0.2;fill:#ffffff;fill-opacity:1;stroke:none;stroke-opacity:1" />
      <path
         id="polygon137"
         d="M 319.5121,583.20496 L 305.78852,604.97318 L 322.66678,584.62451 L 319.5121,583.20496 z "
         style="opacity:0.20132015;fill:#ffffff;fill-opacity:1;stroke:none;stroke-opacity:1" />
      <path
         id="polygon144"
         d="M 327.55674,582.25826 L 316.04152,609.23237 L 331.34253,583.04727 L 327.55674,582.25826 z "
         style="opacity:0.2;fill:#ffffff;fill-opacity:1;stroke:none;stroke-opacity:1" />
      <path
         id="polygon151"
         d="M 332.13134,589.35678 L 331.18465,613.96448 L 335.2858,589.67234 L 332.13134,589.35678 z "
         style="opacity:0.2;fill:#ffffff;fill-opacity:1;stroke:none;stroke-opacity:1" />
      <path
         id="path2270"
         d="M 332.85592,599.38034 C 321.62022,594.38161 311.48631,587.52168 302.73156,578.98836 C 301.74871,578.03038 301.52912,577.77473 301.52912,577.58852 C 301.52912,577.393 301.80946,577.11453 303.50489,575.62594 C 306.95735,572.5946 307.71695,571.78552 308.30536,570.5126 C 308.90614,569.21299 310.14753,567.681 312.56885,565.25105 C 317.91453,559.88639 327.61841,551.86934 332.19573,549.03597 C 332.99125,548.54352 333.44847,548.18759 334.07771,547.57078 C 336.07424,545.61372 339.16664,541.65912 345.6094,532.82395 C 352.46754,523.41917 354.77623,520.37933 357.05885,517.74855 C 358.43817,516.15885 359.45247,515.21518 359.84579,515.15561 C 360.01296,515.13031 360.29056,515.08547 360.4627,515.05597 C 360.63483,515.02645 360.85481,515.04005 360.95155,515.08618 C 361.04826,515.13232 361.18981,515.18987 361.26603,515.21408 C 361.41217,515.26053 364.1956,518.40998 365.22077,519.68885 C 366.44871,521.2207 366.55929,521.64725 365.94483,522.48184 C 365.71551,522.79331 365.49463,523.24127 365.32463,523.7396 C 365.03261,524.59561 363.52818,527.63662 361.21335,532.04998 C 359.39338,535.51982 356.93004,540.42495 356.16016,542.11202 C 354.53501,545.67341 353.74233,548.12673 353.94976,548.95319 C 354.01767,549.22375 354.42814,549.41731 355.53073,549.69868 C 358.1099,550.35685 360.49429,550.25719 362.71615,549.39839 C 363.05222,549.26848 363.84051,548.86593 364.46784,548.50386 C 366.38305,547.39841 367.82676,546.78046 369.62946,546.29443 C 370.49064,546.06225 370.69535,546.03786 371.84273,546.03068 C 373.04651,546.02315 373.12645,546.03272 373.5123,546.23097 C 373.86254,546.41088 373.92674,546.48275 373.98539,546.76051 C 374.11754,547.38644 374.14072,547.78887 374.04984,547.87972 C 374.00022,547.92938 373.95957,548.05133 373.95957,548.15074 C 373.95957,548.55851 372.9789,548.88801 370.24496,549.39882 C 367.37714,549.93463 367.23869,549.99237 365.24294,551.48438 C 360.77548,554.82423 353.82454,560.87452 351.35874,563.56955 C 350.24009,564.79221 348.52527,567.15842 346.2139,570.66867 C 341.02799,578.54445 337.43537,585.34584 336.47564,589.10481 C 336.28491,589.85173 335.74844,593.22547 335.26143,596.74037 C 334.81192,599.98461 334.79187,600.08227 334.57662,600.07494 C 334.48163,600.07169 333.70731,599.75914 332.85592,599.38034 z "
         style="opacity:0.57999998;fill:#ffffff;fill-opacity:1;stroke:none;stroke-opacity:1" />
      <path
         id="path2476"
         d="M 302.46861,555.53962 C 302.41875,555.36094 302.42884,553.79094 302.48455,553.05613 C 302.52442,552.53039 302.55774,552.35668 302.6979,551.9436 C 303.13122,550.66677 303.76471,549.95598 304.68107,549.71852 C 305.02287,549.62995 305.20836,549.53915 305.70265,549.21847 C 306.71793,548.55972 308.01377,547.46606 310.08761,545.51761 C 310.65035,544.98892 312.93328,542.74348 315.1608,540.52778 C 317.38831,538.31207 319.31093,536.4267 319.43332,536.33809 C 319.5557,536.24948 319.73594,536.15576 319.83383,536.12985 C 320.54907,535.9406 322.27877,535.84883 326.66483,535.76749 C 330.78609,535.69109 332.54117,535.61168 333.08245,535.47717 C 333.64305,535.33786 334.92223,534.58033 337.50095,532.86058 C 339.36546,531.6171 343.33361,528.87338 345.6331,527.23768 C 346.25017,526.79876 346.5012,526.6445 346.5984,526.6445 C 346.67063,526.6445 346.74213,526.62448 346.75727,526.60001 C 346.77237,526.5755 346.8154,526.55549 346.85282,526.55549 C 346.90884,526.55549 346.91664,526.60093 346.89694,526.81138 C 346.8464,527.35124 346.8145,527.46223 346.64476,527.68859 C 346.18232,528.30537 344.96423,529.30086 343.52828,530.23558 C 343.15961,530.47555 342.44367,530.99299 341.93727,531.38548 C 336.83019,535.34371 333.36066,537.6867 331.86057,538.19026 C 331.56315,538.2901 331.44803,538.30389 330.91259,538.30389 C 329.87982,538.30389 328.69358,538.52775 326.66948,539.10461 C 323.68617,539.95485 320.94197,541.06994 319.50007,542.01789 C 318.24803,542.84105 317.24197,544.42099 316.2312,547.15155 C 315.83351,548.22587 315.36453,549.81383 314.79956,551.99906 C 314.65878,552.54355 314.53005,553.01101 314.51345,553.03786 C 314.49688,553.06469 311.82222,553.65611 308.56977,554.35214 C 305.31733,555.04815 302.62188,555.6282 302.57985,555.64109 C 302.52453,555.65807 302.49386,555.63009 302.46861,555.53962 z "
         style="fill:#ffffff;fill-opacity:1;stroke:none;stroke-opacity:1" />
      <path
         id="path5482"
         d="M 287.15085,575.34794 C 287.08907,575.33417 286.96711,575.32219 286.87982,575.32131 C 286.4975,575.3174 285.41219,574.76921 284.24454,573.99014 C 282.97799,573.14509 281.95998,572.33728 280.80592,571.26145 C 280.57358,571.04485 280.1688,570.67209 279.90639,570.43306 C 279.20165,569.79115 278.1144,568.69884 277.7948,568.31163 C 277.21055,567.60385 276.8978,567.08291 276.8548,566.74591 C 276.78942,566.23355 276.79173,566.11275 276.87507,565.67203 C 276.89397,565.57211 277.14102,565.35718 277.47719,565.14822 C 278.10629,564.75714 279.4447,563.84942 284.16029,560.61559 C 291.33514,555.69529 294.35791,553.69486 295.95177,552.81219 C 296.35558,552.58856 296.46683,552.5636 297.06319,552.56296 C 297.63468,552.56237 298.11561,552.61366 298.45732,552.71172 C 299.14057,552.90776 300.19675,553.32058 301.12803,553.75558 C 301.59289,553.97273 301.62624,553.99338 301.62624,554.06404 C 301.62624,554.13222 301.61021,554.14425 301.46479,554.18509 C 301.13046,554.27902 300.23808,554.57282 299.50618,554.82995 C 295.05943,556.39213 290.60997,558.54662 286.63137,561.06421 C 285.68841,561.66089 285.57895,561.74108 285.22676,562.09327 C 284.22635,563.09365 283.32574,564.65681 283.07464,565.82854 C 283.03957,565.99214 283.02343,566.18645 283.02325,566.4463 C 283.02303,566.86069 283.07258,567.07745 283.22834,567.34319 C 283.844,568.39377 286.96958,569.38582 291.01218,569.81375 C 292.19164,569.9386 292.73483,569.9675 293.93225,569.96897 L 295.09757,569.97041 L 295.40645,569.8637 C 296.23234,569.57843 297.36245,568.93283 299.81506,567.34514 C 301.94035,565.9694 302.59631,565.5686 303.35317,565.18347 C 304.06188,564.82282 304.41996,564.71568 304.72507,564.77293 C 304.84123,564.7947 304.86263,564.85999 304.86389,565.19673 C 304.86573,565.68369 304.81256,565.86907 304.56586,566.23571 C 303.85309,567.29499 302.09898,568.73459 299.63147,570.28534 C 297.55779,571.58863 295.196,572.79704 293.93819,573.19838 C 293.8191,573.23638 293.49963,573.31826 293.22828,573.38033 C 291.77817,573.71199 290.32976,574.22845 288.41447,575.09678 C 288.14333,575.21972 287.90394,575.30944 287.81074,575.32309 C 287.53593,575.36336 287.26582,575.37352 287.15085,575.34794 z "
         style="opacity:0.7;fill:#ffffff;fill-opacity:1;stroke:none;stroke-opacity:1" />
      <path
         id="path6524"
         d="M 292.13997,567.19304 C 292.11265,567.18944 291.75894,567.17958 291.35389,567.17114 C 290.6246,567.15589 290.168,567.1245 289.51697,567.0448 C 288.007,566.85994 287.00054,566.56237 286.64758,566.19645 C 286.57272,566.11884 286.54799,566.02673 286.5492,565.8297 C 286.55073,565.57306 286.57433,565.47299 286.68405,565.25777 C 287.14921,564.34542 288.48727,562.90072 290.06307,561.60947 C 290.40883,561.32616 290.98225,560.89578 291.27987,560.69624 L 291.49457,560.55226 L 296.36819,559.96273 L 301.24184,559.3732 L 301.56454,559.39164 C 301.86457,559.40876 302.12136,559.42775 302.77508,559.48114 C 303.07657,559.50575 303.09998,559.51667 303.07147,559.61938 C 303.06193,559.65371 303.05409,559.71296 303.05403,559.75108 C 303.05392,559.84884 302.90039,560.20808 302.68681,560.61039 C 301.53456,562.78095 299.20732,565.51492 297.65901,566.51687 C 297.21522,566.80407 296.90378,566.93993 296.50365,567.02084 C 296.0955,567.10339 295.57422,567.15575 294.99466,567.17243 C 294.42512,567.18883 292.2288,567.20469 292.13997,567.19304 z "
         style="fill:#ffffff;fill-opacity:1;stroke:none;stroke-opacity:1" />
    </g>
  </g>
</svg>
