<?xml version="1.0" encoding="UTF-8" standalone="no"?>
<!-- Created with Inkscape (http://www.inkscape.org/) -->
<svg
   xmlns:dc="http://purl.org/dc/elements/1.1/"
   xmlns:cc="http://creativecommons.org/ns#"
   xmlns:rdf="http://www.w3.org/1999/02/22-rdf-syntax-ns#"
   xmlns:svg="http://www.w3.org/2000/svg"
   xmlns="http://www.w3.org/2000/svg"
   xmlns:xlink="http://www.w3.org/1999/xlink"
   xmlns:sodipodi="http://sodipodi.sourceforge.net/DTD/sodipodi-0.dtd"
   xmlns:inkscape="http://www.inkscape.org/namespaces/inkscape"
   id="svg2"
   sodipodi:version="0.32"
   inkscape:version="0.46"
   width="256"
   height="256"
   version="1.0"
   sodipodi:docbase="/home/arkham/Desktop"
   sodipodi:docname="pidgin.svg"
   inkscape:output_extension="org.inkscape.output.svg.inkscape">
  <sodipodi:namedview
     inkscape:window-height="710"
     inkscape:window-width="910"
     inkscape:pageshadow="2"
     inkscape:pageopacity="0.0"
     guidetolerance="10.0"
     gridtolerance="10.0"
     objecttolerance="10.0"
     borderopacity="1.0"
     bordercolor="#666666"
     pagecolor="#ffffff"
     id="base"
     width="48px"
     height="48px"
     inkscape:zoom="3.890625"
     inkscape:cx="64"
     inkscape:cy="64"
     inkscape:window-x="371"
     inkscape:window-y="178"
     inkscape:current-layer="svg2"
     showgrid="false" />
  <metadata
     id="metadata7">
    <rdf:RDF>
      <cc:Work
         rdf:about="">
        <dc:format>image/svg+xml</dc:format>
        <dc:type
           rdf:resource="http://purl.org/dc/dcmitype/StillImage" />
      </cc:Work>
    </rdf:RDF>
  </metadata>
  <defs
     id="defs5">
    <linearGradient
       inkscape:collect="always"
       id="linearGradient2850">
      <stop
         style="stop-color:#ce5c00;stop-opacity:1;"
         offset="0"
         id="stop2852" />
      <stop
         style="stop-color:#ce5c00;stop-opacity:0;"
         offset="1"
         id="stop2854" />
    </linearGradient>
    <linearGradient
       inkscape:collect="always"
       xlink:href="#linearGradient2850"
       id="linearGradient2856"
       x1="21.785719"
       y1="28.142857"
       x2="17.785713"
       y2="30.07143"
       gradientUnits="userSpaceOnUse"
       gradientTransform="translate(0,-0.999982)" />
    <linearGradient
       inkscape:collect="always"
       id="linearGradient6506">
      <stop
         style="stop-color:#eeeeec;stop-opacity:1;"
         offset="0"
         id="stop6508" />
      <stop
         style="stop-color:#eeeeec;stop-opacity:0;"
         offset="1"
         id="stop6510" />
    </linearGradient>
    <linearGradient
       inkscape:collect="always"
       xlink:href="#linearGradient6506"
       id="linearGradient6512"
       x1="15.645709"
       y1="41.751736"
       x2="15.645709"
       y2="47.370037"
       gradientUnits="userSpaceOnUse"
       gradientTransform="matrix(1,0,0,0.988192,0.5625,-1.39645)" />
    <linearGradient
       inkscape:collect="always"
       id="linearGradient2816">
      <stop
         style="stop-color:#eeeeec;stop-opacity:1;"
         offset="0"
         id="stop2818" />
      <stop
         style="stop-color:#eeeeec;stop-opacity:0;"
         offset="1"
         id="stop2820" />
    </linearGradient>
    <radialGradient
       inkscape:collect="always"
       xlink:href="#linearGradient2816"
       id="radialGradient2824"
       cx="9.4288578"
       cy="19.283415"
       fx="9.4288578"
       fy="19.283415"
       r="16.390339"
       gradientTransform="matrix(1.556432,0,0,1.618148,-5.04294,-15.39321)"
       gradientUnits="userSpaceOnUse" />
    <linearGradient
       inkscape:collect="always"
       id="linearGradient2826">
      <stop
         style="stop-color:#3b1941;stop-opacity:1;"
         offset="0"
         id="stop2828" />
      <stop
         style="stop-color:#3b1941;stop-opacity:0;"
         offset="1"
         id="stop2830" />
    </linearGradient>
    <linearGradient
       inkscape:collect="always"
       xlink:href="#linearGradient2826"
       id="linearGradient2832"
       x1="13.191773"
       y1="41.606163"
       x2="13.191773"
       y2="47.843258"
       gradientUnits="userSpaceOnUse" />
    <linearGradient
       inkscape:collect="always"
       id="linearGradient2834">
      <stop
         style="stop-color:#82508e;stop-opacity:1;"
         offset="0"
         id="stop2836" />
      <stop
         style="stop-color:#82508e;stop-opacity:0;"
         offset="1"
         id="stop2838" />
    </linearGradient>
    <linearGradient
       inkscape:collect="always"
       xlink:href="#linearGradient2834"
       id="linearGradient2840"
       x1="11.373499"
       y1="41.566242"
       x2="11.373499"
       y2="47.746658"
       gradientUnits="userSpaceOnUse" />
    <linearGradient
       inkscape:collect="always"
       id="linearGradient3169">
      <stop
         style="stop-color:#ffffff;stop-opacity:1;"
         offset="0"
         id="stop3171" />
      <stop
         style="stop-color:#ffffff;stop-opacity:0;"
         offset="1"
         id="stop3173" />
    </linearGradient>
    <inkscape:perspective
       sodipodi:type="inkscape:persp3d"
       inkscape:vp_x="0 : 24 : 1"
       inkscape:vp_y="0 : 1000 : 0"
       inkscape:vp_z="48 : 24 : 1"
       inkscape:persp3d-origin="24 : 16 : 1"
       id="perspective7" />
    <linearGradient
       inkscape:collect="always"
       xlink:href="#linearGradient3169"
       id="linearGradient3222"
       gradientUnits="userSpaceOnUse"
       gradientTransform="matrix(1,0,0,1.5833333,0,-1.7991967)"
       x1="24"
       y1="0.64933401"
       x2="24"
       y2="13.970832" />
    <linearGradient
       inkscape:collect="always"
       xlink:href="#linearGradient3169"
       id="linearGradient3224"
       gradientUnits="userSpaceOnUse"
       gradientTransform="matrix(1,0,0,1.6078431,0,-50.453105)"
       x1="23.228916"
       y1="-12.322069"
       x2="23.13253"
       y2="8.9198704" />
    <linearGradient
       inkscape:collect="always"
       xlink:href="#linearGradient3169"
       id="linearGradient2424"
       gradientUnits="userSpaceOnUse"
       gradientTransform="matrix(2.6939204,0,0,4.3314013,0.5305751,-134.77376)"
       x1="23.228916"
       y1="-12.322069"
       x2="23.13253"
       y2="8.9198704" />
    <linearGradient
       inkscape:collect="always"
       xlink:href="#linearGradient3169"
       id="linearGradient2427"
       gradientUnits="userSpaceOnUse"
       gradientTransform="matrix(2.6939204,0,0,4.2653739,0.5305751,-5.9897787)"
       x1="24"
       y1="0.64933401"
       x2="24"
       y2="13.970832" />
    <linearGradient
       inkscape:collect="always"
       xlink:href="#linearGradient3169"
       id="linearGradient2443"
       gradientUnits="userSpaceOnUse"
       gradientTransform="matrix(2.6939204,0,0,4.2653739,0.5305751,-5.9897787)"
       x1="24"
       y1="0.64933401"
       x2="24"
       y2="13.970832" />
    <linearGradient
       inkscape:collect="always"
       xlink:href="#linearGradient3169"
       id="linearGradient2445"
       gradientUnits="userSpaceOnUse"
       gradientTransform="matrix(2.6939204,0,0,4.3314013,0.5305751,-134.77376)"
       x1="23.228916"
       y1="-12.322069"
       x2="23.13253"
       y2="8.9198704" />
    <linearGradient
       inkscape:collect="always"
       xlink:href="#linearGradient2834"
       id="linearGradient2447"
       gradientUnits="userSpaceOnUse"
       x1="11.373499"
       y1="41.566242"
       x2="11.373499"
       y2="47.746658" />
    <linearGradient
       inkscape:collect="always"
       xlink:href="#linearGradient2826"
       id="linearGradient2449"
       gradientUnits="userSpaceOnUse"
       x1="13.191773"
       y1="41.606163"
       x2="13.191773"
       y2="47.843258" />
    <radialGradient
       inkscape:collect="always"
       xlink:href="#linearGradient2816"
       id="radialGradient2451"
       gradientUnits="userSpaceOnUse"
       gradientTransform="matrix(1.556432,0,0,1.618148,-5.04294,-15.39321)"
       cx="9.4288578"
       cy="19.283415"
       fx="9.4288578"
       fy="19.283415"
       r="16.390339" />
    <linearGradient
       inkscape:collect="always"
       xlink:href="#linearGradient6506"
       id="linearGradient2453"
       gradientUnits="userSpaceOnUse"
       gradientTransform="matrix(1,0,0,0.988192,0.5625,-1.39645)"
       x1="15.645709"
       y1="41.751736"
       x2="15.645709"
       y2="47.370037" />
    <linearGradient
       inkscape:collect="always"
       xlink:href="#linearGradient2850"
       id="linearGradient2455"
       gradientUnits="userSpaceOnUse"
       gradientTransform="translate(0,-0.999982)"
       x1="21.785719"
       y1="28.142857"
       x2="17.785713"
       y2="30.07143" />
  </defs>
  <g
     id="g2423"
     transform="matrix(2.1248493,0,0,2.1248493,-10.52729,-8.0607518)">
    <rect
       ry="16.083071"
       rx="17.921095"
       y="7.1660728"
       x="9.3588448"
       height="83.868561"
       width="111.65163"
       id="rect3167"
       style="opacity:0.89655175;fill:url(#linearGradient2443);fill-opacity:1;stroke:none;stroke-width:6.63600016;stroke-miterlimit:4;stroke-dasharray:none;stroke-opacity:1" />
    <rect
       transform="scale(1,-1)"
       style="opacity:0.89655175;fill:url(#linearGradient2445);fill-opacity:1;stroke:none;stroke-width:6.63600016;stroke-miterlimit:4;stroke-dasharray:none;stroke-opacity:1"
       id="rect3177"
       width="111.65163"
       height="85.166832"
       x="9.3588448"
       y="-121.41427"
       rx="17.921095"
       ry="16.332037" />
    <g
       transform="matrix(2.1957103,0,0,2.1957103,29.484977,2.1699743)"
       id="g2458">
      <path
         style="opacity:1;fill:url(#linearGradient2447);fill-opacity:1;stroke:url(#linearGradient2449);stroke-width:1.00595677;stroke-miterlimit:4;stroke-dasharray:none;stroke-opacity:1"
         d="M 15,13 C 8.3759979,13 3,18.600001 3,25.5 C 4.8460021,40.483064 0.49299658,38.484005 0.052646307,45.33795 C 0.052646307,47.422072 1.0380664,48.413461 3.1446965,48.413461 C 4.3321851,48.413461 29.360035,48.5596 32.051034,48.5596 C 34.165161,48.5596 34,46.5 34,46.5 C 34,43.834589 27.597902,41.598052 25.813453,39.641526 C 23.985035,37.640505 26,30.5 26,30.5 C 26.641306,28.9702 27,27.275084 27,25.5 C 27,18.600001 21.624002,13 15,13 z"
         id="path5176"
         sodipodi:nodetypes="cccccszcsc"
         transform="matrix(1,0,0,0.988192,0.447354,-1.486208)" />
      <path
         style="opacity:0.5;fill:url(#radialGradient2451);fill-opacity:1;stroke:url(#linearGradient2453);stroke-width:0.99999994;stroke-miterlimit:4;stroke-opacity:1"
         d="M 15.5625,12.5 C 9.550204,12.5 4.641496,17.515648 4.625,23.771565 C 4.624972,23.782116 4.625,23.791888 4.625,23.802446 C 5.536919,31.234151 4.868766,35.631074 3.15625,38.717969 C 0.36471303,44.302845 2.123521,45.533069 4.465864,45.533069 C 6.402445,45.533069 24.520621,45.503627 30.346594,45.503627 C 31.513801,45.503627 33.5,46.001748 33.5,44.554478 C 33.5,44.335354 33.300249,43.923343 32.75,43.411881 C 32.199751,42.90042 31.37676,42.351214 30.46875,41.806069 C 29.56074,41.260924 28.59071,40.709456 27.71875,40.169376 C 26.84679,39.629297 26.074154,39.125147 25.53125,38.409159 C 24.921245,37.604678 24.641306,36.658991 24.586842,35.629869 C 24.532378,34.600747 24.670221,33.49665 24.787061,32.449126 C 25.020741,30.354077 25.53125,28.527239 25.53125,28.527239 C 25.54624,28.4637 25.567163,28.401673 25.59375,28.341953 C 26.181231,26.957097 26.5,25.414481 26.5,23.802446 C 26.5,17.531779 21.584936,12.5 15.5625,12.5 z"
         id="path5241"
         sodipodi:nodetypes="csscccssssssscssc" />
      <path
         style="opacity:1;fill:#a46bb0;fill-opacity:1;stroke:none;stroke-width:1;stroke-miterlimit:4;stroke-opacity:1"
         d="M 7.269301,19.503118 C 9.2717505,17.238166 12.529418,17.841584 13.808008,19.287784 C 15.560146,21.269611 15.356996,24.71627 13.354547,26.981222 C 11.614386,28.949501 8.7521391,29.981828 7,28 C 5.2478601,26.018172 5.6872953,21.292511 7.269301,19.503118 z"
         id="path5160"
         sodipodi:nodetypes="csssc" />
      <path
         transform="matrix(1.46245,0,0,1.378883,-5.440518,-10.80605)"
         style="opacity:1;fill:#ffffff;fill-opacity:1;stroke:none;stroke-width:1;stroke-miterlimit:4;stroke-opacity:1"
         d="M 13.257119,24.626053 C 13.257119,26.227351 11.8279,27.316574 10.863875,27.316574 C 9.5428049,27.316574 8.4706318,26.01697 8.4706318,24.415672 C 8.4706318,23.024119 9.2055946,21.514771 10.526665,21.514771 C 11.847736,21.514771 13.257119,23.360971 13.257119,24.626053 z"
         id="path5157"
         sodipodi:nodetypes="csssc" />
      <path
         sodipodi:type="arc"
         style="opacity:1;fill:#5c3566;fill-opacity:1;stroke:none;stroke-width:1;stroke-miterlimit:4;stroke-dasharray:none;stroke-opacity:1"
         id="path5162"
         sodipodi:cx="10.169642"
         sodipodi:cy="24.3125"
         sodipodi:rx="1.2410715"
         sodipodi:ry="1.2946428"
         d="M 11.410714,24.3125 A 1.2410715,1.2946428 0 1 1 8.928571,24.3125 A 1.2410715,1.2946428 0 1 1 11.410714,24.3125 z"
         transform="matrix(1.208632,0,0,1.544828,-1.738701,-14.41893)" />
      <path
         sodipodi:type="arc"
         style="opacity:1;fill:#000000;fill-opacity:1;stroke:none;stroke-width:1;stroke-miterlimit:4;stroke-dasharray:none;stroke-opacity:1"
         id="path5164"
         sodipodi:cx="10.169642"
         sodipodi:cy="24.3125"
         sodipodi:rx="1.2410715"
         sodipodi:ry="1.2946428"
         d="M 11.410714,24.3125 A 1.2410715,1.2946428 0 1 1 8.928571,24.3125 A 1.2410715,1.2946428 0 1 1 11.410714,24.3125 z"
         transform="matrix(0.402878,0,0,0.514947,6.455534,10.62004)" />
      <path
         style="opacity:1;fill:#975fa3;fill-opacity:1;stroke:none;stroke-width:1;stroke-miterlimit:4;stroke-opacity:1"
         d="M 27.88281,19.946791 C 26.359012,18.309616 23.880032,18.745786 22.907068,19.791141 C 21.573747,21.223665 21.728337,23.715015 23.252136,25.35219 C 24.576341,26.77492 26.754418,27.521117 28.087739,26.088593 C 29.42106,24.656068 29.086665,21.240217 27.88281,19.946791 z"
         id="path5167"
         sodipodi:nodetypes="csssc" />
      <path
         transform="matrix(0.726374,-0.813272,-0.684868,-0.766801,34.41717,50.34012)"
         style="opacity:1;fill:#ffffff;fill-opacity:1;stroke:none;stroke-width:1;stroke-miterlimit:4;stroke-opacity:1"
         d="M 13.257119,24.626053 C 13.257119,26.227351 11.8279,27.316574 10.863875,27.316574 C 9.5428049,27.316574 8.4706318,26.01697 8.4706318,24.415672 C 8.4706318,23.024119 9.2055946,21.514771 10.526665,21.514771 C 11.847736,21.514771 13.257119,23.360971 13.257119,24.626053 z"
         id="path5169"
         sodipodi:nodetypes="csssc" />
      <path
         sodipodi:type="arc"
         style="opacity:1;fill:#5c3566;fill-opacity:1;stroke:none;stroke-width:1;stroke-miterlimit:4;stroke-dasharray:none;stroke-opacity:1"
         id="path5171"
         sodipodi:cx="10.169642"
         sodipodi:cy="24.3125"
         sodipodi:rx="1.2410715"
         sodipodi:ry="1.2946428"
         d="M 11.410714,24.3125 A 1.2410715,1.2946428 0 1 1 8.928571,24.3125 A 1.2410715,1.2946428 0 1 1 11.410714,24.3125 z"
         transform="matrix(1.208632,0,0,1.598777,13.20865,-15.80042)" />
      <path
         sodipodi:type="arc"
         style="opacity:1;fill:#000000;fill-opacity:1;stroke:none;stroke-width:1;stroke-miterlimit:4;stroke-dasharray:none;stroke-opacity:1"
         id="path5173"
         sodipodi:cx="10.169642"
         sodipodi:cy="24.3125"
         sodipodi:rx="1.2410715"
         sodipodi:ry="1.2946428"
         d="M 11.410714,24.3125 A 1.2410715,1.2946428 0 1 1 8.928571,24.3125 A 1.2410715,1.2946428 0 1 1 11.410714,24.3125 z"
         transform="matrix(0.402878,0,0,0.53293,21.40289,10.11299)" />
      <rect
         style="opacity:1;fill:#eeeeec;fill-opacity:1;stroke:none;stroke-width:1;stroke-miterlimit:4;stroke-dasharray:none;stroke-opacity:1"
         id="rect5215"
         width="7"
         height="1.8602936"
         x="15"
         y="27.000017"
         rx="0.81387848"
         ry="0.93014681" />
      <path
         style="fill:#fcaf3e;fill-opacity:1;stroke:none;stroke-width:1.0283047;stroke-miterlimit:4;stroke-opacity:1"
         d="M 12.000005,28.650812 C 17.33287,31.553263 18.051747,26 19.060912,26 C 20.056192,26 20.46502,31.577054 25,28.653901 C 24.047304,30.344123 21.119071,32.999996 19.884593,32.999996 C 18.636217,32.999996 13.548138,31.147528 12.000005,28.650812 z"
         id="rect5187"
         sodipodi:nodetypes="czczc" />
      <path
         transform="matrix(1.236264,0,0,0.549587,-6.482886,4.775206)"
         style="fill:#3b1941;fill-opacity:1;stroke:none;stroke-width:1;stroke-miterlimit:4;stroke-opacity:1"
         d="M 11.651119,11.193815 C 12.963532,7.814583 16.999999,10.43431 16.999999,12.891665 L 13.737594,13.834879 L 11.651119,11.193815 z"
         id="path5192"
         sodipodi:nodetypes="cccc" />
      <path
         transform="matrix(1.50247,0,0,1,-7.59464,-1.139701)"
         style="fill:#3b1941;fill-opacity:1;stroke:none;stroke-width:1;stroke-miterlimit:4;stroke-opacity:1"
         d="M 11.689238,9.8218679 C 13.591296,8.0161941 17.219555,11.23544 17.564573,12.891665 L 14.543472,12.891665 L 11.689238,9.8218679 z"
         id="rect5189"
         sodipodi:nodetypes="cccc" />
      <path
         style="fill:url(#linearGradient2455);fill-opacity:1;stroke:none;stroke-width:1.0283047;stroke-miterlimit:4;stroke-opacity:1"
         d="M 12.000005,28.650834 C 17.332871,31.553285 18.051747,26.000022 19.060912,26.000022 C 20.056192,26.000022 20.46502,31.577076 25,28.653923 C 24.047304,30.344145 21.119071,33.000018 19.884593,33.000018 C 18.636217,33.000018 13.548139,31.14755 12.000005,28.650834 z"
         id="path6561"
         sodipodi:nodetypes="czczc" />
    </g>
  </g>
</svg>
