<?xml version="1.0" encoding="UTF-8" standalone="no"?>
<!-- Created with Inkscape (http://www.inkscape.org/) -->
<svg
   xmlns:dc="http://purl.org/dc/elements/1.1/"
   xmlns:cc="http://web.resource.org/cc/"
   xmlns:rdf="http://www.w3.org/1999/02/22-rdf-syntax-ns#"
   xmlns:svg="http://www.w3.org/2000/svg"
   xmlns="http://www.w3.org/2000/svg"
   xmlns:xlink="http://www.w3.org/1999/xlink"
   xmlns:sodipodi="http://sodipodi.sourceforge.net/DTD/sodipodi-0.dtd"
   xmlns:inkscape="http://www.inkscape.org/namespaces/inkscape"
   id="svg2211"
   sodipodi:version="0.32"
   inkscape:version="0.45.1"
   width="270"
   height="276"
   version="1.0"
   sodipodi:docbase="/home/leto-ii/.cairo-dock/current_theme/launchers"
   sodipodi:docname="ftp.svg"
   inkscape:output_extension="org.inkscape.output.svg.inkscape">
  <metadata
     id="metadata2216">
    <rdf:RDF>
      <cc:Work
         rdf:about="">
        <dc:format>image/svg+xml</dc:format>
        <dc:type
           rdf:resource="http://purl.org/dc/dcmitype/StillImage" />
      </cc:Work>
    </rdf:RDF>
  </metadata>
  <defs
     id="defs2214">
    <linearGradient
       id="linearGradient4183">
      <stop
         style="stop-color:#000000;stop-opacity:1;"
         offset="0"
         id="stop4185" />
      <stop
         style="stop-color:#36d86b;stop-opacity:1;"
         offset="1"
         id="stop4187" />
    </linearGradient>
    <linearGradient
       id="linearGradient3204">
      <stop
         style="stop-color:#fdcbff;stop-opacity:1;"
         offset="0"
         id="stop3206" />
      <stop
         id="stop3212"
         offset="0.5"
         style="stop-color:#ff10c0;stop-opacity:1;" />
      <stop
         style="stop-color:#fce2fe;stop-opacity:1;"
         offset="1"
         id="stop3208" />
    </linearGradient>
    <linearGradient
       id="linearGradient3194">
      <stop
         style="stop-color:#000000;stop-opacity:1;"
         offset="0"
         id="stop3196" />
      <stop
         id="stop3202"
         offset="0.5"
         style="stop-color:#000000;stop-opacity:0.49803922;" />
      <stop
         style="stop-color:#000000;stop-opacity:0;"
         offset="1"
         id="stop3198" />
    </linearGradient>
    <linearGradient
       inkscape:collect="always"
       xlink:href="#linearGradient3204"
       id="linearGradient3210"
       x1="122.93636"
       y1="271.90213"
       x2="123.96083"
       y2="7.5889473"
       gradientUnits="userSpaceOnUse"
       gradientTransform="matrix(1.0187007,0,0,1.0256628,-2.7613195,-5.3122504)" />
  </defs>
  <sodipodi:namedview
     inkscape:window-height="858"
     inkscape:window-width="970"
     inkscape:pageshadow="2"
     inkscape:pageopacity="0.0"
     guidetolerance="10.0"
     gridtolerance="10.0"
     objecttolerance="10.0"
     borderopacity="1.0"
     bordercolor="#666666"
     pagecolor="#ffffff"
     id="base"
     inkscape:zoom="1"
     inkscape:cx="135.26356"
     inkscape:cy="89.576389"
     inkscape:window-x="181"
     inkscape:window-y="146"
     inkscape:current-layer="svg2211" />
  <rect
     style="opacity:1;fill:url(#linearGradient3210);fill-opacity:1;fill-rule:evenodd;stroke:#f8aafe;stroke-width:4.90644407;stroke-linecap:round;stroke-linejoin:round;stroke-miterlimit:4;stroke-dasharray:none;stroke-dashoffset:0.07;stroke-opacity:1"
     id="rect2220"
     width="265.08151"
     height="271.09622"
     x="2.4568202"
     y="2.471451"
     rx="32.598423"
     ry="32.821209" />
  <path
     id="text6073"
     style="font-size:181.62406921px;font-style:normal;font-weight:normal;fill:#ffffff;fill-opacity:1;stroke:none;stroke-width:1px;stroke-linecap:butt;stroke-linejoin:miter;stroke-opacity:1;font-family:ae_Ouhod"
     d="M 19.572169,21.523437 L 79.677968,21.523437 L 79.677968,61.085514 L 41.844288,61.085514 L 41.844288,98.880213 L 77.421832,98.880213 L 77.421832,138.44229 L 41.844288,138.44229 L 41.844288,224.5 L 19.572169,224.5 L 19.572169,21.523437 M 90.264453,21.523437 L 169.86559,21.523437 L 169.86559,61.085514 L 141.23001,61.085514 L 141.23001,224.5 L 118.95789,224.5 L 118.95789,61.085514 L 90.264453,61.085514 L 90.264453,21.523437 M 181.31982,21.523437 L 218.28575,21.523437 C 229.27713,21.523641 237.70389,27.278944 243.56606,38.789361 C 249.46665,50.209517 252.41697,66.523758 252.41705,87.732136 C 252.41697,109.03142 249.46665,125.4363 243.56606,136.94681 C 237.70389,148.36687 229.27713,154.07685 218.28575,154.07679 L 203.59194,154.07679 L 203.59194,224.5 L 181.31982,224.5 L 181.31982,21.523437 M 203.59194,59.454089 L 203.59194,116.14614 L 215.91392,116.14614 C 220.23331,116.14624 223.5693,113.69911 225.92191,108.80472 C 228.27441,103.81993 229.45068,96.79574 229.45074,87.732136 C 229.45068,78.668804 228.27441,71.689935 225.92191,66.795504 C 223.5693,61.90139 220.23331,59.454253 215.91392,59.454089 L 203.59194,59.454089M 19.577556,49.626638 L 79.683356,49.626638 L 79.683356,89.188713 L 41.849675,89.188713 L 41.849675,126.98341 L 77.427214,126.98341 L 77.427214,166.54549 L 41.849675,166.54549 L 41.849675,252.60321 L 19.577556,252.60321 L 19.577556,49.626638 M 90.269842,49.626638 L 169.87097,49.626638 L 169.87097,89.188713 L 141.2354,89.188713 L 141.2354,252.60321 L 118.96327,252.60321 L 118.96327,89.188713 L 90.269842,89.188713 L 90.269842,49.626638 M 181.32521,49.626638 L 218.29114,49.626638 C 229.28252,49.62684 237.70928,55.382142 243.57145,66.89256 C 249.47203,78.312716 252.42236,94.626957 252.42244,115.83533 C 252.42236,137.13462 249.47203,153.5395 243.57145,165.05001 C 237.70928,176.47007 229.28252,182.18005 218.29114,182.17999 L 203.59733,182.17999 L 203.59733,252.60321 L 181.32521,252.60321 L 181.32521,49.626638 M 203.59733,87.557288 L 203.59733,144.24933 L 215.9193,144.24933 C 220.2387,144.24944 223.57469,141.80231 225.9273,136.90792 C 228.27979,131.92313 229.45607,124.89894 229.45613,115.83533 C 229.45607,106.772 228.27979,99.793134 225.9273,94.898704 C 223.57469,90.004589 220.2387,87.557452 215.9193,87.557288 L 203.59733,87.557288" />
</svg>
