<?xml version="1.0" encoding="UTF-8" standalone="no"?>
<!-- Created with Inkscape (http://www.inkscape.org/) -->
<svg
   xmlns:dc="http://purl.org/dc/elements/1.1/"
   xmlns:cc="http://web.resource.org/cc/"
   xmlns:rdf="http://www.w3.org/1999/02/22-rdf-syntax-ns#"
   xmlns:svg="http://www.w3.org/2000/svg"
   xmlns="http://www.w3.org/2000/svg"
   xmlns:xlink="http://www.w3.org/1999/xlink"
   xmlns:sodipodi="http://sodipodi.sourceforge.net/DTD/sodipodi-0.dtd"
   xmlns:inkscape="http://www.inkscape.org/namespaces/inkscape"
   id="svg2211"
   sodipodi:version="0.32"
   inkscape:version="0.45.1"
   width="270"
   height="276"
   version="1.0"
   sodipodi:docbase="/home/leto-ii/Desktop/icone-iphone-svg"
   sodipodi:docname="gravage.svg"
   inkscape:output_extension="org.inkscape.output.svg.inkscape">
  <metadata
     id="metadata2216">
    <rdf:RDF>
      <cc:Work
         rdf:about="">
        <dc:format>image/svg+xml</dc:format>
        <dc:type
           rdf:resource="http://purl.org/dc/dcmitype/StillImage" />
      </cc:Work>
    </rdf:RDF>
  </metadata>
  <defs
     id="defs2214">
    <linearGradient
       id="linearGradient4183">
      <stop
         style="stop-color:#000000;stop-opacity:1;"
         offset="0"
         id="stop4185" />
      <stop
         style="stop-color:#36d86b;stop-opacity:1;"
         offset="1"
         id="stop4187" />
    </linearGradient>
    <linearGradient
       id="linearGradient3204">
      <stop
         style="stop-color:#fa981f;stop-opacity:1;"
         offset="0"
         id="stop3206" />
      <stop
         id="stop3212"
         offset="0.5"
         style="stop-color:#ec290e;stop-opacity:1;" />
      <stop
         style="stop-color:#fa7d34;stop-opacity:1;"
         offset="1"
         id="stop3208" />
    </linearGradient>
    <linearGradient
       id="linearGradient3194">
      <stop
         style="stop-color:#000000;stop-opacity:1;"
         offset="0"
         id="stop3196" />
      <stop
         id="stop3202"
         offset="0.5"
         style="stop-color:#000000;stop-opacity:0.49803922;" />
      <stop
         style="stop-color:#000000;stop-opacity:0;"
         offset="1"
         id="stop3198" />
    </linearGradient>
    <linearGradient
       inkscape:collect="always"
       xlink:href="#linearGradient3204"
       id="linearGradient3210"
       x1="122.93636"
       y1="271.90213"
       x2="123.96083"
       y2="7.5889473"
       gradientUnits="userSpaceOnUse"
       gradientTransform="translate(-4.4765232e-6,-2.1213203)" />
  </defs>
  <sodipodi:namedview
     inkscape:window-height="721"
     inkscape:window-width="1024"
     inkscape:pageshadow="2"
     inkscape:pageopacity="0.0"
     guidetolerance="10.0"
     gridtolerance="10.0"
     objecttolerance="10.0"
     borderopacity="1.0"
     bordercolor="#666666"
     pagecolor="#ffffff"
     id="base"
     inkscape:zoom="1.4142136"
     inkscape:cx="149.48209"
     inkscape:cy="134.8418"
     inkscape:window-x="-4"
     inkscape:window-y="-4"
     inkscape:current-layer="svg2211" />
  <rect
     style="opacity:1;fill:url(#linearGradient3210);fill-opacity:1;fill-rule:evenodd;stroke:#faa000;stroke-width:4.80000019;stroke-linecap:round;stroke-linejoin:round;stroke-miterlimit:4;stroke-dasharray:none;stroke-dashoffset:0.07;stroke-opacity:1"
     id="rect2220"
     width="260.2153"
     height="264.31317"
     x="5.1223636"
     y="5.467627"
     rx="32"
     ry="32" />
  <rect
     style="opacity:1;fill:#ff0000;fill-opacity:1;fill-rule:evenodd;stroke:#ffffff;stroke-width:5.5;stroke-linecap:round;stroke-linejoin:round;stroke-miterlimit:4;stroke-dasharray:none;stroke-dashoffset:0.07;stroke-opacity:1"
     id="rect37349"
     width="0"
     height="132.625"
     x="214"
     y="16.5"
     rx="0"
     ry="32" />
  <path
     style="fill:#ffffff;fill-opacity:1;fill-rule:evenodd;stroke:none;stroke-width:1px;stroke-linecap:butt;stroke-linejoin:miter;stroke-opacity:1"
     d="M 135.99325,38.148286 C 124.74159,45.563291 135.47495,66.355515 129.49325,87.648286 C 121.86028,80.610943 111.09548,75.898649 102.99325,74.023286 C 115.92008,90.613391 115.95298,120.38592 107.3995,122.46078 C 100.3101,118.00985 94.137317,112.26641 84.868247,110.86703 C 84.879977,123.42504 97.123817,122.86836 88.993247,151.64828 C 82.493247,148.54042 75.993247,144.19696 69.493247,144.14828 C 93.730837,170.66626 76.483567,220.86181 108.36825,239.17953 C 92.202037,240.66942 95.050137,241.97089 94.430747,243.46078 L 185.99325,242.64828 C 184.85854,239.42851 173.34877,241.89877 172.49325,236.64828 C 223.17297,213.67385 206.90992,171.43995 205.36825,160.27328 C 203.87355,160.28009 202.98908,159.47328 202.49325,158.14828 C 202.5564,143.43155 204.78132,128.01997 195.99325,116.14828 C 194.74264,135.94702 188.49704,141.0938 182.99325,142.89828 C 184.35151,108.07066 176.46168,88.153266 161.49325,79.648286 C 163.12635,110.6471 133.07418,51.458579 135.99325,38.148286 z M 152.712,125.92953 C 153.39175,125.88602 154.4613,126.59928 156.05575,127.89828 C 159.59725,130.78353 161.6125,141.2702 160.61825,151.49203 C 160.16964,156.10411 160.30899,159.84336 160.8995,159.83578 C 161.49003,159.82821 164.39736,157.58261 167.36825,154.83578 C 170.33917,152.08892 173.36366,150.10029 174.087,150.39828 C 174.85615,150.71515 175.28873,154.27181 175.1495,158.96078 C 174.91334,166.9156 174.93394,166.99202 178.43075,166.99203 C 180.36913,166.99203 182.31791,167.59775 182.74325,168.39828 C 183.78227,170.35374 176.31322,196.12424 174.087,198.27328 C 173.11819,199.20852 172.337,199.43701 172.337,198.80453 C 172.33698,198.17209 170.70313,199.49193 168.712,201.71078 C 166.72084,203.92968 165.38747,206.25624 165.712,206.86703 C 166.51178,208.37223 159.36806,214.45141 153.55575,217.24203 C 147.54354,220.12863 126.18067,220.27307 119.3995,217.46078 C 107.71358,212.6144 100.68402,196.78786 100.087,173.96078 C 99.868937,165.62231 100.46067,161.23731 102.6495,154.42953 C 105.30478,146.17103 107.90404,143.43236 109.212,147.46078 C 109.52908,148.43735 109.53432,153.05447 109.24325,157.74203 C 108.78552,165.11339 109.19773,167.19967 112.1495,173.24203 C 115.88943,180.8978 119.78295,184.79962 125.212,186.30453 C 128.4675,187.20693 128.67007,187.00001 128.05575,183.86703 C 127.68891,181.99623 125.94447,176.00255 124.18075,170.55453 C 120.57178,159.40665 120.76988,152.00436 124.93075,142.39828 C 128.16838,134.92367 130.75232,135.95885 133.837,145.99203 C 135.20766,150.45018 136.9974,154.86873 137.837,155.83578 C 140.51216,158.917 139.47723,160.40127 136.61825,157.58578 L 133.86825,154.92953 L 136.087,157.92953 C 139.26952,162.31704 142.43754,160.70453 144.337,153.71078 C 145.22143,150.45436 147.18744,144.66174 148.74325,140.80453 C 150.29905,136.94733 151.58701,132.00209 151.587,129.80453 C 151.58699,127.25594 151.83803,125.98547 152.712,125.92953 z M 155.1495,131.49203 C 154.51958,131.49203 154.02449,131.88124 154.0245,132.64828 C 154.02449,133.29935 154.82779,133.83577 155.80575,133.83578 C 156.78372,133.83578 157.30794,133.29935 156.962,132.64828 C 156.55443,131.88123 155.77943,131.49203 155.1495,131.49203 z M 153.86825,136.27328 C 153.59267,136.22619 152.37816,138.35332 150.962,141.42953 C 149.3435,144.9452 148.0245,148.46077 148.0245,149.24203 C 148.0245,150.02329 149.34351,147.78894 150.962,144.27328 C 152.58047,140.75761 153.8995,137.24204 153.8995,136.46078 C 153.8995,136.36312 153.90763,136.28001 153.86825,136.27328 z M 129.61825,141.42953 C 128.23643,141.42953 124.6819,148.90016 124.7745,151.61703 C 124.80911,152.6324 125.70003,151.10484 126.74325,148.17953 C 127.78644,145.25424 129.11064,143.21599 129.712,143.64828 C 130.31335,144.08059 130.80575,143.72566 130.80575,142.89828 C 130.80573,142.07092 130.27268,141.42954 129.61825,141.42953 z M 131.2745,146.11703 C 131.22704,146.13167 131.1895,146.16424 131.1495,146.21078 C 130.82939,146.58312 130.95677,147.56505 131.3995,148.39828 C 132.60371,150.66459 133.28777,150.2138 132.462,147.71078 C 132.11399,146.65589 131.60682,146.01455 131.2745,146.11703 z M 107.3995,151.89828 C 106.46698,151.99755 102.80995,157.31714 102.7745,158.99203 C 102.75957,159.69752 103.83739,158.85613 105.18075,157.05453 C 106.52409,155.25294 107.60194,153.06781 107.587,152.21078 C 107.58305,151.98424 107.53271,151.88411 107.3995,151.89828 z M 147.68075,153.49203 C 147.48229,153.40081 146.93785,154.71273 146.11825,157.74203 C 145.10453,161.48887 143.92738,163.3392 142.61825,163.21078 C 141.52637,163.10368 140.90624,163.58023 141.2745,164.27328 C 142.81345,167.16961 145.43171,165.21156 146.61825,160.24203 C 147.6149,156.0677 147.93594,153.60932 147.68075,153.49203 z M 172.86825,155.77328 C 172.00575,155.72013 170.20554,156.76629 166.837,159.17953 C 161.26916,163.16833 161.95989,163.91644 167.837,160.27328 C 169.98659,158.94076 172.14573,157.98766 172.6495,158.14828 C 173.15324,158.3089 173.55576,157.83579 173.55575,157.05453 C 173.55575,156.2589 173.38574,155.80518 172.86825,155.77328 z M 124.05575,156.30453 C 123.84454,156.3267 123.69333,157.4217 123.712,159.17953 C 123.73688,161.52331 124.02736,162.28036 124.337,160.89828 C 124.64661,159.51621 124.64027,157.60998 124.30575,156.64828 C 124.22212,156.40785 124.12616,156.29714 124.05575,156.30453 z M 157.99325,160.55453 C 157.94442,160.55863 157.89764,160.6158 157.86825,160.64828 C 157.1439,161.44866 158.97509,164.14828 160.24325,164.14828 C 160.90178,164.14828 160.73433,163.24137 159.86825,162.14828 C 159.11042,161.19181 158.33511,160.52588 157.99325,160.55453 z M 172.8995,168.46078 C 172.56243,168.46078 172.337,168.92571 172.337,169.83578 C 172.33698,170.61704 172.93819,171.24204 173.6495,171.24203 C 174.36081,171.24203 174.59586,170.61705 174.18075,169.83578 C 173.69716,168.9257 173.23657,168.46077 172.8995,168.46078 z M 107.99325,168.96078 C 107.97009,168.96256 107.94731,168.97277 107.93075,168.99203 C 107.37207,169.64184 111.06386,178.36702 111.8995,178.36703 C 112.20722,178.36703 111.54777,176.12287 110.43075,173.39828 C 109.38352,170.84398 108.34056,168.93413 107.99325,168.96078 z M 111.8995,179.05453 L 114.212,182.27328 C 116.39828,185.27679 117.36825,186.06626 117.36825,184.92953 C 117.36824,184.65998 116.16078,183.23031 114.6495,181.74203 L 111.8995,179.05453 z M 101.962,181.46078 C 101.71211,181.56781 101.57847,182.30646 101.61825,183.42953 C 101.67683,185.08432 101.94716,185.43768 102.337,184.30453 C 102.68978,183.27912 102.64905,182.02655 102.24325,181.55453 C 102.1418,181.43653 102.0453,181.4251 101.962,181.46078 z M 119.30575,186.08578 C 119.0207,186.15491 118.97133,186.4141 119.212,186.86703 C 119.92916,188.21677 122.2745,188.86123 122.2745,187.71078 C 122.27449,187.40373 121.41066,186.7698 120.36825,186.30453 C 120.09655,186.18326 119.87285,186.11909 119.68075,186.08578 C 119.53667,186.0608 119.40077,186.06274 119.30575,186.08578 z M 124.837,188.42953 C 124.41275,188.44986 124.0399,188.59978 123.837,188.83578 C 123.43121,189.30781 124.14338,189.64746 125.43075,189.58578 C 126.85344,189.51763 127.12372,189.19547 126.1495,188.74203 C 125.70872,188.53687 125.26125,188.4092 124.837,188.42953 z M 130.962,188.92953 C 130.7699,188.96284 130.54619,189.02703 130.2745,189.14828 C 128.1588,190.09261 127.76784,191.14828 129.5245,191.14828 C 130.15652,191.14828 131.02039,190.48309 131.43075,189.71078 C 131.75163,189.10687 131.53831,188.82961 130.962,188.92953 z M 171.962,200.27328 C 172.03917,200.27104 172.10837,200.28793 172.1495,200.33578 C 172.9602,201.27878 168.5844,206.77329 167.0245,206.77328 C 166.33985,206.77328 167.10572,205.16084 168.68075,203.21078 C 170.05891,201.50446 171.42182,200.28899 171.962,200.27328 z M 108.212,204.64828 L 111.80575,209.24203 C 115.14922,213.5453 116.1495,214.52693 116.1495,213.42953 C 116.14949,213.18508 114.36369,211.09915 112.18075,208.80453 L 108.212,204.64828 z M 163.05575,207.74203 C 162.85157,207.6517 161.96576,208.24747 160.43075,209.55453 C 158.24778,211.4133 156.46199,213.18958 156.462,213.46078 C 156.46198,214.53948 161.05445,211.00879 162.68075,208.67953 C 163.08254,208.10409 163.17825,207.79624 163.05575,207.74203 z M 136.93075,216.83578 C 134.60659,216.83578 132.28766,216.91105 130.5245,217.05453 C 126.9982,217.34145 129.70137,218.29289 136.75397,218.29289 C 143.80656,218.29287 146.8633,217.34145 143.337,217.05453 C 141.57384,216.91106 139.25491,216.83578 136.93075,216.83578 z M 178.7745,217.33578 C 178.96651,217.31292 179.17773,217.32547 179.337,217.33578 C 176.98835,219.87977 174.36111,222.08598 171.5245,223.89828 C 170.13165,221.32869 175.98901,217.66731 178.7745,217.33578 z "
     id="path2262"
     sodipodi:nodetypes="ccccccccccccccccccssssssssssssssssssssssssscccsssccsssccssssccssssccsssccsssccssssccssssccsssccsssccsssccssscccscccsssccssssccsssccsssccssscccscccsssccsssccccc" />
</svg>
