<?xml version="1.0" encoding="UTF-8" standalone="no"?>
<!-- Created with Inkscape (http://www.inkscape.org/) -->
<svg
   xmlns:dc="http://purl.org/dc/elements/1.1/"
   xmlns:cc="http://web.resource.org/cc/"
   xmlns:rdf="http://www.w3.org/1999/02/22-rdf-syntax-ns#"
   xmlns:svg="http://www.w3.org/2000/svg"
   xmlns="http://www.w3.org/2000/svg"
   xmlns:xlink="http://www.w3.org/1999/xlink"
   xmlns:sodipodi="http://sodipodi.sourceforge.net/DTD/sodipodi-0.dtd"
   xmlns:inkscape="http://www.inkscape.org/namespaces/inkscape"
   width="256.0202"
   height="184.39798"
   id="svg2"
   sodipodi:version="0.32"
   inkscape:version="0.45.1"
   sodipodi:docbase="/home/christof/Grafiken/SVGs"
   sodipodi:docname="brit_icon_folder_GFX.svg"
   inkscape:output_extension="org.inkscape.output.svg.inkscape"
   version="1.0">
  <defs
     id="defs4">
    <linearGradient
       id="linearGradient15107">
      <stop
         style="stop-color:#ffffff;stop-opacity:1.0000000;"
         offset="0.0000000"
         id="stop15109" />
      <stop
         style="stop-color:#e2e2e2;stop-opacity:1.0000000;"
         offset="1.0000000"
         id="stop15111" />
    </linearGradient>
    <linearGradient
       y2="26.022909"
       x2="18.475286"
       y1="4.7461624"
       x1="11.572842"
       gradientTransform="matrix(4.424777,0,0,4.6697466,315.57521,459.96281)"
       gradientUnits="userSpaceOnUse"
       id="linearGradient27486"
       xlink:href="#linearGradient15107"
       inkscape:collect="always" />
    <radialGradient
       cx="64.551804"
       cy="14.1646"
       r="52.241501"
       fx="64.551804"
       fy="14.1646"
       id="XMLID_67_"
       gradientUnits="userSpaceOnUse">
      <stop
         style="stop-color:#0f80bc;stop-opacity:1"
         offset="0"
         id="stop85" />
      <stop
         style="stop-color:#0a5f9e;stop-opacity:1"
         offset="0.33759999"
         id="stop87" />
      <stop
         style="stop-color:#00145a;stop-opacity:1"
         offset="1"
         id="stop89" />
    </radialGradient>
    <clipPath
       clipPathUnits="userSpaceOnUse"
       id="clipoutline1">
      <path
         id="outline1"
         d="M 54.1,12.5 L 12.9,54.7 C -2.7,70.3 23,69 32.3,74.9 C 36.6,77.7 18.5,81.3 22.2,85 C 25.8,88.7 43.9,92.1 47.5,95.7 C 51.1,99.4 40.2,103.3 43.8,107 C 47.3,110.7 55.7,107.2 57.2,115.6 C 58.3,121.8 72.6,118.7 79,113.4 C 83,110 72.1,110 75.7,106.3 C 84.7,97.2 92.7,102.2 96,93.8 C 97.8,89.3 82.4,86.1 86.5,83.2 C 96.3,76.3 132.3,72.8 115.7,56.2 L 73,12.5 C 67.7,7.5 59,7.5 54.1,12.5 z M 44.2,77.2 C 45.1,77.2 75,81.2 63.5,84.3 C 59.1,85.5 38.9,77.2 44.2,77.2 z M 101.4,93.8 C 101.4,95.9 117.7,97.1 116.8,93.3 C 115.5,86.9 103.2,87.4 101.4,93.8 z M 31.9,104.9 C 35.6,108.1 41.2,104.2 43,99.7 C 39.4,95 26.1,100 31.9,104.9 z M 99.4,98.2 C 94.8,102.4 100.2,106.8 104.7,103.9 C 105.9,103.1 104.6,99.2 99.4,98.2 z " />
    </clipPath>
    <pattern
       inkscape:collect="always"
       xlink:href="#pattern7096"
       id="pattern7103"
       patternTransform="matrix(0.9807814,0.1951099,-0.1951099,0.9807814,88.853396,564.9863)" />
    <pattern
       patternUnits="userSpaceOnUse"
       width="52.64405"
       height="52.64405"
       patternTransform="translate(265.42265,627.97688)"
       id="pattern7044">
      <path
         id="path6068"
         d="M 0.5,0.5 L 52.14405,52.14405"
         style="fill:none;fill-rule:evenodd;stroke:#e04613;stroke-width:1px;stroke-linecap:butt;stroke-linejoin:miter;stroke-opacity:1" />
    </pattern>
    <pattern
       patternUnits="userSpaceOnUse"
       width="52.64405"
       height="52.64405"
       patternTransform="translate(265.69051,628.69118)"
       id="pattern7053">
      <path
         id="path7051"
         d="M 0.5,0.5 L 52.14405,52.14405"
         style="fill:none;fill-rule:evenodd;stroke:#e04613;stroke-width:1px;stroke-linecap:butt;stroke-linejoin:miter;stroke-opacity:1" />
    </pattern>
    <pattern
       patternUnits="userSpaceOnUse"
       width="7.5"
       height="41.425995"
       patternTransform="translate(198.25517,601.81158)"
       id="pattern7087">
      <rect
         y="1.25"
         x="1.25"
         height="38.925995"
         width="5"
         id="rect7085"
         style="opacity:1;fill:#262729;fill-opacity:1;fill-rule:nonzero;stroke:#e04613;stroke-width:2.5;stroke-linejoin:miter;stroke-miterlimit:4;stroke-dasharray:none;stroke-opacity:1" />
    </pattern>
    <pattern
       patternUnits="userSpaceOnUse"
       width="7.5000006"
       height="213.63924"
       patternTransform="translate(197.38019,536.79187)"
       id="pattern7096">
      <rect
         id="rect7090"
         y="0.87500006"
         x="0.87500006"
         height="211.88924"
         width="5.7500005"
         style="fill:#262729;fill-opacity:1;stroke:#e04613;stroke-width:1.75000012;stroke-miterlimit:4;stroke-dasharray:none;stroke-opacity:1" />
    </pattern>
    <radialGradient
       inkscape:collect="always"
       xlink:href="#XMLID_67_"
       id="radialGradient31918"
       gradientUnits="userSpaceOnUse"
       cx="64.551804"
       cy="14.1646"
       fx="64.551804"
       fy="14.1646"
       r="52.241501" />
    <radialGradient
       inkscape:collect="always"
       xlink:href="#XMLID_67_"
       id="radialGradient32255"
       gradientUnits="userSpaceOnUse"
       cx="64.551804"
       cy="14.1646"
       fx="64.551804"
       fy="14.1646"
       r="52.241501" />
  </defs>
  <sodipodi:namedview
     id="base"
     pagecolor="#a2a2a2"
     bordercolor="#666666"
     borderopacity="1.0"
     inkscape:pageopacity="0.87843137"
     inkscape:pageshadow="2"
     inkscape:zoom="1.4956828"
     inkscape:cx="119.4099"
     inkscape:cy="104.08117"
     inkscape:document-units="px"
     inkscape:current-layer="layer1"
     inkscape:window-width="1680"
     inkscape:window-height="1003"
     inkscape:window-x="0"
     inkscape:window-y="47"
     showgrid="true" />
  <metadata
     id="metadata7">
    <rdf:RDF>
      <cc:Work
         rdf:about="">
        <dc:format>image/svg+xml</dc:format>
        <dc:type
           rdf:resource="http://purl.org/dc/dcmitype/StillImage" />
      </cc:Work>
    </rdf:RDF>
  </metadata>
  <g
     inkscape:label="Ebene 1"
     inkscape:groupmode="layer"
     id="layer1"
     transform="translate(-258.33237,-501.75123)">
    <path
       style="fill:#262729;fill-opacity:1;stroke:none;stroke-width:2.40000224;stroke-linejoin:miter;stroke-miterlimit:4;stroke-opacity:1"
       d="M 292.60735,508.48793 L 508.20734,508.48793 L 510.20734,662.62903 C 510.20734,674.40212 496.82734,683.8801 480.20734,683.8801 L 264.60735,683.8801 L 262.60735,529.739 C 262.60735,517.96591 275.98735,508.48793 292.60735,508.48793 z "
       id="rect2160"
       sodipodi:nodetypes="ccccccc" />
    <path
       style="fill:none;fill-rule:evenodd;stroke:#8f8f8f;stroke-width:10.00000191;stroke-linecap:butt;stroke-linejoin:miter;stroke-miterlimit:4;stroke-dasharray:none;stroke-opacity:1"
       d="M 263.33237,627.59304 L 508.53458,627.59304"
       id="path3134" />
    <path
       style="fill:none;fill-rule:evenodd;stroke:#8f8f8f;stroke-width:0.69999981;stroke-linecap:butt;stroke-linejoin:miter;stroke-miterlimit:4;stroke-dasharray:none;stroke-opacity:1"
       d="M 262.28424,676.50298 L 267.14877,681.36751"
       id="path2180"
       inkscape:tile-w="52.72286"
       inkscape:tile-h="52.72285"
       inkscape:tile-cx="241.13734"
       inkscape:tile-cy="655.35609" />
    <path
       id="use14111"
       d="M 262.63882,676.85757 L 267.14877,681.36751"
       style="fill:none;fill-rule:evenodd;stroke:#8f8f8f;stroke-width:0.69999981;stroke-linecap:butt;stroke-linejoin:miter;stroke-miterlimit:4;stroke-dasharray:none;stroke-opacity:1" />
    <path
       id="use14113"
       d="M 264.63998,673.90277 L 272.10472,681.36751"
       style="fill:none;fill-rule:evenodd;stroke:#8f8f8f;stroke-width:0.69999987;stroke-linecap:butt;stroke-linejoin:miter;stroke-miterlimit:4;stroke-dasharray:none;stroke-opacity:1" />
    <path
       id="use14115"
       d="M 263.92274,668.22958 L 277.06066,681.3675"
       style="fill:none;fill-rule:evenodd;stroke:#8f8f8f;stroke-width:0.69999975;stroke-linecap:butt;stroke-linejoin:miter;stroke-miterlimit:4;stroke-dasharray:none;stroke-opacity:1" />
    <path
       id="use14117"
       d="M 262.96912,662.32002 L 282.01662,681.36751"
       style="fill:none;fill-rule:evenodd;stroke:#8f8f8f;stroke-width:0.69999981;stroke-linecap:butt;stroke-linejoin:miter;stroke-miterlimit:4;stroke-dasharray:none;stroke-opacity:1" />
    <path
       id="use14119"
       d="M 263.31562,657.71056 L 286.97258,681.36751"
       style="fill:none;fill-rule:evenodd;stroke:#8f8f8f;stroke-width:0.69999981;stroke-linecap:butt;stroke-linejoin:miter;stroke-miterlimit:4;stroke-dasharray:none;stroke-opacity:1" />
    <path
       id="use14121"
       d="M 264.72582,654.16482 L 291.92851,681.36751"
       style="fill:none;fill-rule:evenodd;stroke:#8f8f8f;stroke-width:0.69999981;stroke-linecap:butt;stroke-linejoin:miter;stroke-miterlimit:4;stroke-dasharray:none;stroke-opacity:1" />
    <path
       id="use14123"
       d="M 264.48136,648.96442 L 296.88447,681.36752"
       style="fill:none;fill-rule:evenodd;stroke:#8f8f8f;stroke-width:0.69999981;stroke-linecap:butt;stroke-linejoin:miter;stroke-miterlimit:4;stroke-dasharray:none;stroke-opacity:1" />
    <path
       id="use14125"
       d="M 264.70965,644.23674 L 301.8404,681.36749"
       style="fill:none;fill-rule:evenodd;stroke:#8f8f8f;stroke-width:0.69999981;stroke-linecap:butt;stroke-linejoin:miter;stroke-miterlimit:4;stroke-dasharray:none;stroke-opacity:1" />
    <path
       id="use14127"
       d="M 264.1106,638.68175 L 306.79635,681.36749"
       style="fill:none;fill-rule:evenodd;stroke:#8f8f8f;stroke-width:0.69999975;stroke-linecap:butt;stroke-linejoin:miter;stroke-miterlimit:4;stroke-dasharray:none;stroke-opacity:1" />
    <path
       id="use14129"
       d="M 264.45711,634.07233 L 311.75232,681.36753"
       style="fill:none;fill-rule:evenodd;stroke:#8f8f8f;stroke-width:0.69999987;stroke-linecap:butt;stroke-linejoin:miter;stroke-miterlimit:4;stroke-dasharray:none;stroke-opacity:1" />
    <path
       id="use14131"
       d="M 264.6854,629.34466 L 316.70826,681.36751"
       style="fill:none;fill-rule:evenodd;stroke:#8f8f8f;stroke-width:0.69999981;stroke-linecap:butt;stroke-linejoin:miter;stroke-miterlimit:4;stroke-dasharray:none;stroke-opacity:1" />
    <path
       id="use14133"
       d="M 269.64135,629.34466 L 321.66421,681.36751"
       style="fill:none;fill-rule:evenodd;stroke:#8f8f8f;stroke-width:0.69999981;stroke-linecap:butt;stroke-linejoin:miter;stroke-miterlimit:4;stroke-dasharray:none;stroke-opacity:1" />
    <path
       id="use14135"
       d="M 274.5973,629.34466 L 326.62016,681.36751"
       style="fill:none;fill-rule:evenodd;stroke:#8f8f8f;stroke-width:0.69999981;stroke-linecap:butt;stroke-linejoin:miter;stroke-miterlimit:4;stroke-dasharray:none;stroke-opacity:1" />
    <path
       id="use14137"
       d="M 279.55325,629.34466 L 331.5761,681.36751"
       style="fill:none;fill-rule:evenodd;stroke:#8f8f8f;stroke-width:0.69999981;stroke-linecap:butt;stroke-linejoin:miter;stroke-miterlimit:4;stroke-dasharray:none;stroke-opacity:1" />
    <path
       id="use14139"
       d="M 284.50919,629.34466 L 336.53205,681.36751"
       style="fill:none;fill-rule:evenodd;stroke:#8f8f8f;stroke-width:0.69999981;stroke-linecap:butt;stroke-linejoin:miter;stroke-miterlimit:4;stroke-dasharray:none;stroke-opacity:1" />
    <path
       id="use14141"
       d="M 289.46514,629.34466 L 341.488,681.36751"
       style="fill:none;fill-rule:evenodd;stroke:#8f8f8f;stroke-width:0.69999981;stroke-linecap:butt;stroke-linejoin:miter;stroke-miterlimit:4;stroke-dasharray:none;stroke-opacity:1" />
    <path
       id="use14143"
       d="M 294.42109,629.34466 L 346.44395,681.36751"
       style="fill:none;fill-rule:evenodd;stroke:#8f8f8f;stroke-width:0.69999981;stroke-linecap:butt;stroke-linejoin:miter;stroke-miterlimit:4;stroke-dasharray:none;stroke-opacity:1" />
    <path
       id="use14145"
       d="M 299.37704,629.34466 L 351.3999,681.36751"
       style="fill:none;fill-rule:evenodd;stroke:#8f8f8f;stroke-width:0.69999981;stroke-linecap:butt;stroke-linejoin:miter;stroke-miterlimit:4;stroke-dasharray:none;stroke-opacity:1" />
    <path
       id="use14147"
       d="M 304.33299,629.34466 L 356.35585,681.36751"
       style="fill:none;fill-rule:evenodd;stroke:#8f8f8f;stroke-width:0.69999981;stroke-linecap:butt;stroke-linejoin:miter;stroke-miterlimit:4;stroke-dasharray:none;stroke-opacity:1" />
    <path
       id="use14149"
       d="M 309.28894,629.34466 L 361.3118,681.36751"
       style="fill:none;fill-rule:evenodd;stroke:#8f8f8f;stroke-width:0.69999981;stroke-linecap:butt;stroke-linejoin:miter;stroke-miterlimit:4;stroke-dasharray:none;stroke-opacity:1" />
    <path
       id="use14151"
       d="M 314.24489,629.34466 L 366.26775,681.36751"
       style="fill:none;fill-rule:evenodd;stroke:#8f8f8f;stroke-width:0.69999981;stroke-linecap:butt;stroke-linejoin:miter;stroke-miterlimit:4;stroke-dasharray:none;stroke-opacity:1" />
    <path
       id="use14153"
       d="M 319.20084,629.34466 L 371.2237,681.36751"
       style="fill:none;fill-rule:evenodd;stroke:#8f8f8f;stroke-width:0.69999981;stroke-linecap:butt;stroke-linejoin:miter;stroke-miterlimit:4;stroke-dasharray:none;stroke-opacity:1" />
    <path
       id="use14155"
       d="M 324.15678,629.34466 L 376.17964,681.36751"
       style="fill:none;fill-rule:evenodd;stroke:#8f8f8f;stroke-width:0.69999981;stroke-linecap:butt;stroke-linejoin:miter;stroke-miterlimit:4;stroke-dasharray:none;stroke-opacity:1" />
    <path
       id="use14157"
       d="M 329.11273,629.34466 L 381.13559,681.36751"
       style="fill:none;fill-rule:evenodd;stroke:#8f8f8f;stroke-width:0.69999981;stroke-linecap:butt;stroke-linejoin:miter;stroke-miterlimit:4;stroke-dasharray:none;stroke-opacity:1" />
    <path
       id="use14159"
       d="M 334.06868,629.34466 L 386.09154,681.36751"
       style="fill:none;fill-rule:evenodd;stroke:#8f8f8f;stroke-width:0.69999981;stroke-linecap:butt;stroke-linejoin:miter;stroke-miterlimit:4;stroke-dasharray:none;stroke-opacity:1" />
    <path
       id="use14161"
       d="M 339.02463,629.34466 L 391.04749,681.36751"
       style="fill:none;fill-rule:evenodd;stroke:#8f8f8f;stroke-width:0.69999981;stroke-linecap:butt;stroke-linejoin:miter;stroke-miterlimit:4;stroke-dasharray:none;stroke-opacity:1" />
    <path
       id="use14163"
       d="M 343.98058,629.34466 L 396.00344,681.36751"
       style="fill:none;fill-rule:evenodd;stroke:#8f8f8f;stroke-width:0.69999981;stroke-linecap:butt;stroke-linejoin:miter;stroke-miterlimit:4;stroke-dasharray:none;stroke-opacity:1" />
    <path
       id="use14165"
       d="M 348.93653,629.34466 L 400.95939,681.36751"
       style="fill:none;fill-rule:evenodd;stroke:#8f8f8f;stroke-width:0.69999981;stroke-linecap:butt;stroke-linejoin:miter;stroke-miterlimit:4;stroke-dasharray:none;stroke-opacity:1" />
    <path
       id="use14167"
       d="M 353.89248,629.34466 L 405.91534,681.36751"
       style="fill:none;fill-rule:evenodd;stroke:#8f8f8f;stroke-width:0.69999981;stroke-linecap:butt;stroke-linejoin:miter;stroke-miterlimit:4;stroke-dasharray:none;stroke-opacity:1" />
    <path
       id="use14169"
       d="M 358.84843,629.34466 L 410.87129,681.36751"
       style="fill:none;fill-rule:evenodd;stroke:#8f8f8f;stroke-width:0.69999981;stroke-linecap:butt;stroke-linejoin:miter;stroke-miterlimit:4;stroke-dasharray:none;stroke-opacity:1" />
    <path
       id="use14171"
       d="M 363.80437,629.34466 L 415.82723,681.36751"
       style="fill:none;fill-rule:evenodd;stroke:#8f8f8f;stroke-width:0.69999981;stroke-linecap:butt;stroke-linejoin:miter;stroke-miterlimit:4;stroke-dasharray:none;stroke-opacity:1" />
    <path
       id="use14173"
       d="M 368.76032,629.34466 L 420.78318,681.36751"
       style="fill:none;fill-rule:evenodd;stroke:#8f8f8f;stroke-width:0.69999981;stroke-linecap:butt;stroke-linejoin:miter;stroke-miterlimit:4;stroke-dasharray:none;stroke-opacity:1" />
    <path
       id="use14175"
       d="M 373.71627,629.34466 L 425.73913,681.36751"
       style="fill:none;fill-rule:evenodd;stroke:#8f8f8f;stroke-width:0.69999981;stroke-linecap:butt;stroke-linejoin:miter;stroke-miterlimit:4;stroke-dasharray:none;stroke-opacity:1" />
    <path
       id="use14177"
       d="M 378.67222,629.34466 L 430.69508,681.36751"
       style="fill:none;fill-rule:evenodd;stroke:#8f8f8f;stroke-width:0.69999981;stroke-linecap:butt;stroke-linejoin:miter;stroke-miterlimit:4;stroke-dasharray:none;stroke-opacity:1" />
    <path
       id="use14179"
       d="M 383.62817,629.34466 L 435.65103,681.36751"
       style="fill:none;fill-rule:evenodd;stroke:#8f8f8f;stroke-width:0.69999981;stroke-linecap:butt;stroke-linejoin:miter;stroke-miterlimit:4;stroke-dasharray:none;stroke-opacity:1" />
    <path
       id="use14181"
       d="M 388.58412,629.34466 L 440.60698,681.36751"
       style="fill:none;fill-rule:evenodd;stroke:#8f8f8f;stroke-width:0.69999981;stroke-linecap:butt;stroke-linejoin:miter;stroke-miterlimit:4;stroke-dasharray:none;stroke-opacity:1" />
    <path
       id="use14183"
       d="M 393.54007,629.34466 L 445.56293,681.36751"
       style="fill:none;fill-rule:evenodd;stroke:#8f8f8f;stroke-width:0.69999981;stroke-linecap:butt;stroke-linejoin:miter;stroke-miterlimit:4;stroke-dasharray:none;stroke-opacity:1" />
    <path
       id="use14185"
       d="M 398.49602,629.34466 L 450.51888,681.36751"
       style="fill:none;fill-rule:evenodd;stroke:#8f8f8f;stroke-width:0.69999981;stroke-linecap:butt;stroke-linejoin:miter;stroke-miterlimit:4;stroke-dasharray:none;stroke-opacity:1" />
    <path
       id="use14187"
       d="M 403.45197,629.34466 L 455.47483,681.36751"
       style="fill:none;fill-rule:evenodd;stroke:#8f8f8f;stroke-width:0.69999981;stroke-linecap:butt;stroke-linejoin:miter;stroke-miterlimit:4;stroke-dasharray:none;stroke-opacity:1" />
    <path
       id="use14189"
       d="M 408.40791,629.34466 L 460.43077,681.36751"
       style="fill:none;fill-rule:evenodd;stroke:#8f8f8f;stroke-width:0.69999981;stroke-linecap:butt;stroke-linejoin:miter;stroke-miterlimit:4;stroke-dasharray:none;stroke-opacity:1" />
    <path
       id="use14191"
       d="M 413.36386,629.34466 L 465.38672,681.36751"
       style="fill:none;fill-rule:evenodd;stroke:#8f8f8f;stroke-width:0.69999981;stroke-linecap:butt;stroke-linejoin:miter;stroke-miterlimit:4;stroke-dasharray:none;stroke-opacity:1" />
    <path
       id="use14193"
       d="M 418.31981,629.34466 L 470.34267,681.36751"
       style="fill:none;fill-rule:evenodd;stroke:#8f8f8f;stroke-width:0.69999981;stroke-linecap:butt;stroke-linejoin:miter;stroke-miterlimit:4;stroke-dasharray:none;stroke-opacity:1" />
    <path
       id="use14195"
       d="M 423.27576,629.34466 L 475.29862,681.36751"
       style="fill:none;fill-rule:evenodd;stroke:#8f8f8f;stroke-width:0.69999981;stroke-linecap:butt;stroke-linejoin:miter;stroke-miterlimit:4;stroke-dasharray:none;stroke-opacity:1" />
    <path
       id="use14197"
       d="M 428.23171,629.34466 L 480.25457,681.36751"
       style="fill:none;fill-rule:evenodd;stroke:#8f8f8f;stroke-width:0.69999981;stroke-linecap:butt;stroke-linejoin:miter;stroke-miterlimit:4;stroke-dasharray:none;stroke-opacity:1" />
    <path
       id="use14199"
       d="M 433.18766,629.34466 L 485.21052,681.36751"
       style="fill:none;fill-rule:evenodd;stroke:#8f8f8f;stroke-width:0.69999981;stroke-linecap:butt;stroke-linejoin:miter;stroke-miterlimit:4;stroke-dasharray:none;stroke-opacity:1" />
    <path
       id="use14201"
       d="M 438.14361,629.34466 L 490.16647,681.36751"
       style="fill:none;fill-rule:evenodd;stroke:#8f8f8f;stroke-width:0.69999981;stroke-linecap:butt;stroke-linejoin:miter;stroke-miterlimit:4;stroke-dasharray:none;stroke-opacity:1" />
    <path
       id="use14203"
       d="M 443.09954,629.34463 L 492.404,678.64908"
       style="fill:none;fill-rule:evenodd;stroke:#8f8f8f;stroke-width:0.69999981;stroke-linecap:butt;stroke-linejoin:miter;stroke-miterlimit:4;stroke-dasharray:none;stroke-opacity:1" />
    <path
       id="use14205"
       d="M 448.05551,629.34468 L 495.46891,676.75807"
       style="fill:none;fill-rule:evenodd;stroke:#8f8f8f;stroke-width:0.69999981;stroke-linecap:butt;stroke-linejoin:miter;stroke-miterlimit:4;stroke-dasharray:none;stroke-opacity:1" />
    <path
       id="use14207"
       d="M 453.01147,629.34469 L 498.06104,674.39425"
       style="fill:none;fill-rule:evenodd;stroke:#8f8f8f;stroke-width:0.69999987;stroke-linecap:butt;stroke-linejoin:miter;stroke-miterlimit:4;stroke-dasharray:none;stroke-opacity:1" />
    <path
       id="use14209"
       d="M 457.96741,629.34467 L 502.18964,673.5669"
       style="fill:none;fill-rule:evenodd;stroke:#8f8f8f;stroke-width:0.69999981;stroke-linecap:butt;stroke-linejoin:miter;stroke-miterlimit:4;stroke-dasharray:none;stroke-opacity:1" />
    <path
       id="use14211"
       d="M 462.92335,629.34466 L 504.07261,670.49391"
       style="fill:none;fill-rule:evenodd;stroke:#8f8f8f;stroke-width:0.69999981;stroke-linecap:butt;stroke-linejoin:miter;stroke-miterlimit:4;stroke-dasharray:none;stroke-opacity:1" />
    <path
       id="use14213"
       d="M 467.8793,629.34467 L 505.71921,667.18456"
       style="fill:none;fill-rule:evenodd;stroke:#8f8f8f;stroke-width:0.69999981;stroke-linecap:butt;stroke-linejoin:miter;stroke-miterlimit:4;stroke-dasharray:none;stroke-opacity:1" />
    <path
       id="use14215"
       d="M 472.83527,629.34468 L 507.01124,663.52065"
       style="fill:none;fill-rule:evenodd;stroke:#8f8f8f;stroke-width:0.69999987;stroke-linecap:butt;stroke-linejoin:miter;stroke-miterlimit:4;stroke-dasharray:none;stroke-opacity:1" />
    <path
       id="use14217"
       d="M 477.79119,629.34464 L 508.53961,660.09305"
       style="fill:none;fill-rule:evenodd;stroke:#8f8f8f;stroke-width:0.69999975;stroke-linecap:butt;stroke-linejoin:miter;stroke-miterlimit:4;stroke-dasharray:none;stroke-opacity:1" />
    <path
       id="use14219"
       d="M 482.74713,629.34464 L 510.1862,656.7837"
       style="fill:none;fill-rule:evenodd;stroke:#8f8f8f;stroke-width:0.69999975;stroke-linecap:butt;stroke-linejoin:miter;stroke-miterlimit:4;stroke-dasharray:none;stroke-opacity:1" />
    <path
       id="use14221"
       d="M 487.70311,629.34468 L 510.17815,651.81971"
       style="fill:none;fill-rule:evenodd;stroke:#8f8f8f;stroke-width:0.69999981;stroke-linecap:butt;stroke-linejoin:miter;stroke-miterlimit:4;stroke-dasharray:none;stroke-opacity:1" />
    <path
       id="use14223"
       d="M 492.65904,629.34467 L 509.81547,646.50109"
       style="fill:none;fill-rule:evenodd;stroke:#8f8f8f;stroke-width:0.69999987;stroke-linecap:butt;stroke-linejoin:miter;stroke-miterlimit:4;stroke-dasharray:none;stroke-opacity:1" />
    <path
       id="use14225"
       d="M 497.61501,629.34469 L 508.50729,640.23696"
       style="fill:none;fill-rule:evenodd;stroke:#8f8f8f;stroke-width:0.69999993;stroke-linecap:butt;stroke-linejoin:miter;stroke-miterlimit:4;stroke-dasharray:none;stroke-opacity:1" />
    <path
       id="use14227"
       d="M 502.57094,629.34467 L 508.85377,635.62749"
       style="fill:none;fill-rule:evenodd;stroke:#8f8f8f;stroke-width:0.69999987;stroke-linecap:butt;stroke-linejoin:miter;stroke-miterlimit:4;stroke-dasharray:none;stroke-opacity:1" />
    <path
       style="fill:none;fill-opacity:1;stroke:#ffffff;stroke-width:10.00000191;stroke-linejoin:miter;stroke-miterlimit:4;stroke-dasharray:none;stroke-opacity:1"
       d="M 293.67747,506.75123 L 509.35257,506.75123 L 509.23001,660.39027 C 509.23001,671.89072 496.27484,681.14921 480.18254,681.14921 L 264.67458,681.14921 L 264.63,527.51017 C 264.63,516.00972 277.58518,506.75123 293.67747,506.75123 z "
       id="rect6047"
       sodipodi:nodetypes="ccccccc" />
    <path
       transform="translate(265.2042,406.4949)"
       style="font-size:72px;fill:#ffffff;fill-opacity:1;stroke:none;stroke-opacity:1"
       d="M 163.60156,173.68945 L 148.80078,173.68945 L 148.80078,168.52149 C 148.80076,165.26372 148.66013,163.22466 148.37891,162.4043 C 148.09763,161.58403 147.42967,161.17388 146.375,161.17383 C 145.46092,161.17388 144.83983,161.52544 144.51172,162.22852 C 144.18358,162.93169 144.01951,164.73637 144.01953,167.64258 L 144.01953,194.95899 C 144.01951,197.51369 144.18358,199.20118 144.51172,200.02149 C 144.83983,200.81837 145.49607,201.21681 146.48047,201.2168 C 147.55857,201.21681 148.28513,200.75978 148.66016,199.8457 C 149.05857,198.93165 149.25779,197.1504 149.25781,194.50195 L 149.25781,187.75195 L 146.26953,187.75195 L 146.26953,179.10352 L 163.60156,179.10352 L 163.60156,209.6543 L 154.28516,209.6543 L 152.91406,205.57617 C 151.90622,207.33399 150.62888,208.65821 149.08203,209.54883 C 147.55857,210.41602 145.75389,210.84961 143.66797,210.84961 C 141.18358,210.84961 138.85155,210.25195 136.67188,209.05664 C 134.51562,207.83789 132.87499,206.3379 131.75,204.55664 C 130.625,202.7754 129.92187,200.91212 129.64062,198.9668 C 129.35937,196.99806 129.21875,194.05666 129.21875,190.14258 L 129.21875,173.23242 C 129.21875,167.79497 129.51172,163.84575 130.09766,161.38477 C 130.68359,158.92388 132.35937,156.67388 135.125,154.63477 C 137.91405,152.57232 141.5117,151.54108 145.91797,151.54102 C 150.25388,151.54108 153.85154,152.4317 156.71094,154.21289 C 159.57028,155.9942 161.43356,158.11529 162.30078,160.57617 C 163.16793,163.01372 163.60153,166.5645 163.60156,171.22852 L 163.60156,173.68945 M 169.29688,152.73633 L 194.36328,152.73633 L 194.36328,164.12695 L 184.09766,164.12695 L 184.09766,174.91992 L 193.23828,174.91992 L 193.23828,185.74805 L 184.09766,185.74805 L 184.09766,209.6543 L 169.29688,209.6543 L 169.29688,152.73633 M 227.97266,152.73633 L 222.80469,177.9082 L 230.60938,209.6543 L 216.89844,209.6543 C 215.25779,203.98243 213.75779,197.08009 212.39844,188.94727 C 212.02342,192.53322 211.5078,196.34181 210.85156,200.37305 L 209.44531,209.6543 L 195.03125,209.6543 L 200.375,177.9082 L 195.03125,152.73633 L 209.33984,152.73633 C 209.59764,154.3067 210.11327,156.91998 210.88672,160.57617 C 211.49608,163.36528 211.99998,165.91997 212.39844,168.24024 L 215.5625,152.73633 L 227.97266,152.73633"
       id="flowRoot5285" />
    <path
       style="fill:#ffffff;fill-opacity:1"
       d="M 335.44746,616.77861 C 335.21862,616.50289 335.12292,616.18577 335.23478,616.07391 C 335.47367,615.83502 336.44081,616.57069 336.44081,616.9913 C 336.44081,617.44436 335.90472,617.32958 335.44746,616.77861 z M 341.42723,612.59618 C 341.00978,612.17873 340.91967,611.26613 341.26208,610.92372 C 341.59532,610.59048 342.36133,611.36705 342.36133,612.03812 C 342.36133,612.81227 341.91185,613.0808 341.42723,612.59618 z M 321.64454,611.60611 C 321.64837,610.79493 321.72647,610.65611 321.96843,611.0305 C 322.38622,611.67699 322.38622,612.67509 321.96843,612.67509 C 321.78752,612.67509 321.64177,612.19405 321.64454,611.60611 z M 310.78522,611.35942 C 310.78522,611.17852 310.93323,611.0305 311.11414,611.0305 C 311.29504,611.0305 311.44306,611.17852 311.44306,611.35942 C 311.44306,611.54033 311.29504,611.68834 311.11414,611.68834 C 310.93323,611.68834 310.78522,611.54033 310.78522,611.35942 z M 316.47598,610.15663 C 316.24672,609.55921 316.9729,608.03332 317.58235,607.83182 C 318.24283,607.61345 318.44464,609.02854 317.87665,609.89539 C 317.26179,610.83378 316.77095,610.92533 316.47598,610.15663 z M 323.79862,609.2895 C 323.92214,608.96511 324.10606,608.78256 324.20733,608.88383 C 324.3086,608.9851 324.20754,609.25051 323.98275,609.47363 C 323.6579,609.79605 323.62012,609.75827 323.79862,609.2895 z M 393.23395,609.49555 C 392.83335,609.09495 393.0073,608.39916 393.50805,608.39916 C 393.78214,608.39916 394.00142,608.69153 394.00142,609.057 C 394.00142,609.71228 393.65095,609.91255 393.23395,609.49555 z M 330.39526,607.00126 C 329.93807,606.05151 329.45859,604.8304 329.32975,604.28769 C 329.11861,603.39829 329.149,603.34501 329.63781,603.74768 C 329.93607,603.9934 330.31532,604.65945 330.48057,605.22781 C 330.64582,605.79617 331.02038,606.81624 331.31291,607.49464 C 332.12786,609.38453 331.33811,608.95992 330.39526,607.00126 z M 292.36582,608.20248 C 292.36582,607.67089 293.11696,606.75457 293.55273,606.75457 C 294.30829,606.75457 293.96661,607.787 293.10589,608.10475 C 292.69885,608.25502 292.36582,608.299 292.36582,608.20248 z M 337.2631,607.74133 C 337.1513,607.56042 337.21657,607.41241 337.40815,607.41241 C 337.59973,607.41241 337.75648,607.56042 337.75648,607.74133 C 337.75648,607.92223 337.69121,608.07024 337.61143,608.07024 C 337.53166,608.07024 337.37491,607.92223 337.2631,607.74133 z M 353.21562,607.57687 C 353.21562,607.30551 353.36363,607.08349 353.54453,607.08349 C 353.72544,607.08349 353.87345,607.30551 353.87345,607.57687 C 353.87345,607.84822 353.72544,608.07024 353.54453,608.07024 C 353.36363,608.07024 353.21562,607.84822 353.21562,607.57687 z M 301.50932,604.60266 C 301.18349,603.88753 301.22906,603.66567 301.82399,603.07075 C 302.48739,602.40734 302.55881,602.40071 303.36327,602.92781 C 304.29065,603.53546 304.37545,603.85147 303.86638,604.80269 C 303.36119,605.74663 301.97703,605.62917 301.50932,604.60266 z M 315.71899,604.96494 C 315.71899,604.3917 316.2583,604.01116 316.69138,604.27881 C 317.12915,604.54937 316.73487,605.4389 316.17717,605.4389 C 315.92517,605.4389 315.71899,605.22562 315.71899,604.96494 z M 325.2576,605.1341 C 325.2576,604.93993 324.95693,604.78107 324.58945,604.78107 C 324.22196,604.78107 323.83762,604.52204 323.73536,604.20546 C 322.91246,601.65789 321.10971,599.6613 319.90531,599.96358 C 318.7322,600.25801 317.43095,601.39582 316.71292,602.75499 C 316.2031,603.72004 316.0741,603.81741 316.06244,603.24598 C 316.03903,602.09809 314.83207,599.59496 314.11763,599.2126 C 313.12658,598.6822 312.26979,598.78658 311.60752,599.51838 C 310.979,600.21288 310.12739,600.40213 310.12739,599.8473 C 310.12739,599.66639 309.9212,599.51838 309.6692,599.51838 C 309.11504,599.51838 308.71599,598.62961 309.14978,598.36151 C 309.31991,598.25637 309.02023,597.74131 308.48382,597.21695 C 307.47838,596.2341 305.72524,595.57641 304.10224,595.5732 L 303.17532,595.57137 L 303.80203,594.66684 C 305.00944,592.92419 304.98126,592.23202 303.68645,591.8285 C 303.22082,591.68338 302.80964,591.82713 302.40202,592.27754 C 301.71249,593.03946 300.4202,593.19591 300.69322,592.48441 C 300.92239,591.8872 299.46215,590.58146 297.72879,589.83362 C 295.63947,588.93221 294.87026,587.96355 295.13274,586.56445 C 295.28647,585.74499 295.66007,585.22215 296.43344,584.74419 C 297.50669,584.08088 298.09658,584.10125 299.97117,584.86636 C 300.36904,585.02875 300.54859,584.85502 300.67697,584.18344 C 300.91644,582.93073 300.31396,582.12792 298.83447,581.72832 C 298.00167,581.50338 297.63064,581.23893 297.74172,580.94946 C 297.83422,580.7084 297.55057,580.17359 297.11138,579.76099 C 295.99824,578.71526 296.02809,576.9918 297.18017,575.7893 C 297.8637,575.07584 298.24704,574.92391 298.98921,575.07235 C 299.77955,575.23042 299.93093,575.15275 299.93093,574.58918 C 299.93093,574.21984 299.5239,573.61208 299.02641,573.2386 C 298.27002,572.67075 298.20223,572.5069 298.61251,572.23811 C 298.92539,572.03313 299.21735,572.03089 299.41836,572.2319 C 299.59173,572.40527 300.06225,572.54712 300.46396,572.54712 C 301.02157,572.54712 301.24868,572.29426 301.42409,571.47814 C 301.55448,570.87149 302.34158,569.67781 303.24401,568.71816 C 304.95903,566.8944 305.50581,565.59004 304.87427,564.82908 C 304.65823,564.56877 304.53271,564.08965 304.59536,563.76437 C 304.68617,563.29282 305.04164,563.16892 306.34934,563.15298 C 309.44677,563.11524 311.42817,561.59321 309.96293,560.37716 C 309.69157,560.15196 309.46955,559.77254 309.46955,559.53401 C 309.46955,558.74684 310.11769,558.68088 311.08493,559.36961 C 312.22891,560.1842 312.49731,560.20032 313.78955,559.53208 C 314.33853,559.24819 315.21251,559.00384 315.73173,558.98908 C 316.53255,558.96631 316.62814,558.87325 316.36184,558.37565 C 315.95216,557.61018 315.96413,557.10723 316.37682,557.74582 C 316.81975,558.4312 316.81891,555.6116 316.37594,554.7839 C 316.15547,554.37196 316.15547,554.10007 316.37594,553.96382 C 316.55733,553.85171 316.72024,553.06566 316.73797,552.21704 L 316.77019,550.67409 L 317.18035,552.75805 C 317.40594,553.90422 317.53497,555.53236 317.46708,556.37614 C 317.30398,558.40342 317.95997,559.32576 319.24381,558.87426 C 319.90688,558.64107 320.21239,558.2396 320.43136,557.31372 C 320.79247,555.7868 321.6362,555.77961 322.03019,557.30011 C 322.17748,557.86848 322.5479,558.42942 322.85335,558.54664 C 323.70386,558.87301 325.27222,557.08861 325.76819,555.23029 L 326.19413,553.63435 L 326.05469,556.03847 C 325.9646,557.59164 326.0317,558.37063 326.24426,558.23926 C 326.42522,558.12742 326.57328,557.82263 326.57328,557.56195 C 326.57328,557.30127 326.77946,557.08799 327.03146,557.08799 C 327.28346,557.08799 327.56848,556.88256 327.66482,556.63149 C 327.76241,556.37719 328.46999,556.10815 329.26237,556.02407 C 330.98564,555.84121 332.3059,556.49813 332.84868,557.8085 C 333.32687,558.96297 334.13838,559.02701 334.13838,557.91028 C 334.13838,557.10043 334.45942,556.86083 334.92318,557.32458 C 335.0533,557.45471 335.63484,557.57767 336.21548,557.59783 C 337.10142,557.6286 337.46844,557.38445 338.49776,556.07962 C 339.39488,554.94238 340.16434,554.36652 341.36253,553.93565 C 342.83418,553.40646 342.9804,553.26551 342.80068,552.54945 C 342.60801,551.78177 342.64877,551.76047 343.90474,551.97267 C 344.88455,552.1382 345.31452,552.06567 345.63377,551.68101 C 345.9901,551.25166 345.91956,550.98662 345.19676,550.03898 C 344.7227,549.41745 344.33484,548.697 344.33484,548.43797 C 344.33484,548.17894 344.00929,547.55313 343.61139,547.04729 C 343.14077,546.449 343.07053,546.23233 343.41039,546.42733 C 343.69773,546.59219 344.54477,547.50414 345.29269,548.45389 C 346.78189,550.34494 347.75404,550.65127 348.75523,549.54497 C 349.17283,549.08353 349.26982,548.63262 349.109,547.90038 C 348.85364,546.73776 349.23351,546.60197 350.0909,547.54937 C 350.98051,548.53238 351.46396,548.35096 351.68798,546.95004 C 352.04044,544.74586 354.29927,544.2715 354.59377,546.33981 C 354.70701,547.13508 355.6374,547.16258 356.50479,546.3963 C 356.77615,546.15658 357.55684,545.85676 358.23966,545.73004 C 360.08488,545.38759 361.10312,543.60236 359.45323,543.60236 C 358.50877,543.60236 357.68055,542.17595 358.13355,541.32953 C 358.63119,540.39966 359.49497,540.01116 360.34808,540.33349 C 361.34614,540.7106 361.8122,541.73043 361.88311,543.69249 C 361.93811,545.21413 362.03348,545.40582 362.92455,545.78577 C 364.47102,546.44519 365.35745,546.36165 365.15196,545.57586 C 365.0288,545.10489 365.14187,544.91803 365.55003,544.91803 C 365.95945,544.91803 366.07133,545.10467 365.94697,545.58022 C 365.82973,546.02855 366.08956,546.55817 366.75154,547.22015 C 367.78392,548.25252 368.18464,548.28684 371.05941,547.5891 C 372.37015,547.27097 372.32393,547.222 372.42164,549.03248 C 372.44126,549.39593 372.7991,550.1301 373.21685,550.66396 C 373.8477,551.47016 374.19599,551.62586 375.27258,551.58293 C 375.98549,551.5545 376.56878,551.67141 376.56878,551.84273 C 376.56878,552.01405 376.84897,552.15422 377.19142,552.15422 C 377.92429,552.15422 378.27151,552.84361 377.86772,553.49697 C 377.64091,553.86395 377.49978,553.87462 377.17453,553.54937 C 376.63149,553.00633 376.23986,553.03255 376.23986,553.61195 C 376.23986,553.87099 376.67359,554.39177 377.2037,554.76925 L 378.16755,555.45556 L 378.63981,554.78131 C 379.14239,554.06378 381.18189,553.3092 381.48573,553.72838 C 381.58543,553.86592 382.09154,554.24894 382.6104,554.57952 C 383.46466,555.12379 383.53651,555.3095 383.37081,556.54492 C 383.14182,558.25211 381.81826,559.54096 380.6064,559.23681 C 380.09074,559.10738 379.87859,559.15769 380.01427,559.37723 C 380.28532,559.8158 382.1857,559.81848 383.33398,559.3819 L 384.22149,559.04447 L 384.02158,561.43763 C 383.91162,562.75387 383.72457,564.89611 383.6059,566.19816 L 383.39014,568.56552 L 382.23296,568.66504 C 380.64179,568.8019 380.12731,569.66941 381.09994,570.57556 C 381.99232,571.40693 382.00664,571.70619 381.20775,572.82812 C 380.40396,573.95694 380.27975,574.83025 380.79103,575.75806 C 381.15156,576.41231 381.10164,576.59094 380.37742,577.23819 C 379.92444,577.64303 379.46369,578.35934 379.35356,578.82999 C 379.14808,579.70801 379.52968,580.18191 382.32484,582.52004 C 384.08738,583.99438 383.00815,583.74924 381.08247,582.23784 C 380.05392,581.43057 379.07973,580.77007 378.91761,580.77007 C 378.75548,580.77007 378.43858,580.54805 378.21337,580.27669 C 377.98816,580.00533 377.60998,579.78331 377.37296,579.78331 C 376.8146,579.78331 376.35093,581.19083 376.85405,581.35853 C 377.05896,581.42684 377.22662,581.63424 377.22662,581.81942 C 377.22662,582.0046 377.0046,582.07092 376.73324,581.96679 C 376.08616,581.71848 376.10724,582.05185 376.78604,582.80192 C 377.47595,583.56427 377.08387,584.00483 376.20433,583.45555 C 375.20609,582.83214 374.21929,583.26382 374.45904,584.21905 C 374.60667,584.80727 374.46929,585.09028 373.88408,585.40347 C 373.46116,585.62981 373.04114,585.79038 372.95068,585.76029 C 372.86023,585.73021 372.07756,585.94097 371.21142,586.22866 C 369.12892,586.92035 368.5275,587.84775 368.83254,589.89694 C 369.09987,591.69276 368.7499,591.54296 368.01447,589.54678 C 367.41534,587.92057 366.68991,587.69786 365.12752,588.66047 C 363.86723,589.43695 363.40345,590.44744 363.75106,591.6595 C 363.88727,592.13443 363.90372,592.66846 363.78762,592.84622 C 363.53171,593.23807 362.42531,593.26972 362.42531,592.8852 C 362.42531,592.73445 362.57333,592.61111 362.75423,592.61111 C 363.31591,592.61111 363.11624,591.42622 362.40144,590.5175 C 361.7188,589.64966 360.67565,589.41484 359.84412,589.94181 C 359.5703,590.11534 358.56453,589.92749 357.21277,589.45034 C 353.99829,588.31567 353.83071,588.35808 352.29501,590.69493 L 350.96041,592.72577 L 351.14282,591.27054 C 351.24314,590.47016 351.45453,589.67469 351.61258,589.50283 C 352.18758,588.87759 351.87522,588.02088 350.76295,587.17251 C 349.55095,586.24807 349.18681,586.30537 348.17575,587.57964 C 346.92472,589.15634 345.98058,587.7745 347.15918,586.09181 C 347.57267,585.50147 347.59847,585.24709 347.28337,584.86741 C 347.06461,584.60382 346.6622,584.38816 346.38912,584.38816 C 345.76713,584.38816 343.60355,585.68344 343.24415,586.27097 C 343.09654,586.51229 342.39271,587.0778 341.68008,587.52766 C 340.09592,588.52769 338.41432,590.77361 338.41432,591.88935 C 338.41432,592.34261 338.81921,593.24549 339.31408,593.89573 L 340.21385,595.07799 L 339.26973,594.33793 C 338.11701,593.43436 337.69594,593.41396 336.96096,594.22611 C 336.64825,594.57165 335.99625,594.95171 335.51208,595.07069 C 332.81705,595.73292 332.57059,596.91093 334.34525,600.64786 C 335.00175,602.03025 335.44951,603.25067 335.34027,603.3599 C 335.23104,603.46913 334.83275,602.83449 334.45519,601.94959 C 332.70831,597.85542 329.5326,596.92729 328.69899,600.26729 C 328.53098,600.94044 328.3649,601.09257 328.0675,600.84574 C 327.84555,600.66155 327.57015,600.60465 327.45549,600.71932 C 327.34082,600.83398 327.02956,600.74733 326.76379,600.52676 C 326.12948,600.00032 324.92179,600.19647 324.48258,600.89726 C 324.20487,601.34037 324.31883,601.62538 325.04154,602.29516 C 325.54083,602.75789 326.23816,603.13648 326.59117,603.13648 C 327.18547,603.13648 327.2007,603.21563 326.79683,604.20546 C 326.38483,605.21525 325.2576,605.89532 325.2576,605.1341 z M 308.34562,604.82521 C 308.20393,604.59595 308.17683,604.31955 308.2854,604.21098 C 308.57977,603.91662 308.90073,604.34956 308.74174,604.82654 C 308.63033,605.16077 308.55285,605.16051 308.34562,604.82521 z M 314.57851,603.81168 C 314.28931,603.34374 314.6581,602.80756 315.26914,602.80756 C 315.55732,602.80756 315.72241,603.03864 315.66088,603.35591 C 315.53275,604.01653 314.87602,604.29307 314.57851,603.81168 z M 370.64826,603.13648 C 370.64826,602.95557 370.79627,602.80756 370.97718,602.80756 C 371.15808,602.80756 371.3061,602.95557 371.3061,603.13648 C 371.3061,603.31738 371.15808,603.46539 370.97718,603.46539 C 370.79627,603.46539 370.64826,603.31738 370.64826,603.13648 z M 349.33439,602.74177 C 348.89162,602.29901 348.79695,601.16297 349.20282,601.16297 C 349.66764,601.16297 350.25536,601.93435 350.25536,602.54442 C 350.25536,603.22946 349.89853,603.30592 349.33439,602.74177 z M 377.55553,600.50513 C 377.18637,599.78151 376.95833,599.18946 377.04879,599.18946 C 377.13924,599.18946 377.51529,599.78151 377.88445,600.50513 C 378.25362,601.22875 378.48165,601.82081 378.3912,601.82081 C 378.30075,601.82081 377.9247,601.22875 377.55553,600.50513 z M 343.01917,601.16297 C 343.01917,600.98206 342.6404,600.83405 342.17746,600.83405 C 341.71452,600.83405 341.41631,600.70371 341.51476,600.54441 C 341.74838,600.1664 343.34808,599.86146 343.34808,600.19493 C 343.34808,600.33595 343.43792,600.68546 343.54773,600.97161 C 343.65754,601.25776 343.58353,601.49189 343.38327,601.49189 C 343.18301,601.49189 343.01917,601.34387 343.01917,601.16297 z M 288.5358,600.62164 C 288.01919,600.35606 287.40224,599.94763 287.16479,599.71401 C 286.67971,599.23678 286.55906,597.7542 286.91423,596.63516 C 287.15724,595.86951 288.53645,595.00527 289.40556,595.07405 C 290.37978,595.15114 291.70799,595.64835 291.70799,595.93594 C 291.70799,596.09723 291.96701,596.24089 292.2836,596.25517 C 292.60018,596.26945 292.7074,596.34472 292.52186,596.42244 C 292.33632,596.50015 292.24156,597.16191 292.31129,597.89302 C 292.52202,600.1028 290.44562,601.60346 288.5358,600.62164 z M 363.17273,599.51838 C 363.17273,598.70431 363.23688,598.37128 363.31528,598.77832 C 363.39368,599.18535 363.39368,599.85141 363.31528,600.25845 C 363.23688,600.66548 363.17273,600.33245 363.17273,599.51838 z M 270.87653,596.99668 C 270.39956,596.5197 270.68755,595.24938 271.35346,594.89299 C 271.90318,594.59879 272.15437,594.6251 272.54732,595.01804 C 273.29118,595.7619 272.8345,597.21596 271.85702,597.21596 C 271.43835,597.21596 270.99713,597.11728 270.87653,596.99668 z M 349.98692,594.74768 C 350.19333,594.29466 350.40631,593.96809 350.4602,594.02198 C 350.66033,594.22211 350.16825,595.57137 349.89513,595.57137 C 349.7392,595.57137 349.78051,595.20071 349.98692,594.74768 z M 359.95843,593.92678 C 360.07024,593.74587 360.30099,593.59786 360.47122,593.59786 C 360.64145,593.59786 360.78073,593.74587 360.78073,593.92678 C 360.78073,594.10768 360.54997,594.2557 360.26794,594.2557 C 359.9859,594.2557 359.84663,594.10768 359.95843,593.92678 z M 293.6815,593.32328 C 293.6815,592.9357 295.48943,592.27195 296.44415,592.30902 C 297.01189,592.33107 296.95914,592.41181 296.14838,592.76173 C 294.49786,593.4741 293.6815,593.65993 293.6815,593.32328 z M 366.43811,592.87424 C 366.22103,592.65716 366.04341,592.36113 366.04341,592.21641 C 366.04341,591.82445 366.95736,591.89829 367.21234,592.31085 C 367.55101,592.85883 366.89794,593.33407 366.43811,592.87424 z M 347.95293,590.96652 C 347.95293,590.78561 348.09221,590.6376 348.26244,590.6376 C 348.43267,590.6376 348.66342,590.78561 348.77523,590.96652 C 348.88703,591.14742 348.74776,591.29544 348.46572,591.29544 C 348.18369,591.29544 347.95293,591.14742 347.95293,590.96652 z M 280.19587,590.6085 C 280.19587,590.4436 279.98393,590.30868 279.72489,590.30868 C 279.16262,590.30868 278.0297,588.70519 278.09816,588.00626 C 278.12473,587.7349 278.16355,587.28215 278.18442,587.00014 C 278.25092,586.10147 279.01538,585.364 280.3594,584.90195 C 281.54236,584.49527 281.74812,584.51183 282.54283,585.07771 C 283.75321,585.93958 284.21314,587.35973 283.63978,588.46488 C 283.39523,588.93626 283.28301,589.32193 283.39042,589.32193 C 283.73332,589.32193 282.08368,590.63656 281.7079,590.66277 C 281.50945,590.67661 281.08806,590.73752 280.77147,590.79812 C 280.45489,590.85873 280.19587,590.77339 280.19587,590.6085 z M 390.39833,590.72627 C 390.13522,590.6227 389.61718,590.25123 389.24712,589.90078 C 388.87705,589.55032 387.87122,588.90419 387.01192,588.46492 C 385.42443,587.65341 384.9277,587.13846 386.08746,587.50655 C 386.60524,587.67089 390.83481,590.35017 391.34267,590.83554 C 391.53317,591.0176 390.97405,590.9529 390.39833,590.72627 z M 267.61919,588.60229 C 266.68231,587.89439 266.55158,586.31838 267.35831,585.45715 C 268.12472,584.63895 269.71021,584.46566 270.26903,585.13901 C 271.09505,586.13429 271.26254,587.20391 270.70698,587.93572 C 270.02706,588.83134 268.39004,589.18473 267.61919,588.60229 z M 344.00592,588.07665 C 344.00592,587.91311 344.32348,587.49733 344.71161,587.15271 C 345.41241,586.53048 345.41468,586.53114 345.03876,587.24788 C 344.61943,588.04739 344.00592,588.53968 344.00592,588.07665 z M 376.93148,586.26033 C 376.68995,585.80903 376.5659,585.24017 376.65581,584.9962 C 376.75729,584.72084 376.96298,584.91453 377.19821,585.50697 C 377.69409,586.75588 377.49605,587.31523 376.93148,586.26033 z M 383.64038,586.56365 C 383.0976,586.3271 382.43409,585.85185 382.16592,585.50755 C 381.69489,584.90279 381.70136,584.90108 382.35641,585.45715 C 382.72934,585.77373 383.26372,586.03275 383.54391,586.03275 C 383.82409,586.03275 384.2376,586.25477 384.46281,586.52613 C 384.95166,587.11516 384.91018,587.11706 383.64038,586.56365 z M 386.43631,586.03275 C 386.43631,585.85185 386.50158,585.70383 386.58136,585.70383 C 386.66114,585.70383 386.81788,585.85185 386.92969,586.03275 C 387.0415,586.21366 386.97623,586.36167 386.78464,586.36167 C 386.59306,586.36167 386.43631,586.21366 386.43631,586.03275 z M 384.19967,584.98021 C 383.57881,584.35935 383.73833,584.00043 384.46281,584.38816 C 384.82462,584.5818 385.12064,584.88303 385.12064,585.05757 C 385.12064,585.49318 384.67523,585.45577 384.19967,584.98021 z M 396.13939,585.046 C 396.02758,584.86509 396.16686,584.71708 396.44889,584.71708 C 396.73093,584.71708 396.96168,584.86509 396.96168,585.046 C 396.96168,585.2269 396.82241,585.37492 396.65218,585.37492 C 396.48195,585.37492 396.25119,585.2269 396.13939,585.046 z M 292.49729,584.13644 C 292.01211,583.81247 291.37907,582.57794 291.37907,581.95572 C 291.37907,581.18061 292.71983,580.11223 293.69254,580.11223 C 294.75511,580.11223 295.65679,581.03324 295.64997,582.11164 C 295.64317,583.18549 295.31989,583.62391 294.229,584.03867 C 293.15071,584.44863 292.97934,584.4583 292.49729,584.13644 z M 377.74114,582.18215 C 377.56264,581.71338 377.60042,581.6756 377.92527,581.99803 C 378.15006,582.22114 378.25112,582.48655 378.14985,582.58782 C 378.04857,582.68909 377.86466,582.50654 377.74114,582.18215 z M 381.06399,578.9062 C 380.23036,578.07257 382.26702,577.81692 383.33096,578.62164 C 383.9263,579.07193 383.8787,579.10526 382.62635,579.11502 C 381.88765,579.12077 381.18459,579.0268 381.06399,578.9062 z M 277.54083,577.19893 C 276.61532,576.44949 276.42442,574.76047 277.18753,574.07295 C 277.48533,573.80465 278.11651,573.48844 278.59015,573.37027 C 279.27797,573.19866 279.59245,573.33484 280.15251,574.04684 C 281.06698,575.2094 281.0382,576.01062 280.04636,577.00246 C 279.07947,577.96935 278.54411,578.01133 277.54083,577.19893 z M 389.39657,577.15197 C 388.97139,576.87719 388.98007,576.83243 389.45939,576.82809 C 389.7653,576.82532 390.10706,576.97107 390.21887,577.15197 C 390.47614,577.56825 390.04072,577.56825 389.39657,577.15197 z M 390.16202,576.22254 C 389.61589,575.80058 389.6511,575.77889 390.54779,575.98498 C 391.75017,576.26133 392.40394,576.8105 391.4445,576.73822 C 391.06968,576.70999 390.49256,576.47793 390.16202,576.22254 z M 290.22786,574.84955 C 290.10512,574.65095 290.52096,574.52979 291.27743,574.54375 C 292.2779,574.56221 292.39777,574.62381 291.87245,574.84955 C 290.96842,575.23802 290.46795,575.23802 290.22786,574.84955 z M 289.61438,572.19433 C 288.30258,571.16247 288.39824,569.46136 289.81671,568.5965 C 291.3149,567.68304 291.87508,567.77399 292.88206,569.09422 C 293.68136,570.14216 293.72335,570.33633 293.34707,571.24476 C 292.6337,572.96699 291.09446,573.35856 289.61438,572.19433 z M 390.13664,572.32039 C 390.45322,572.23766 390.97127,572.23766 391.28785,572.32039 C 391.60443,572.40312 391.34541,572.47081 390.71225,572.47081 C 390.07908,572.47081 389.82006,572.40312 390.13664,572.32039 z M 383.64051,571.23145 C 383.52871,571.05055 383.59398,570.90253 383.78556,570.90253 C 383.97714,570.90253 384.13389,571.05055 384.13389,571.23145 C 384.13389,571.41236 384.06862,571.56037 383.98884,571.56037 C 383.90907,571.56037 383.75232,571.41236 383.64051,571.23145 z M 400.9087,571.23145 C 400.9087,571.05055 401.05671,570.90253 401.23761,570.90253 C 401.41852,570.90253 401.56653,571.05055 401.56653,571.23145 C 401.56653,571.41236 401.41852,571.56037 401.23761,571.56037 C 401.05671,571.56037 400.9087,571.41236 400.9087,571.23145 z M 299.2731,570.90253 C 299.2731,570.72163 299.64313,570.57362 300.09539,570.57362 C 300.54766,570.57362 300.91769,570.72163 300.91769,570.90253 C 300.91769,571.08344 300.54766,571.23145 300.09539,571.23145 C 299.64313,571.23145 299.2731,571.08344 299.2731,570.90253 z M 414.64101,570.21835 C 413.7177,569.68057 413.97585,569.20761 415.1317,569.31933 C 415.83395,569.38722 416.23521,569.61891 416.30703,569.99801 C 416.43049,570.64974 415.57575,570.76279 414.64101,570.21835 z M 295.9759,569.64182 C 293.83392,568.52645 293.48689,566.46239 295.16005,564.78923 C 296.09416,563.85511 297.31714,563.77414 298.64494,564.55849 C 299.91943,565.31135 300.23362,566.91473 299.40734,568.44906 C 298.60566,569.93769 297.36936,570.36743 295.9759,569.64182 z M 284.4718,569.65359 C 284.4718,569.03701 286.42432,567.02914 286.43566,567.63405 C 286.44097,567.91679 286.00127,568.57353 285.45855,569.09349 C 284.91584,569.61344 284.4718,569.86548 284.4718,569.65359 z M 278.8802,569.13231 C 278.8802,568.86095 279.02821,568.54746 279.20911,568.43565 C 279.39002,568.32384 279.53803,568.45439 279.53803,568.72575 C 279.53803,568.9971 279.39002,569.3106 279.20911,569.4224 C 279.02821,569.53421 278.8802,569.40366 278.8802,569.13231 z M 396.86098,568.71869 C 396.5982,568.45591 396.89525,567.94227 397.31001,567.94227 C 397.48024,567.94227 397.61952,568.16429 397.61952,568.43565 C 397.61952,568.94429 397.23141,569.08911 396.86098,568.71869 z M 400.0864,565.96877 C 400.19821,565.78786 400.42896,565.63985 400.59919,565.63985 C 400.76942,565.63985 400.9087,565.78786 400.9087,565.96877 C 400.9087,566.14967 400.67794,566.29768 400.39591,566.29768 C 400.11387,566.29768 399.9746,566.14967 400.0864,565.96877 z M 286.53439,564.12545 C 286.64368,564.01616 286.92737,564.00448 287.16481,564.09949 C 287.4272,564.20449 287.34926,564.28243 286.96609,564.29821 C 286.61936,564.31249 286.42509,564.23475 286.53439,564.12545 z M 298.02338,562.67329 C 297.42648,562.30937 297.02523,561.87065 297.13172,561.69836 C 297.37971,561.29709 300.32014,562.36706 300.50659,562.92641 C 300.72064,563.56858 299.24512,563.41818 298.02338,562.67329 z M 393.02969,561.54648 C 392.38413,560.76862 392.76014,559.60407 393.82048,559.09734 C 394.52344,558.7614 394.82549,558.7379 394.91687,559.01203 C 394.98624,559.22014 395.25268,559.39041 395.50896,559.39041 C 396.18183,559.39041 396.0883,560.83044 395.37342,561.4774 C 394.632,562.14837 393.55556,562.1801 393.02969,561.54648 z M 398.03051,561.28169 C 398.1058,561.05556 398.44646,560.81647 398.78752,560.75037 C 399.32401,560.64641 399.34817,560.70185 398.96667,561.16152 C 398.44494,561.79017 397.83515,561.86844 398.03051,561.28169 z M 396.96168,560.72549 C 396.96168,560.53391 397.1097,560.37716 397.2906,560.37716 C 397.47151,560.37716 397.61952,560.44243 397.61952,560.52221 C 397.61952,560.60199 397.47151,560.75873 397.2906,560.87054 C 397.1097,560.98235 396.96168,560.91708 396.96168,560.72549 z M 387.34691,559.99284 C 387.53804,559.80171 387.88857,559.71004 388.12587,559.78914 C 388.37221,559.87125 388.22311,560.02035 387.77835,560.13666 C 387.23125,560.27973 387.10283,560.23692 387.34691,559.99284 z M 281.18262,559.06149 C 281.18262,558.88059 281.33063,558.73257 281.51154,558.73257 C 281.69244,558.73257 281.84046,558.88059 281.84046,559.06149 C 281.84046,559.2424 281.69244,559.39041 281.51154,559.39041 C 281.33063,559.39041 281.18262,559.2424 281.18262,559.06149 z M 300.60073,556.93793 C 300.14346,556.38696 300.40756,555.77231 301.10156,555.77231 C 301.38784,555.77231 301.57552,556.09793 301.57552,556.59461 C 301.57552,557.51851 301.19406,557.65286 300.60073,556.93793 z M 281.01816,555.27525 C 280.25459,554.93766 280.18019,554.83409 280.68924,554.81731 C 281.39537,554.79404 282.41545,555.30891 282.15985,555.55957 C 282.07463,555.64314 281.56088,555.51519 281.01816,555.27525 z M 297.0529,555.19823 C 296.46496,554.90562 295.98392,554.53985 295.98392,554.3854 C 295.98392,554.07914 296.75802,554.4467 297.79297,555.24438 C 298.62588,555.88633 298.40825,555.87276 297.0529,555.19823 z M 305.19362,554.55673 C 304.56045,554.25424 304.00084,553.98006 303.95003,553.94745 C 303.89922,553.91483 303.72656,553.43107 303.56634,552.87241 C 303.34374,552.09625 303.42254,551.56735 303.90043,550.62998 C 304.58062,549.29584 304.51076,548.8612 303.72144,549.51628 C 303.30864,549.85887 303.22011,549.84154 303.22011,549.4181 C 303.22011,548.69919 303.81921,548.40683 304.36471,548.85955 C 304.69582,549.13435 305.00467,549.14219 305.47989,548.88786 C 307.47432,547.82048 310.25103,549.84321 309.99472,552.17677 C 309.73477,554.54356 307.49257,555.65504 305.19362,554.55673 z M 313.73104,553.45544 L 313.01473,552.73914 L 313.79125,552.00753 C 314.48816,551.35093 314.60886,551.32937 314.96846,551.7973 C 315.5099,552.50182 315.4897,553.30665 314.9187,553.78054 C 314.54328,554.09211 314.30153,554.02594 313.73104,553.45544 z M 326.30413,552.6476 C 326.29906,552.28579 326.49004,551.39771 326.72852,550.67409 C 326.96701,549.95047 327.16628,549.65444 327.17134,550.01625 C 327.17641,550.37806 326.98543,551.26614 326.74694,551.98976 C 326.50846,552.71338 326.30919,553.00941 326.30413,552.6476 z M 388.24536,552.15422 C 388.12961,551.96693 388.41288,551.8253 388.9032,551.8253 C 389.39352,551.8253 389.67678,551.96693 389.56103,552.15422 C 389.44923,552.33512 389.1532,552.48314 388.9032,552.48314 C 388.65319,552.48314 388.35717,552.33512 388.24536,552.15422 z M 390.71225,550.56782 C 390.25998,550.26446 389.23209,549.53043 388.42803,548.93665 C 387.62398,548.34286 386.77658,547.92977 386.54493,548.01866 C 386.31327,548.10756 385.15758,547.72817 383.97671,547.17558 C 382.79585,546.62298 381.25389,546.09363 380.55012,545.99924 C 379.14731,545.81108 378.70123,545.20553 378.35072,543.0136 C 378.19007,542.00896 378.38253,541.3448 379.41987,539.32398 C 380.61862,536.98873 380.74868,536.85424 381.90092,536.75836 C 382.86996,536.67772 383.25426,536.43494 383.79323,535.56287 C 384.41259,534.56072 384.64731,534.44953 386.5807,534.24249 C 389.07214,533.97568 391.52486,534.27989 392.05759,534.92179 C 392.47758,535.42785 393.67251,535.54912 393.67251,535.08568 C 393.67251,534.92413 393.89452,534.70676 394.16588,534.60263 C 395.09258,534.24702 394.66154,534.99543 393.54068,535.68816 C 392.28528,536.46404 391.85417,537.24062 392.34831,537.83602 C 392.53076,538.05587 392.58614,538.32965 392.47136,538.44442 C 392.35659,538.5592 392.49093,538.7407 392.76991,538.84775 C 393.17539,539.00334 393.24251,539.42423 393.10454,540.94583 C 392.95142,542.63445 393.0127,542.90584 393.64754,543.3505 L 394.36314,543.85173 L 393.48999,544.07088 C 392.82734,544.23719 392.65736,544.44503 392.78496,544.93294 C 392.89743,545.36306 392.78727,545.57586 392.45214,545.57586 C 392.1187,545.57586 392.00686,545.78873 392.11766,546.21246 C 392.21391,546.58051 392.09134,546.92303 391.82711,547.02443 C 391.21925,547.25769 391.24307,548.67908 391.86346,549.19396 C 392.45975,549.68884 392.52253,551.17716 391.94569,551.14342 C 391.71956,551.1302 391.16451,550.87118 390.71225,550.56782 z M 327.56003,550.01625 C 327.56003,549.7449 327.70804,549.52288 327.88895,549.52288 C 328.06985,549.52288 328.21786,549.7449 328.21786,550.01625 C 328.21786,550.28761 328.06985,550.50963 327.88895,550.50963 C 327.70804,550.50963 327.56003,550.28761 327.56003,550.01625 z M 399.26411,550.36458 C 399.26411,550.28481 399.41212,550.12806 399.59303,550.01625 C 399.77393,549.90445 399.92194,549.96972 399.92194,550.1613 C 399.92194,550.35288 399.77393,550.50963 399.59303,550.50963 C 399.41212,550.50963 399.26411,550.44436 399.26411,550.36458 z M 327.43185,547.38491 C 327.70237,546.1755 327.89063,545.91297 327.88391,546.75448 C 327.88114,547.10122 327.72863,547.60693 327.545,547.87829 C 327.30117,548.2386 327.27066,548.10554 327.43185,547.38491 z M 379.85796,547.73324 C 379.85796,547.65347 380.00597,547.49672 380.18688,547.38491 C 380.36778,547.27311 380.51579,547.33838 380.51579,547.52996 C 380.51579,547.72154 380.36778,547.87829 380.18688,547.87829 C 380.00597,547.87829 379.85796,547.81302 379.85796,547.73324 z M 373.02606,546.17203 C 373.22936,545.56214 373.93744,545.46099 373.93744,546.04183 C 373.93744,546.32826 373.70308,546.56262 373.41665,546.56262 C 373.13022,546.56262 372.95445,546.38685 373.02606,546.17203 z M 347.17752,545.8955 C 345.42869,545.37142 344.91393,544.6217 345.15661,542.95211 C 345.4378,541.01758 346.11819,539.98426 347.11081,539.98426 C 347.54383,539.98426 347.9588,539.8022 348.03297,539.57968 C 348.25281,538.92017 350.88221,540.28593 351.42924,541.34378 C 352.2341,542.90021 352.0272,543.96581 350.68899,545.15636 C 349.45006,546.25857 348.82684,546.38976 347.17752,545.8955 z M 341.04566,544.75357 C 340.80964,544.46919 340.77768,544.26019 340.97019,544.26019 C 341.1539,544.26019 341.38939,544.48221 341.49352,544.75357 C 341.59765,545.02493 341.63161,545.24695 341.56899,545.24695 C 341.50636,545.24695 341.27087,545.02493 341.04566,544.75357 z M 308.60146,544.42391 C 308.08581,543.08016 309.52018,540.97101 310.94968,540.97101 C 311.63927,540.97101 311.77197,541.12619 311.77197,541.93253 C 311.77197,543.78465 309.14752,545.84693 308.60146,544.42391 z M 327.97135,544.42465 C 328.00745,544.06284 327.91485,543.57195 327.76557,543.33379 C 327.40961,542.76587 327.79663,542.39172 328.26035,542.85544 C 328.52067,543.11576 328.52148,543.47512 328.26325,544.14918 C 328.04227,544.72604 327.93078,544.83125 327.97135,544.42465 z M 282.82721,542.87233 C 282.19404,542.68436 281.85092,542.46672 282.06472,542.38869 C 282.27852,542.31066 283.09259,542.47074 283.87377,542.74442 C 285.46314,543.30126 284.61935,543.40439 282.82721,542.87233 z M 339.64502,542.57459 C 339.32994,542.39826 339.07215,542.11334 339.07215,541.94142 C 339.07215,541.42736 340.06397,541.58824 340.27432,542.13641 C 340.5365,542.81965 340.33439,542.96038 339.64502,542.57459 z M 355.35176,540.96807 C 355.23896,540.78555 355.2402,540.34151 355.35452,539.98132 C 355.59851,539.21255 356.76887,539.10365 357.04529,539.82399 C 357.41178,540.77903 355.8761,541.81647 355.35176,540.96807 z M 362.72907,541.2177 C 362.48113,540.40757 362.55836,540.05596 362.95114,540.20668 C 363.47571,540.40798 363.58341,541.29993 363.08315,541.29993 C 362.90225,541.29993 362.74291,541.26293 362.72907,541.2177 z M 368.67475,540.6421 C 368.86839,540.28029 369.10082,539.98426 369.19128,539.98426 C 369.28173,539.98426 369.1973,540.28029 369.00367,540.6421 C 368.81004,541.00391 368.5776,541.29993 368.48715,541.29993 C 368.3967,541.29993 368.48112,541.00391 368.67475,540.6421 z M 374.92419,540.82597 C 374.92419,540.74619 375.0722,540.58944 375.25311,540.47764 C 375.43401,540.36583 375.58203,540.4311 375.58203,540.62268 C 375.58203,540.81427 375.43401,540.97101 375.25311,540.97101 C 375.0722,540.97101 374.92419,540.90574 374.92419,540.82597 z M 394.89681,537.66526 C 395.29882,537.24221 395.69136,536.96187 395.76912,537.04228 C 395.84688,537.12268 395.51796,537.4688 395.03819,537.81145 L 394.16588,538.43443 L 394.89681,537.66526 z M 367.10335,537.49873 C 366.70129,537.21711 366.37233,536.77307 366.37233,536.51197 C 366.37233,535.74451 367.68072,534.64295 368.37624,534.82483 C 368.72133,534.91508 369.00367,534.85475 369.00367,534.69078 C 369.00367,534.52681 369.13208,534.39266 369.28902,534.39266 C 369.84249,534.39266 369.44031,537.11852 368.81991,537.57216 C 368.06508,538.12411 367.99173,538.12097 367.10335,537.49873 z M 319.83046,537.35292 C 319.71865,537.17201 319.85793,537.024 320.13997,537.024 C 320.422,537.024 320.65276,537.17201 320.65276,537.35292 C 320.65276,537.53382 320.51348,537.68184 320.34325,537.68184 C 320.17302,537.68184 319.94227,537.53382 319.83046,537.35292 z M 353.48062,536.5217 C 353.22672,535.96444 353.21091,535.58147 353.43267,535.35971 C 353.88597,534.90641 354.79247,535.30565 355.03337,536.06469 C 355.47646,537.46073 354.09388,537.86766 353.48062,536.5217 z M 371.03815,536.79908 C 370.80033,536.70394 370.46337,536.2516 370.28935,535.7939 C 369.90461,534.78195 370.66229,533.40591 371.60423,533.40591 C 371.94971,533.40591 372.29497,533.1044 372.39721,532.71341 C 372.63412,531.8075 373.4242,532.08404 373.51409,533.10435 C 373.55261,533.54156 373.67442,534.34332 373.78477,534.88604 C 373.95708,535.73347 373.84715,535.95406 373.00615,536.44839 C 371.98784,537.04695 371.75947,537.08765 371.03815,536.79908 z M 363.41207,536.09207 C 363.41207,535.88101 363.19005,535.70833 362.91869,535.70833 C 362.64733,535.70833 362.42531,535.48631 362.42531,535.21495 C 362.42531,534.44738 363.31266,534.63482 363.52512,535.44728 C 363.6295,535.84641 363.64676,536.24111 363.56348,536.32439 C 363.4802,536.40767 363.41207,536.30312 363.41207,536.09207 z M 339.07215,535.05049 C 339.07215,534.86959 339.22016,534.72158 339.40107,534.72158 C 339.58197,534.72158 339.72999,534.86959 339.72999,535.05049 C 339.72999,535.2314 339.58197,535.37941 339.40107,535.37941 C 339.22016,535.37941 339.07215,535.2314 339.07215,535.05049 z M 346.96618,533.93955 C 346.96618,533.41541 347.88032,532.56582 348.15199,532.83749 C 348.4037,533.0892 347.6758,534.39266 347.28353,534.39266 C 347.10898,534.39266 346.96618,534.18876 346.96618,533.93955 z M 337.95622,533.13407 C 337.86604,532.98815 338.25923,532.59292 338.82999,532.25577 C 339.40074,531.91862 339.68871,531.5831 339.46993,531.51017 C 338.87758,531.31272 338.98866,529.7992 339.61309,529.55959 C 340.18932,529.33846 341.15791,530.32683 340.85125,530.82302 C 340.75592,530.97727 340.83466,531.10348 341.02625,531.10348 C 341.21783,531.10348 341.37458,531.249 341.37458,531.42686 C 341.37458,531.86456 338.16293,533.46854 337.95622,533.13407 z M 374.92419,532.41915 C 374.92419,532.23825 374.98946,532.09023 375.06924,532.09023 C 375.14901,532.09023 375.30576,532.23825 375.41757,532.41915 C 375.52937,532.60006 375.4641,532.74807 375.27252,532.74807 C 375.08094,532.74807 374.92419,532.60006 374.92419,532.41915 z M 383.48762,531.1251 C 383.05391,530.3147 383.04769,528.90134 383.47667,528.63622 C 383.8634,528.3972 384.46281,529.80994 384.46281,530.96043 C 384.46281,531.92117 383.95918,532.00621 383.48762,531.1251 z M 390.1984,530.85679 C 390.08979,530.3593 389.84819,529.54811 389.6615,529.05413 C 388.7817,526.72625 391.25149,523.44652 392.34526,525.49026 C 392.80302,526.34558 392.77838,529.65508 392.3076,530.5495 C 391.53617,532.01509 390.4847,532.16828 390.1984,530.85679 z M 335.49801,530.44564 C 335.51664,529.81248 335.64488,528.85039 335.78297,528.30768 C 336.00146,527.44903 336.03846,527.53443 336.06794,528.96551 C 336.08657,529.87004 335.95834,530.83212 335.78297,531.10348 C 335.546,531.47017 335.47283,531.30127 335.49801,530.44564 z M 399.81514,529.65498 C 399.59046,529.06948 400.10028,528.34025 400.54301,528.61387 C 400.74414,528.73817 400.9087,529.03733 400.9087,529.27865 C 400.9087,529.8733 400.0167,530.18026 399.81514,529.65498 z M 363.22876,529.32133 C 362.87789,529.06476 362.67783,528.76783 362.78418,528.66147 C 362.89053,528.55512 363.24626,528.76504 363.5747,529.12796 C 364.27347,529.90008 364.12996,529.9803 363.22876,529.32133 z M 342.41615,528.47214 C 342.58171,527.97546 343.11064,527.92427 343.26585,528.38991 C 343.34123,528.61604 343.15622,528.80106 342.85471,528.80106 C 342.5532,528.80106 342.35585,528.65304 342.41615,528.47214 z M 364.39882,527.8143 C 364.39882,527.6334 364.46409,527.48538 364.54387,527.48538 C 364.62364,527.48538 364.78039,527.6334 364.8922,527.8143 C 365.004,527.99521 364.93873,528.14322 364.74715,528.14322 C 364.55557,528.14322 364.39882,527.99521 364.39882,527.8143 z M 377.22662,527.40147 C 377.22662,527.13012 377.44864,526.72384 377.71999,526.49863 C 378.12126,526.16561 378.21337,526.18128 378.21337,526.58254 C 378.21337,526.8539 377.99135,527.26018 377.71999,527.48538 C 377.31873,527.8184 377.22662,527.80274 377.22662,527.40147 z M 336.16382,526.49863 C 336.16382,526.04637 336.23848,525.86135 336.32973,526.08748 C 336.42097,526.31362 336.42097,526.68365 336.32973,526.90978 C 336.23848,527.13591 336.16382,526.95089 336.16382,526.49863 z M 308.30481,526.47675 C 308.18557,526.28381 308.17045,526.0435 308.27122,525.94274 C 308.5418,525.67216 309.46955,526.09454 309.46955,526.48831 C 309.46955,526.93473 308.58242,526.92593 308.30481,526.47675 z M 359.00538,523.5929 C 358.7739,523.21836 360.10843,520.57811 360.52922,520.57811 C 360.73293,520.57811 360.79083,521.04627 360.67522,521.75867 C 360.409,523.3992 359.50165,524.39588 359.00538,523.5929 z M 370.52931,522.71608 C 370.42518,522.44472 370.41992,522.2227 370.51762,522.2227 C 370.61532,522.2227 370.91727,522.44472 371.18863,522.71608 C 371.61653,523.14399 371.61808,523.20945 371.20032,523.20945 C 370.9354,523.20945 370.63345,522.98743 370.52931,522.71608 z M 374.62566,522.42749 C 374.27887,522.00685 374.25685,521.77172 374.53795,521.49062 C 375.03585,520.99273 375.33201,521.33317 375.19746,522.24873 C 375.09672,522.93418 375.05431,522.94744 374.62566,522.42749 z M 322.98334,520.24919 C 322.99328,519.79693 323.12862,519.13087 323.2841,518.76906 C 323.5268,518.20427 323.56933,518.25078 323.58486,519.09798 C 323.59481,519.6407 323.45946,520.30675 323.2841,520.57811 C 323.0328,520.96696 322.96908,520.89728 322.98334,520.24919 z M 346.9511,520.22102 C 346.52638,519.42743 346.71943,519.09737 347.44537,519.37594 C 347.99387,519.58642 348.15794,520.90703 347.63559,520.90703 C 347.46105,520.90703 347.15303,520.59833 346.9511,520.22102 z M 395.55195,518.71851 C 395.44498,518.54544 395.48489,517.83886 395.64063,517.14833 C 396.13228,514.96842 397.23554,514.57479 396.83252,516.72308 C 396.59235,518.00329 395.83718,519.18002 395.55195,518.71851 z M 332.31822,518.2577 C 332.03759,517.80363 332.437,515.06043 332.81804,514.82494 C 333.2689,514.54629 333.53722,515.83009 333.2964,517.11373 C 333.05975,518.37522 332.67148,518.82929 332.31822,518.2577 z M 366.01694,514.95563 C 366.54391,514.745 366.92727,514.75204 367.15171,514.97648 C 367.38435,515.20913 367.13477,515.30889 366.35588,515.29458 C 365.28963,515.27499 365.26916,515.25452 366.01694,514.95563 z "
       id="path8530"
       sodipodi:nodetypes="cssccssccssccsssccssccssccssccssssccssccsssccsssccsssccssccssssssssssscccsssssssssssssssssssssssssssssssscccssssscccsssssssssssssssssssssssssssssssssssssssssssscccsssssccccccssssssssssssssssssssssssssssscccssssssssscccsssssssssssssccssccssccsssccssccsssccsssssccsssssssccssccsssccssccsssccssccssccsssccsssssssssccssssccsssccssccssccssssccsssccssccsssccssssccssccssccssssccssccssccssccsssccssccsssccsssccsssccssccsssccssccsssccssccsssccssccssccssssccssccsssccssccsssccssccssccssccssssssssccccssccsssccsssccssssssssssssssssscccssssssccsssccsssccssccsssccssccsssssccsssccssccsssccssccssccssccssccsssccsssccsccccsssssccsssccssccssssssccssssccsssccssccssssssccsssccssccsssccsssccssccssccssccsssccsssccssccssccssccsssccssccsssccssccssccssccssc" />
  </g>
</svg>
