<?xml version="1.0" encoding="UTF-8" standalone="no"?>
<!-- Created with Inkscape (http://www.inkscape.org/) -->
<svg
   xmlns:dc="http://purl.org/dc/elements/1.1/"
   xmlns:cc="http://web.resource.org/cc/"
   xmlns:rdf="http://www.w3.org/1999/02/22-rdf-syntax-ns#"
   xmlns:svg="http://www.w3.org/2000/svg"
   xmlns="http://www.w3.org/2000/svg"
   xmlns:xlink="http://www.w3.org/1999/xlink"
   xmlns:sodipodi="http://sodipodi.sourceforge.net/DTD/sodipodi-0.dtd"
   xmlns:inkscape="http://www.inkscape.org/namespaces/inkscape"
   width="256.0202"
   height="184.39798"
   id="svg2"
   sodipodi:version="0.32"
   inkscape:version="0.45.1"
   sodipodi:docbase="/home/christof/Grafiken/SVGs/brits"
   sodipodi:docname="brit_icon_folder_PCT.svg"
   inkscape:output_extension="org.inkscape.output.svg.inkscape"
   version="1.0">
  <defs
     id="defs4">
    <linearGradient
       id="linearGradient15107">
      <stop
         style="stop-color:#ffffff;stop-opacity:1.0000000;"
         offset="0.0000000"
         id="stop15109" />
      <stop
         style="stop-color:#e2e2e2;stop-opacity:1.0000000;"
         offset="1.0000000"
         id="stop15111" />
    </linearGradient>
    <linearGradient
       y2="26.022909"
       x2="18.475286"
       y1="4.7461624"
       x1="11.572842"
       gradientTransform="matrix(4.424777,0,0,4.6697466,315.57521,459.96281)"
       gradientUnits="userSpaceOnUse"
       id="linearGradient27486"
       xlink:href="#linearGradient15107"
       inkscape:collect="always" />
    <radialGradient
       cx="64.551804"
       cy="14.1646"
       r="52.241501"
       fx="64.551804"
       fy="14.1646"
       id="XMLID_67_"
       gradientUnits="userSpaceOnUse">
      <stop
         style="stop-color:#0f80bc;stop-opacity:1"
         offset="0"
         id="stop85" />
      <stop
         style="stop-color:#0a5f9e;stop-opacity:1"
         offset="0.33759999"
         id="stop87" />
      <stop
         style="stop-color:#00145a;stop-opacity:1"
         offset="1"
         id="stop89" />
    </radialGradient>
    <clipPath
       clipPathUnits="userSpaceOnUse"
       id="clipoutline1">
      <path
         id="outline1"
         d="M 54.1,12.5 L 12.9,54.7 C -2.7,70.3 23,69 32.3,74.9 C 36.6,77.7 18.5,81.3 22.2,85 C 25.8,88.7 43.9,92.1 47.5,95.7 C 51.1,99.4 40.2,103.3 43.8,107 C 47.3,110.7 55.7,107.2 57.2,115.6 C 58.3,121.8 72.6,118.7 79,113.4 C 83,110 72.1,110 75.7,106.3 C 84.7,97.2 92.7,102.2 96,93.8 C 97.8,89.3 82.4,86.1 86.5,83.2 C 96.3,76.3 132.3,72.8 115.7,56.2 L 73,12.5 C 67.7,7.5 59,7.5 54.1,12.5 z M 44.2,77.2 C 45.1,77.2 75,81.2 63.5,84.3 C 59.1,85.5 38.9,77.2 44.2,77.2 z M 101.4,93.8 C 101.4,95.9 117.7,97.1 116.8,93.3 C 115.5,86.9 103.2,87.4 101.4,93.8 z M 31.9,104.9 C 35.6,108.1 41.2,104.2 43,99.7 C 39.4,95 26.1,100 31.9,104.9 z M 99.4,98.2 C 94.8,102.4 100.2,106.8 104.7,103.9 C 105.9,103.1 104.6,99.2 99.4,98.2 z " />
    </clipPath>
    <pattern
       inkscape:collect="always"
       xlink:href="#pattern7096"
       id="pattern7103"
       patternTransform="matrix(0.9807814,0.1951099,-0.1951099,0.9807814,88.853396,564.9863)" />
    <pattern
       patternUnits="userSpaceOnUse"
       width="52.64405"
       height="52.64405"
       patternTransform="translate(265.42265,627.97688)"
       id="pattern7044">
      <path
         id="path6068"
         d="M 0.5,0.5 L 52.14405,52.14405"
         style="fill:none;fill-rule:evenodd;stroke:#e04613;stroke-width:1px;stroke-linecap:butt;stroke-linejoin:miter;stroke-opacity:1" />
    </pattern>
    <pattern
       patternUnits="userSpaceOnUse"
       width="52.64405"
       height="52.64405"
       patternTransform="translate(265.69051,628.69118)"
       id="pattern7053">
      <path
         id="path7051"
         d="M 0.5,0.5 L 52.14405,52.14405"
         style="fill:none;fill-rule:evenodd;stroke:#e04613;stroke-width:1px;stroke-linecap:butt;stroke-linejoin:miter;stroke-opacity:1" />
    </pattern>
    <pattern
       patternUnits="userSpaceOnUse"
       width="7.5"
       height="41.425995"
       patternTransform="translate(198.25517,601.81158)"
       id="pattern7087">
      <rect
         y="1.25"
         x="1.25"
         height="38.925995"
         width="5"
         id="rect7085"
         style="opacity:1;fill:#262729;fill-opacity:1;fill-rule:nonzero;stroke:#e04613;stroke-width:2.5;stroke-linejoin:miter;stroke-miterlimit:4;stroke-dasharray:none;stroke-opacity:1" />
    </pattern>
    <pattern
       patternUnits="userSpaceOnUse"
       width="7.5000006"
       height="213.63924"
       patternTransform="translate(197.38019,536.79187)"
       id="pattern7096">
      <rect
         id="rect7090"
         y="0.87500006"
         x="0.87500006"
         height="211.88924"
         width="5.7500005"
         style="fill:#262729;fill-opacity:1;stroke:#e04613;stroke-width:1.75000012;stroke-miterlimit:4;stroke-dasharray:none;stroke-opacity:1" />
    </pattern>
    <radialGradient
       inkscape:collect="always"
       xlink:href="#XMLID_67_"
       id="radialGradient31918"
       gradientUnits="userSpaceOnUse"
       cx="64.551804"
       cy="14.1646"
       fx="64.551804"
       fy="14.1646"
       r="52.241501" />
    <radialGradient
       inkscape:collect="always"
       xlink:href="#XMLID_67_"
       id="radialGradient32255"
       gradientUnits="userSpaceOnUse"
       cx="64.551804"
       cy="14.1646"
       fx="64.551804"
       fy="14.1646"
       r="52.241501" />
  </defs>
  <sodipodi:namedview
     id="base"
     pagecolor="#a2a2a2"
     bordercolor="#666666"
     borderopacity="1.0"
     inkscape:pageopacity="0.87843137"
     inkscape:pageshadow="2"
     inkscape:zoom="4.2304298"
     inkscape:cx="94.577429"
     inkscape:cy="81.258431"
     inkscape:document-units="px"
     inkscape:current-layer="layer1"
     inkscape:window-width="1680"
     inkscape:window-height="1003"
     inkscape:window-x="0"
     inkscape:window-y="47"
     showgrid="true" />
  <metadata
     id="metadata7">
    <rdf:RDF>
      <cc:Work
         rdf:about="">
        <dc:format>image/svg+xml</dc:format>
        <dc:type
           rdf:resource="http://purl.org/dc/dcmitype/StillImage" />
      </cc:Work>
    </rdf:RDF>
  </metadata>
  <g
     inkscape:label="Ebene 1"
     inkscape:groupmode="layer"
     id="layer1"
     transform="translate(-258.33237,-501.75123)">
    <path
       style="fill:#262729;fill-opacity:1;stroke:none;stroke-width:2.40000224;stroke-linejoin:miter;stroke-miterlimit:4;stroke-opacity:1"
       d="M 292.60735,508.48793 L 508.20734,508.48793 L 510.20734,662.62903 C 510.20734,674.40212 496.82734,683.8801 480.20734,683.8801 L 264.60735,683.8801 L 262.60735,529.739 C 262.60735,517.96591 275.98735,508.48793 292.60735,508.48793 z "
       id="rect2160"
       sodipodi:nodetypes="ccccccc" />
    <path
       style="fill:#ffffff;fill-opacity:1"
       d="M 343.81449,513.81509 L 276.77446,536.30856 L 299.24999,603.29156 L 367.7571,582.73031 L 343.81449,513.81509 z M 366.26345,580.76689 L 299.22342,603.26037 L 304.88471,620.11746 L 371.92927,597.65491 L 366.26345,580.76689 z "
       id="path7295"
       sodipodi:nodetypes="cccccccccc" />
    <path
       style="fill:none;fill-rule:evenodd;stroke:#8f8f8f;stroke-width:10.00000191;stroke-linecap:butt;stroke-linejoin:miter;stroke-miterlimit:4;stroke-dasharray:none;stroke-opacity:1"
       d="M 263.33237,627.59304 L 508.53458,627.59304"
       id="path3134" />
    <path
       style="fill:none;fill-rule:evenodd;stroke:#8f8f8f;stroke-width:0.69999981;stroke-linecap:butt;stroke-linejoin:miter;stroke-miterlimit:4;stroke-dasharray:none;stroke-opacity:1"
       d="M 262.28424,676.50298 L 267.14877,681.36751"
       id="path2180"
       inkscape:tile-w="52.72286"
       inkscape:tile-h="52.72285"
       inkscape:tile-cx="241.13734"
       inkscape:tile-cy="655.35609" />
    <path
       id="use14111"
       d="M 262.63882,676.85757 L 267.14877,681.36751"
       style="fill:none;fill-rule:evenodd;stroke:#8f8f8f;stroke-width:0.69999981;stroke-linecap:butt;stroke-linejoin:miter;stroke-miterlimit:4;stroke-dasharray:none;stroke-opacity:1" />
    <path
       id="use14113"
       d="M 264.63998,673.90277 L 272.10472,681.36751"
       style="fill:none;fill-rule:evenodd;stroke:#8f8f8f;stroke-width:0.69999987;stroke-linecap:butt;stroke-linejoin:miter;stroke-miterlimit:4;stroke-dasharray:none;stroke-opacity:1" />
    <path
       id="use14115"
       d="M 263.92274,668.22958 L 277.06066,681.3675"
       style="fill:none;fill-rule:evenodd;stroke:#8f8f8f;stroke-width:0.69999975;stroke-linecap:butt;stroke-linejoin:miter;stroke-miterlimit:4;stroke-dasharray:none;stroke-opacity:1" />
    <path
       id="use14117"
       d="M 262.96912,662.32002 L 282.01662,681.36751"
       style="fill:none;fill-rule:evenodd;stroke:#8f8f8f;stroke-width:0.69999981;stroke-linecap:butt;stroke-linejoin:miter;stroke-miterlimit:4;stroke-dasharray:none;stroke-opacity:1" />
    <path
       id="use14119"
       d="M 263.31562,657.71056 L 286.97258,681.36751"
       style="fill:none;fill-rule:evenodd;stroke:#8f8f8f;stroke-width:0.69999981;stroke-linecap:butt;stroke-linejoin:miter;stroke-miterlimit:4;stroke-dasharray:none;stroke-opacity:1" />
    <path
       id="use14121"
       d="M 264.72582,654.16482 L 291.92851,681.36751"
       style="fill:none;fill-rule:evenodd;stroke:#8f8f8f;stroke-width:0.69999981;stroke-linecap:butt;stroke-linejoin:miter;stroke-miterlimit:4;stroke-dasharray:none;stroke-opacity:1" />
    <path
       id="use14123"
       d="M 264.48136,648.96442 L 296.88447,681.36752"
       style="fill:none;fill-rule:evenodd;stroke:#8f8f8f;stroke-width:0.69999981;stroke-linecap:butt;stroke-linejoin:miter;stroke-miterlimit:4;stroke-dasharray:none;stroke-opacity:1" />
    <path
       id="use14125"
       d="M 264.70965,644.23674 L 301.8404,681.36749"
       style="fill:none;fill-rule:evenodd;stroke:#8f8f8f;stroke-width:0.69999981;stroke-linecap:butt;stroke-linejoin:miter;stroke-miterlimit:4;stroke-dasharray:none;stroke-opacity:1" />
    <path
       id="use14127"
       d="M 264.1106,638.68175 L 306.79635,681.36749"
       style="fill:none;fill-rule:evenodd;stroke:#8f8f8f;stroke-width:0.69999975;stroke-linecap:butt;stroke-linejoin:miter;stroke-miterlimit:4;stroke-dasharray:none;stroke-opacity:1" />
    <path
       id="use14129"
       d="M 264.45711,634.07233 L 311.75232,681.36753"
       style="fill:none;fill-rule:evenodd;stroke:#8f8f8f;stroke-width:0.69999987;stroke-linecap:butt;stroke-linejoin:miter;stroke-miterlimit:4;stroke-dasharray:none;stroke-opacity:1" />
    <path
       id="use14131"
       d="M 264.6854,629.34466 L 316.70826,681.36751"
       style="fill:none;fill-rule:evenodd;stroke:#8f8f8f;stroke-width:0.69999981;stroke-linecap:butt;stroke-linejoin:miter;stroke-miterlimit:4;stroke-dasharray:none;stroke-opacity:1" />
    <path
       id="use14133"
       d="M 269.64135,629.34466 L 321.66421,681.36751"
       style="fill:none;fill-rule:evenodd;stroke:#8f8f8f;stroke-width:0.69999981;stroke-linecap:butt;stroke-linejoin:miter;stroke-miterlimit:4;stroke-dasharray:none;stroke-opacity:1" />
    <path
       id="use14135"
       d="M 274.5973,629.34466 L 326.62016,681.36751"
       style="fill:none;fill-rule:evenodd;stroke:#8f8f8f;stroke-width:0.69999981;stroke-linecap:butt;stroke-linejoin:miter;stroke-miterlimit:4;stroke-dasharray:none;stroke-opacity:1" />
    <path
       id="use14137"
       d="M 279.55325,629.34466 L 331.5761,681.36751"
       style="fill:none;fill-rule:evenodd;stroke:#8f8f8f;stroke-width:0.69999981;stroke-linecap:butt;stroke-linejoin:miter;stroke-miterlimit:4;stroke-dasharray:none;stroke-opacity:1" />
    <path
       id="use14139"
       d="M 284.50919,629.34466 L 336.53205,681.36751"
       style="fill:none;fill-rule:evenodd;stroke:#8f8f8f;stroke-width:0.69999981;stroke-linecap:butt;stroke-linejoin:miter;stroke-miterlimit:4;stroke-dasharray:none;stroke-opacity:1" />
    <path
       id="use14141"
       d="M 289.46514,629.34466 L 341.488,681.36751"
       style="fill:none;fill-rule:evenodd;stroke:#8f8f8f;stroke-width:0.69999981;stroke-linecap:butt;stroke-linejoin:miter;stroke-miterlimit:4;stroke-dasharray:none;stroke-opacity:1" />
    <path
       id="use14143"
       d="M 294.42109,629.34466 L 346.44395,681.36751"
       style="fill:none;fill-rule:evenodd;stroke:#8f8f8f;stroke-width:0.69999981;stroke-linecap:butt;stroke-linejoin:miter;stroke-miterlimit:4;stroke-dasharray:none;stroke-opacity:1" />
    <path
       id="use14145"
       d="M 299.37704,629.34466 L 351.3999,681.36751"
       style="fill:none;fill-rule:evenodd;stroke:#8f8f8f;stroke-width:0.69999981;stroke-linecap:butt;stroke-linejoin:miter;stroke-miterlimit:4;stroke-dasharray:none;stroke-opacity:1" />
    <path
       id="use14147"
       d="M 304.33299,629.34466 L 356.35585,681.36751"
       style="fill:none;fill-rule:evenodd;stroke:#8f8f8f;stroke-width:0.69999981;stroke-linecap:butt;stroke-linejoin:miter;stroke-miterlimit:4;stroke-dasharray:none;stroke-opacity:1" />
    <path
       id="use14149"
       d="M 309.28894,629.34466 L 361.3118,681.36751"
       style="fill:none;fill-rule:evenodd;stroke:#8f8f8f;stroke-width:0.69999981;stroke-linecap:butt;stroke-linejoin:miter;stroke-miterlimit:4;stroke-dasharray:none;stroke-opacity:1" />
    <path
       id="use14151"
       d="M 314.24489,629.34466 L 366.26775,681.36751"
       style="fill:none;fill-rule:evenodd;stroke:#8f8f8f;stroke-width:0.69999981;stroke-linecap:butt;stroke-linejoin:miter;stroke-miterlimit:4;stroke-dasharray:none;stroke-opacity:1" />
    <path
       id="use14153"
       d="M 319.20084,629.34466 L 371.2237,681.36751"
       style="fill:none;fill-rule:evenodd;stroke:#8f8f8f;stroke-width:0.69999981;stroke-linecap:butt;stroke-linejoin:miter;stroke-miterlimit:4;stroke-dasharray:none;stroke-opacity:1" />
    <path
       id="use14155"
       d="M 324.15678,629.34466 L 376.17964,681.36751"
       style="fill:none;fill-rule:evenodd;stroke:#8f8f8f;stroke-width:0.69999981;stroke-linecap:butt;stroke-linejoin:miter;stroke-miterlimit:4;stroke-dasharray:none;stroke-opacity:1" />
    <path
       id="use14157"
       d="M 329.11273,629.34466 L 381.13559,681.36751"
       style="fill:none;fill-rule:evenodd;stroke:#8f8f8f;stroke-width:0.69999981;stroke-linecap:butt;stroke-linejoin:miter;stroke-miterlimit:4;stroke-dasharray:none;stroke-opacity:1" />
    <path
       id="use14159"
       d="M 334.06868,629.34466 L 386.09154,681.36751"
       style="fill:none;fill-rule:evenodd;stroke:#8f8f8f;stroke-width:0.69999981;stroke-linecap:butt;stroke-linejoin:miter;stroke-miterlimit:4;stroke-dasharray:none;stroke-opacity:1" />
    <path
       id="use14161"
       d="M 339.02463,629.34466 L 391.04749,681.36751"
       style="fill:none;fill-rule:evenodd;stroke:#8f8f8f;stroke-width:0.69999981;stroke-linecap:butt;stroke-linejoin:miter;stroke-miterlimit:4;stroke-dasharray:none;stroke-opacity:1" />
    <path
       id="use14163"
       d="M 343.98058,629.34466 L 396.00344,681.36751"
       style="fill:none;fill-rule:evenodd;stroke:#8f8f8f;stroke-width:0.69999981;stroke-linecap:butt;stroke-linejoin:miter;stroke-miterlimit:4;stroke-dasharray:none;stroke-opacity:1" />
    <path
       id="use14165"
       d="M 348.93653,629.34466 L 400.95939,681.36751"
       style="fill:none;fill-rule:evenodd;stroke:#8f8f8f;stroke-width:0.69999981;stroke-linecap:butt;stroke-linejoin:miter;stroke-miterlimit:4;stroke-dasharray:none;stroke-opacity:1" />
    <path
       id="use14167"
       d="M 353.89248,629.34466 L 405.91534,681.36751"
       style="fill:none;fill-rule:evenodd;stroke:#8f8f8f;stroke-width:0.69999981;stroke-linecap:butt;stroke-linejoin:miter;stroke-miterlimit:4;stroke-dasharray:none;stroke-opacity:1" />
    <path
       id="use14169"
       d="M 358.84843,629.34466 L 410.87129,681.36751"
       style="fill:none;fill-rule:evenodd;stroke:#8f8f8f;stroke-width:0.69999981;stroke-linecap:butt;stroke-linejoin:miter;stroke-miterlimit:4;stroke-dasharray:none;stroke-opacity:1" />
    <path
       id="use14171"
       d="M 363.80437,629.34466 L 415.82723,681.36751"
       style="fill:none;fill-rule:evenodd;stroke:#8f8f8f;stroke-width:0.69999981;stroke-linecap:butt;stroke-linejoin:miter;stroke-miterlimit:4;stroke-dasharray:none;stroke-opacity:1" />
    <path
       id="use14173"
       d="M 368.76032,629.34466 L 420.78318,681.36751"
       style="fill:none;fill-rule:evenodd;stroke:#8f8f8f;stroke-width:0.69999981;stroke-linecap:butt;stroke-linejoin:miter;stroke-miterlimit:4;stroke-dasharray:none;stroke-opacity:1" />
    <path
       id="use14175"
       d="M 373.71627,629.34466 L 425.73913,681.36751"
       style="fill:none;fill-rule:evenodd;stroke:#8f8f8f;stroke-width:0.69999981;stroke-linecap:butt;stroke-linejoin:miter;stroke-miterlimit:4;stroke-dasharray:none;stroke-opacity:1" />
    <path
       id="use14177"
       d="M 378.67222,629.34466 L 430.69508,681.36751"
       style="fill:none;fill-rule:evenodd;stroke:#8f8f8f;stroke-width:0.69999981;stroke-linecap:butt;stroke-linejoin:miter;stroke-miterlimit:4;stroke-dasharray:none;stroke-opacity:1" />
    <path
       id="use14179"
       d="M 383.62817,629.34466 L 435.65103,681.36751"
       style="fill:none;fill-rule:evenodd;stroke:#8f8f8f;stroke-width:0.69999981;stroke-linecap:butt;stroke-linejoin:miter;stroke-miterlimit:4;stroke-dasharray:none;stroke-opacity:1" />
    <path
       id="use14181"
       d="M 388.58412,629.34466 L 440.60698,681.36751"
       style="fill:none;fill-rule:evenodd;stroke:#8f8f8f;stroke-width:0.69999981;stroke-linecap:butt;stroke-linejoin:miter;stroke-miterlimit:4;stroke-dasharray:none;stroke-opacity:1" />
    <path
       id="use14183"
       d="M 393.54007,629.34466 L 445.56293,681.36751"
       style="fill:none;fill-rule:evenodd;stroke:#8f8f8f;stroke-width:0.69999981;stroke-linecap:butt;stroke-linejoin:miter;stroke-miterlimit:4;stroke-dasharray:none;stroke-opacity:1" />
    <path
       id="use14185"
       d="M 398.49602,629.34466 L 450.51888,681.36751"
       style="fill:none;fill-rule:evenodd;stroke:#8f8f8f;stroke-width:0.69999981;stroke-linecap:butt;stroke-linejoin:miter;stroke-miterlimit:4;stroke-dasharray:none;stroke-opacity:1" />
    <path
       id="use14187"
       d="M 403.45197,629.34466 L 455.47483,681.36751"
       style="fill:none;fill-rule:evenodd;stroke:#8f8f8f;stroke-width:0.69999981;stroke-linecap:butt;stroke-linejoin:miter;stroke-miterlimit:4;stroke-dasharray:none;stroke-opacity:1" />
    <path
       id="use14189"
       d="M 408.40791,629.34466 L 460.43077,681.36751"
       style="fill:none;fill-rule:evenodd;stroke:#8f8f8f;stroke-width:0.69999981;stroke-linecap:butt;stroke-linejoin:miter;stroke-miterlimit:4;stroke-dasharray:none;stroke-opacity:1" />
    <path
       id="use14191"
       d="M 413.36386,629.34466 L 465.38672,681.36751"
       style="fill:none;fill-rule:evenodd;stroke:#8f8f8f;stroke-width:0.69999981;stroke-linecap:butt;stroke-linejoin:miter;stroke-miterlimit:4;stroke-dasharray:none;stroke-opacity:1" />
    <path
       id="use14193"
       d="M 418.31981,629.34466 L 470.34267,681.36751"
       style="fill:none;fill-rule:evenodd;stroke:#8f8f8f;stroke-width:0.69999981;stroke-linecap:butt;stroke-linejoin:miter;stroke-miterlimit:4;stroke-dasharray:none;stroke-opacity:1" />
    <path
       id="use14195"
       d="M 423.27576,629.34466 L 475.29862,681.36751"
       style="fill:none;fill-rule:evenodd;stroke:#8f8f8f;stroke-width:0.69999981;stroke-linecap:butt;stroke-linejoin:miter;stroke-miterlimit:4;stroke-dasharray:none;stroke-opacity:1" />
    <path
       id="use14197"
       d="M 428.23171,629.34466 L 480.25457,681.36751"
       style="fill:none;fill-rule:evenodd;stroke:#8f8f8f;stroke-width:0.69999981;stroke-linecap:butt;stroke-linejoin:miter;stroke-miterlimit:4;stroke-dasharray:none;stroke-opacity:1" />
    <path
       id="use14199"
       d="M 433.18766,629.34466 L 485.21052,681.36751"
       style="fill:none;fill-rule:evenodd;stroke:#8f8f8f;stroke-width:0.69999981;stroke-linecap:butt;stroke-linejoin:miter;stroke-miterlimit:4;stroke-dasharray:none;stroke-opacity:1" />
    <path
       id="use14201"
       d="M 438.14361,629.34466 L 490.16647,681.36751"
       style="fill:none;fill-rule:evenodd;stroke:#8f8f8f;stroke-width:0.69999981;stroke-linecap:butt;stroke-linejoin:miter;stroke-miterlimit:4;stroke-dasharray:none;stroke-opacity:1" />
    <path
       id="use14203"
       d="M 443.09954,629.34463 L 492.404,678.64908"
       style="fill:none;fill-rule:evenodd;stroke:#8f8f8f;stroke-width:0.69999981;stroke-linecap:butt;stroke-linejoin:miter;stroke-miterlimit:4;stroke-dasharray:none;stroke-opacity:1" />
    <path
       id="use14205"
       d="M 448.05551,629.34468 L 495.46891,676.75807"
       style="fill:none;fill-rule:evenodd;stroke:#8f8f8f;stroke-width:0.69999981;stroke-linecap:butt;stroke-linejoin:miter;stroke-miterlimit:4;stroke-dasharray:none;stroke-opacity:1" />
    <path
       id="use14207"
       d="M 453.01147,629.34469 L 498.06104,674.39425"
       style="fill:none;fill-rule:evenodd;stroke:#8f8f8f;stroke-width:0.69999987;stroke-linecap:butt;stroke-linejoin:miter;stroke-miterlimit:4;stroke-dasharray:none;stroke-opacity:1" />
    <path
       id="use14209"
       d="M 457.96741,629.34467 L 502.18964,673.5669"
       style="fill:none;fill-rule:evenodd;stroke:#8f8f8f;stroke-width:0.69999981;stroke-linecap:butt;stroke-linejoin:miter;stroke-miterlimit:4;stroke-dasharray:none;stroke-opacity:1" />
    <path
       id="use14211"
       d="M 462.92335,629.34466 L 504.07261,670.49391"
       style="fill:none;fill-rule:evenodd;stroke:#8f8f8f;stroke-width:0.69999981;stroke-linecap:butt;stroke-linejoin:miter;stroke-miterlimit:4;stroke-dasharray:none;stroke-opacity:1" />
    <path
       id="use14213"
       d="M 467.8793,629.34467 L 505.71921,667.18456"
       style="fill:none;fill-rule:evenodd;stroke:#8f8f8f;stroke-width:0.69999981;stroke-linecap:butt;stroke-linejoin:miter;stroke-miterlimit:4;stroke-dasharray:none;stroke-opacity:1" />
    <path
       id="use14215"
       d="M 472.83527,629.34468 L 507.01124,663.52065"
       style="fill:none;fill-rule:evenodd;stroke:#8f8f8f;stroke-width:0.69999987;stroke-linecap:butt;stroke-linejoin:miter;stroke-miterlimit:4;stroke-dasharray:none;stroke-opacity:1" />
    <path
       id="use14217"
       d="M 477.79119,629.34464 L 508.53961,660.09305"
       style="fill:none;fill-rule:evenodd;stroke:#8f8f8f;stroke-width:0.69999975;stroke-linecap:butt;stroke-linejoin:miter;stroke-miterlimit:4;stroke-dasharray:none;stroke-opacity:1" />
    <path
       id="use14219"
       d="M 482.74713,629.34464 L 510.1862,656.7837"
       style="fill:none;fill-rule:evenodd;stroke:#8f8f8f;stroke-width:0.69999975;stroke-linecap:butt;stroke-linejoin:miter;stroke-miterlimit:4;stroke-dasharray:none;stroke-opacity:1" />
    <path
       id="use14221"
       d="M 487.70311,629.34468 L 510.17815,651.81971"
       style="fill:none;fill-rule:evenodd;stroke:#8f8f8f;stroke-width:0.69999981;stroke-linecap:butt;stroke-linejoin:miter;stroke-miterlimit:4;stroke-dasharray:none;stroke-opacity:1" />
    <path
       id="use14223"
       d="M 492.65904,629.34467 L 509.81547,646.50109"
       style="fill:none;fill-rule:evenodd;stroke:#8f8f8f;stroke-width:0.69999987;stroke-linecap:butt;stroke-linejoin:miter;stroke-miterlimit:4;stroke-dasharray:none;stroke-opacity:1" />
    <path
       id="use14225"
       d="M 497.61501,629.34469 L 508.50729,640.23696"
       style="fill:none;fill-rule:evenodd;stroke:#8f8f8f;stroke-width:0.69999993;stroke-linecap:butt;stroke-linejoin:miter;stroke-miterlimit:4;stroke-dasharray:none;stroke-opacity:1" />
    <path
       id="use14227"
       d="M 502.57094,629.34467 L 508.85377,635.62749"
       style="fill:none;fill-rule:evenodd;stroke:#8f8f8f;stroke-width:0.69999987;stroke-linecap:butt;stroke-linejoin:miter;stroke-miterlimit:4;stroke-dasharray:none;stroke-opacity:1" />
    <path
       style="fill:none;fill-opacity:1;stroke:#ffffff;stroke-width:10.00000191;stroke-linejoin:miter;stroke-miterlimit:4;stroke-dasharray:none;stroke-opacity:1"
       d="M 293.67747,506.75123 L 509.35257,506.75123 L 509.23001,660.39027 C 509.23001,671.89072 496.27484,681.14921 480.18254,681.14921 L 264.67458,681.14921 L 264.63,527.51017 C 264.63,516.00972 277.58518,506.75123 293.67747,506.75123 z "
       id="rect6047"
       sodipodi:nodetypes="ccccccc" />
    <path
       transform="matrix(6.0040393,0,0,6.0040393,-244.64098,207.31361)"
       style="fill:#ffffff;fill-opacity:1"
       d="M 105.80469,58.607097 L 108.28906,58.607097 C 108.96093,58.607106 109.47656,58.65984 109.83594,58.7653 C 110.19921,58.870778 110.4707,59.023121 110.65039,59.222331 C 110.83398,59.421558 110.95703,59.663746 111.01953,59.948893 C 111.08593,60.230151 111.11913,60.667651 111.11914,61.261393 L 111.11914,62.087565 C 111.11913,62.69304 111.05663,63.134445 110.93164,63.411784 C 110.80664,63.689132 110.57617,63.902023 110.24023,64.050456 C 109.9082,64.198897 109.47265,64.273116 108.93359,64.273112 L 108.27148,64.273112 L 108.27148,68.093425 L 105.80469,68.093425 L 105.80469,58.607097 M 108.27148,60.230143 L 108.27148,62.644206 C 108.34179,62.648118 108.40234,62.650071 108.45312,62.650065 C 108.67968,62.650071 108.83593,62.595383 108.92188,62.486003 C 109.01172,62.372727 109.05664,62.140306 109.05664,61.788737 L 109.05664,61.00944 C 109.05664,60.685229 109.00586,60.474292 108.9043,60.376628 C 108.80273,60.278979 108.59179,60.230151 108.27148,60.230143 M 117.58789,62.743815 L 115.12109,62.743815 L 115.12109,61.091472 C 115.12109,60.61101 115.09375,60.312183 115.03906,60.194987 C 114.98828,60.073902 114.87304,60.013355 114.69336,60.013347 C 114.49023,60.013355 114.36133,60.08562 114.30664,60.230143 C 114.25195,60.374682 114.22461,60.687182 114.22461,61.167643 L 114.22461,65.573893 C 114.22461,66.034833 114.25195,66.335614 114.30664,66.476237 C 114.36133,66.616864 114.48437,66.687176 114.67578,66.687175 C 114.85937,66.687176 114.97851,66.616864 115.0332,66.476237 C 115.09179,66.335614 115.12109,66.005536 115.12109,65.486003 L 115.12109,64.29655 L 117.58789,64.29655 L 117.58789,64.66569 C 117.58788,65.646162 117.51757,66.341473 117.37695,66.751628 C 117.24023,67.161785 116.93359,67.52116 116.45703,67.829753 C 115.98437,68.138347 115.40039,68.292643 114.70508,68.292643 C 113.98242,68.292643 113.38672,68.161784 112.91797,67.900065 C 112.44922,67.638347 112.13867,67.277019 111.98633,66.816081 C 111.83398,66.351239 111.75781,65.653974 111.75781,64.724284 L 111.75781,61.9528 C 111.75781,61.269213 111.78125,60.757495 111.82812,60.417643 C 111.875,60.073902 112.01367,59.743824 112.24414,59.427409 C 112.47851,59.111012 112.80078,58.862965 113.21094,58.683268 C 113.625,58.499684 114.09961,58.407888 114.63477,58.407878 C 115.36132,58.407888 115.96093,58.548512 116.43359,58.829753 C 116.90624,59.111012 117.21679,59.462574 117.36523,59.88444 C 117.51367,60.302417 117.58788,60.95476 117.58789,61.841472 L 117.58789,62.743815 M 123.45312,58.607097 L 123.45312,60.505534 L 121.98828,60.505534 L 121.98828,68.093425 L 119.52148,68.093425 L 119.52148,60.505534 L 118.0625,60.505534 L 118.0625,58.607097 L 123.45312,58.607097"
       id="flowRoot6310" />
    <rect
       style="opacity:1;fill:#262729;fill-opacity:1;fill-rule:nonzero;stroke:none;stroke-width:2.70000005;stroke-linejoin:miter;stroke-miterlimit:4;stroke-dasharray:none;stroke-opacity:1"
       id="rect7305"
       width="70.104546"
       height="67.507339"
       x="260.76108"
       y="550.84033"
       transform="matrix(0.9963584,-8.5264472e-2,7.3254861e-2,0.9973133,0,0)" />
    <path
       style="fill:#ffffff;fill-opacity:1"
       d="M 309.57428,589.90272 C 309.06217,583.61274 310.26975,582.09106 320.2463,576.45492 C 326.73063,572.79168 328.31772,571.57237 328.88198,569.82038 C 329.26221,568.63983 330.01775,567.63773 330.56095,567.59351 C 331.83501,567.48977 331.67087,566.07761 330.19232,564.42198 C 329.55158,563.70451 328.95365,562.2123 328.86357,561.10595 C 328.7735,559.99961 328.38877,559.11974 328.00862,559.15069 C 326.44119,559.27831 325.39905,555.83082 324.42312,547.28956 C 323.50114,539.22052 323.52286,538.00069 324.6274,535.817 C 325.30718,534.47307 326.20351,533.3458 326.61927,533.31195 C 327.03502,533.2781 328.28258,532.45822 329.39161,531.48997 C 333.81317,527.62982 343.90202,529.16869 347.95032,534.32076 C 350.01903,536.95352 350.08499,537.25792 350.59004,546.50248 C 351.00587,554.11415 350.89793,556.16547 350.04264,556.90425 C 349.45668,557.4104 348.82338,558.95716 348.6353,560.3415 C 348.44721,561.72584 347.9853,563.45429 347.6088,564.18249 C 346.51102,566.30585 351.71408,570.2079 360.44779,573.81114 C 370.55237,577.97997 370.89547,578.30226 371.74348,584.42156 L 372.43549,589.41517 L 341.19214,591.95892 L 309.9488,594.50267 L 309.57428,589.90272 z "
       id="path4164" />
    <rect
       style="fill:none;fill-opacity:1;fill-rule:nonzero;stroke:#fff9f9;stroke-width:2.70000005;stroke-linejoin:miter;stroke-miterlimit:4;stroke-dasharray:none;stroke-opacity:1"
       id="rect4166"
       width="70.712807"
       height="68.446602"
       x="256.18332"
       y="548.67328"
       transform="matrix(0.996702,-8.1148759e-2,8.1148759e-2,0.996702,0,0)" />
    <rect
       style="fill:#ffffff;fill-opacity:1;fill-rule:nonzero;stroke:#fff9f9;stroke-width:2.69999981;stroke-linejoin:miter;stroke-miterlimit:4;stroke-dasharray:none;stroke-opacity:1"
       id="rect6106"
       width="70.712814"
       height="17.802576"
       x="256.18326"
       y="619.2887"
       transform="matrix(0.996702,-8.1148759e-2,8.1148759e-2,0.996702,0,0)" />
  </g>
</svg>
