<?xml version="1.0" encoding="UTF-8" standalone="no"?>
<!-- Created with Inkscape (http://www.inkscape.org/) -->
<svg
   xmlns:dc="http://purl.org/dc/elements/1.1/"
   xmlns:cc="http://creativecommons.org/ns#"
   xmlns:rdf="http://www.w3.org/1999/02/22-rdf-syntax-ns#"
   xmlns:svg="http://www.w3.org/2000/svg"
   xmlns="http://www.w3.org/2000/svg"
   xmlns:xlink="http://www.w3.org/1999/xlink"
   xmlns:sodipodi="http://sodipodi.sourceforge.net/DTD/sodipodi-0.dtd"
   xmlns:inkscape="http://www.inkscape.org/namespaces/inkscape"
   width="254.72256"
   height="254.60004"
   id="svg2"
   sodipodi:version="0.32"
   inkscape:version="0.46"
   sodipodi:docbase="/home/christof/Grafiken/SVGs"
   sodipodi:docname="gnome-control-center.svg"
   inkscape:output_extension="org.inkscape.output.svg.inkscape"
   version="1.0">
  <defs
     id="defs4">
    <inkscape:perspective
       sodipodi:type="inkscape:persp3d"
       inkscape:vp_x="0 : 127.30002 : 1"
       inkscape:vp_y="0 : 1000 : 0"
       inkscape:vp_z="254.72256 : 127.30002 : 1"
       inkscape:persp3d-origin="127.36128 : 84.866679 : 1"
       id="perspective92" />
    <linearGradient
       id="linearGradient15107">
      <stop
         style="stop-color:#ffffff;stop-opacity:1.0000000;"
         offset="0.0000000"
         id="stop15109" />
      <stop
         style="stop-color:#e2e2e2;stop-opacity:1.0000000;"
         offset="1.0000000"
         id="stop15111" />
    </linearGradient>
    <linearGradient
       y2="26.022909"
       x2="18.475286"
       y1="4.7461624"
       x1="11.572842"
       gradientTransform="matrix(4.424777,0,0,4.6697466,315.57521,459.96281)"
       gradientUnits="userSpaceOnUse"
       id="linearGradient27486"
       xlink:href="#linearGradient15107"
       inkscape:collect="always" />
    <radialGradient
       cx="64.551804"
       cy="14.1646"
       r="52.241501"
       fx="64.551804"
       fy="14.1646"
       id="XMLID_67_"
       gradientUnits="userSpaceOnUse">
      <stop
         style="stop-color:#0f80bc;stop-opacity:1"
         offset="0"
         id="stop85" />
      <stop
         style="stop-color:#0a5f9e;stop-opacity:1"
         offset="0.33759999"
         id="stop87" />
      <stop
         style="stop-color:#00145a;stop-opacity:1"
         offset="1"
         id="stop89" />
    </radialGradient>
    <clipPath
       clipPathUnits="userSpaceOnUse"
       id="clipoutline1">
      <path
         id="outline1"
         d="M 54.1,12.5 L 12.9,54.7 C -2.7,70.3 23,69 32.3,74.9 C 36.6,77.7 18.5,81.3 22.2,85 C 25.8,88.7 43.9,92.1 47.5,95.7 C 51.1,99.4 40.2,103.3 43.8,107 C 47.3,110.7 55.7,107.2 57.2,115.6 C 58.3,121.8 72.6,118.7 79,113.4 C 83,110 72.1,110 75.7,106.3 C 84.7,97.2 92.7,102.2 96,93.8 C 97.8,89.3 82.4,86.1 86.5,83.2 C 96.3,76.3 132.3,72.8 115.7,56.2 L 73,12.5 C 67.7,7.5 59,7.5 54.1,12.5 z M 44.2,77.2 C 45.1,77.2 75,81.2 63.5,84.3 C 59.1,85.5 38.9,77.2 44.2,77.2 z M 101.4,93.8 C 101.4,95.9 117.7,97.1 116.8,93.3 C 115.5,86.9 103.2,87.4 101.4,93.8 z M 31.9,104.9 C 35.6,108.1 41.2,104.2 43,99.7 C 39.4,95 26.1,100 31.9,104.9 z M 99.4,98.2 C 94.8,102.4 100.2,106.8 104.7,103.9 C 105.9,103.1 104.6,99.2 99.4,98.2 z " />
    </clipPath>
    <pattern
       inkscape:collect="always"
       xlink:href="#pattern7096"
       id="pattern7103"
       patternTransform="matrix(0.9807814,0.1951099,-0.1951099,0.9807814,88.853396,564.9863)" />
    <pattern
       patternUnits="userSpaceOnUse"
       width="52.64405"
       height="52.64405"
       patternTransform="translate(265.42265,627.97688)"
       id="pattern7044">
      <path
         id="path6068"
         d="M 0.5,0.5 L 52.14405,52.14405"
         style="fill:none;fill-rule:evenodd;stroke:#e04613;stroke-width:1px;stroke-linecap:butt;stroke-linejoin:miter;stroke-opacity:1" />
    </pattern>
    <pattern
       patternUnits="userSpaceOnUse"
       width="52.64405"
       height="52.64405"
       patternTransform="translate(265.69051,628.69118)"
       id="pattern7053">
      <path
         id="path7051"
         d="M 0.5,0.5 L 52.14405,52.14405"
         style="fill:none;fill-rule:evenodd;stroke:#e04613;stroke-width:1px;stroke-linecap:butt;stroke-linejoin:miter;stroke-opacity:1" />
    </pattern>
    <pattern
       patternUnits="userSpaceOnUse"
       width="7.5"
       height="41.425995"
       patternTransform="translate(198.25517,601.81158)"
       id="pattern7087">
      <rect
         y="1.25"
         x="1.25"
         height="38.925995"
         width="5"
         id="rect7085"
         style="opacity:1;fill:#262729;fill-opacity:1;fill-rule:nonzero;stroke:#e04613;stroke-width:2.5;stroke-linejoin:miter;stroke-miterlimit:4;stroke-dasharray:none;stroke-opacity:1" />
    </pattern>
    <pattern
       patternUnits="userSpaceOnUse"
       width="7.5000006"
       height="213.63924"
       patternTransform="translate(197.38019,536.79187)"
       id="pattern7096">
      <rect
         id="rect7090"
         y="0.87500006"
         x="0.87500006"
         height="211.88924"
         width="5.7500005"
         style="fill:#262729;fill-opacity:1;stroke:#e04613;stroke-width:1.75000012;stroke-miterlimit:4;stroke-dasharray:none;stroke-opacity:1" />
    </pattern>
    <radialGradient
       inkscape:collect="always"
       xlink:href="#XMLID_67_"
       id="radialGradient31918"
       gradientUnits="userSpaceOnUse"
       cx="64.551804"
       cy="14.1646"
       fx="64.551804"
       fy="14.1646"
       r="52.241501" />
    <radialGradient
       inkscape:collect="always"
       xlink:href="#XMLID_67_"
       id="radialGradient32255"
       gradientUnits="userSpaceOnUse"
       cx="64.551804"
       cy="14.1646"
       fx="64.551804"
       fy="14.1646"
       r="52.241501" />
    <inkscape:perspective
       id="perspective2470"
       inkscape:persp3d-origin="24 : 16 : 1"
       inkscape:vp_z="48 : 24 : 1"
       inkscape:vp_y="0 : 1000 : 0"
       inkscape:vp_x="0 : 24 : 1"
       sodipodi:type="inkscape:persp3d" />
  </defs>
  <sodipodi:namedview
     id="base"
     pagecolor="#a2a2a2"
     bordercolor="#666666"
     borderopacity="1.0"
     inkscape:pageopacity="0.87843137"
     inkscape:pageshadow="2"
     inkscape:zoom="0.3739207"
     inkscape:cx="709.38582"
     inkscape:cy="278.39606"
     inkscape:document-units="px"
     inkscape:current-layer="layer1"
     inkscape:window-width="1280"
     inkscape:window-height="949"
     inkscape:window-x="0"
     inkscape:window-y="23"
     showgrid="true"
     showguides="true"
     inkscape:guide-bbox="true" />
  <metadata
     id="metadata7">
    <rdf:RDF>
      <cc:Work
         rdf:about="">
        <dc:format>image/svg+xml</dc:format>
        <dc:type
           rdf:resource="http://purl.org/dc/dcmitype/StillImage" />
      </cc:Work>
    </rdf:RDF>
  </metadata>
  <g
     inkscape:label="Ebene 1"
     inkscape:groupmode="layer"
     id="layer1"
     transform="translate(-259.63,-431.54916)">
    <path
       style="fill:#262729;fill-opacity:1;stroke:none;stroke-width:2.40000224;stroke-linejoin:miter;stroke-miterlimit:4;stroke-opacity:1"
       d="M 292.60735,436.28011 L 508.20734,436.28011 L 510.20734,653.8801 C 510.20734,670.5001 496.82734,683.8801 480.20734,683.8801 L 264.60735,683.8801 L 262.60735,466.28011 C 262.60735,449.66011 275.98735,436.28011 292.60735,436.28011 z "
       id="rect2160"
       sodipodi:nodetypes="ccccccc" />
    <path
       style="fill:#ffffff;fill-rule:evenodd;stroke:#262729;stroke-width:0.5;stroke-linecap:butt;stroke-linejoin:round;stroke-opacity:1;fill-opacity:1;stroke-miterlimit:4;stroke-dasharray:none"
       d="M 73.043563,127.90205 L 72.374972,117.53889 L 60.340334,118.04033 L 60.006039,108.68006 L 71.204937,109.5158 L 71.372085,103.83277 L 62.513255,101.65985 L 61.844664,95.976831 L 72.709267,96.81257 L 75.550779,92.299581 L 66.524801,86.616558 L 68.363426,82.270716 L 77.723699,85.112228 L 81.40095,81.434978 L 74.547892,73.411886 L 78.893733,69.901784 L 86.582529,75.584807 L 91.931257,71.907556 L 86.248234,64.21876 L 91.262666,60.207215 L 98.115724,67.394567 L 103.46445,65.054499 L 99.452906,56.529964 L 106.13882,53.521305 L 110.9861,62.380135 L 116.33483,61.711544 L 116.33483,51.515532 L 124.35792,51.348384 L 124.52507,59.371476 L 131.54527,59.538624 L 132.04671,50.512646 L 139.90266,50.846941 L 139.56836,61.210101 L 145.25139,61.711544 L 150.26582,53.521305 L 155.28025,55.694226 L 152.60589,63.884465 L 156.78458,67.060272 L 164.97482,60.040067 L 169.65496,63.048726 L 164.47338,70.403227 L 169.15351,75.584807 L 177.67805,69.40034 L 182.52533,73.746182 L 175.83942,80.097796 L 178.51379,84.610785 L 187.70691,81.602125 L 191.21701,86.282262 L 183.19392,91.296694 L 181.68959,92.633876 L 182.35818,95.809683 L 194.39282,95.30824 L 194.55997,101.15841 L 185.03255,103.33133 L 185.1997,108.68006 L 195.22856,108.84721 L 195.06141,116.36886 L 186.03544,115.86741 L 153.96275,159.69084 L 104.89294,156.78501 L 73.043563,127.90205 z"
       id="path3248"
       transform="translate(259.63,431.54916)"
       sodipodi:nodetypes="ccccccccccccccccccccccccccccccccccccccccccccccccccccccccccccc" />
    <path
       style="fill:none;fill-rule:evenodd;stroke:#6c9eab;stroke-width:10.00000191;stroke-linecap:butt;stroke-linejoin:miter;stroke-miterlimit:4;stroke-dasharray:none;stroke-opacity:1"
       d="M 263.33237,627.59304 L 508.53458,627.59304"
       id="path3134" />
    <path
       style="fill:none;fill-rule:evenodd;stroke:#6c9eab;stroke-width:0.69999981;stroke-linecap:butt;stroke-linejoin:miter;stroke-miterlimit:4;stroke-dasharray:none;stroke-opacity:1"
       d="M 262.28424,676.50298 L 267.14877,681.36751"
       id="path2180"
       inkscape:tile-w="52.72286"
       inkscape:tile-h="52.72285"
       inkscape:tile-cx="241.13734"
       inkscape:tile-cy="655.35609" />
    <path
       id="use14111"
       d="M 262.63882,676.85757 L 267.14877,681.36751"
       style="fill:none;fill-rule:evenodd;stroke:#6c9eab;stroke-width:0.69999981;stroke-linecap:butt;stroke-linejoin:miter;stroke-miterlimit:4;stroke-dasharray:none;stroke-opacity:1" />
    <path
       id="use14113"
       d="M 264.63998,673.90277 L 272.10472,681.36751"
       style="fill:none;fill-rule:evenodd;stroke:#6c9eab;stroke-width:0.69999987;stroke-linecap:butt;stroke-linejoin:miter;stroke-miterlimit:4;stroke-dasharray:none;stroke-opacity:1" />
    <path
       id="use14115"
       d="M 263.92274,668.22958 L 277.06066,681.3675"
       style="fill:none;fill-rule:evenodd;stroke:#6c9eab;stroke-width:0.69999975;stroke-linecap:butt;stroke-linejoin:miter;stroke-miterlimit:4;stroke-dasharray:none;stroke-opacity:1" />
    <path
       id="use14117"
       d="M 262.96912,662.32002 L 282.01662,681.36751"
       style="fill:none;fill-rule:evenodd;stroke:#6c9eab;stroke-width:0.69999981;stroke-linecap:butt;stroke-linejoin:miter;stroke-miterlimit:4;stroke-dasharray:none;stroke-opacity:1" />
    <path
       id="use14119"
       d="M 263.31562,657.71056 L 286.97258,681.36751"
       style="fill:none;fill-rule:evenodd;stroke:#6c9eab;stroke-width:0.69999981;stroke-linecap:butt;stroke-linejoin:miter;stroke-miterlimit:4;stroke-dasharray:none;stroke-opacity:1" />
    <path
       id="use14121"
       d="M 264.72582,654.16482 L 291.92851,681.36751"
       style="fill:none;fill-rule:evenodd;stroke:#6c9eab;stroke-width:0.69999981;stroke-linecap:butt;stroke-linejoin:miter;stroke-miterlimit:4;stroke-dasharray:none;stroke-opacity:1" />
    <path
       id="use14123"
       d="M 264.48136,648.96442 L 296.88447,681.36752"
       style="fill:none;fill-rule:evenodd;stroke:#6c9eab;stroke-width:0.69999981;stroke-linecap:butt;stroke-linejoin:miter;stroke-miterlimit:4;stroke-dasharray:none;stroke-opacity:1" />
    <path
       id="use14125"
       d="M 264.70965,644.23674 L 301.8404,681.36749"
       style="fill:none;fill-rule:evenodd;stroke:#6c9eab;stroke-width:0.69999981;stroke-linecap:butt;stroke-linejoin:miter;stroke-miterlimit:4;stroke-dasharray:none;stroke-opacity:1" />
    <path
       id="use14127"
       d="M 264.1106,638.68175 L 306.79635,681.36749"
       style="fill:none;fill-rule:evenodd;stroke:#6c9eab;stroke-width:0.69999975;stroke-linecap:butt;stroke-linejoin:miter;stroke-miterlimit:4;stroke-dasharray:none;stroke-opacity:1" />
    <path
       id="use14129"
       d="M 264.45711,634.07233 L 311.75232,681.36753"
       style="fill:none;fill-rule:evenodd;stroke:#6c9eab;stroke-width:0.69999987;stroke-linecap:butt;stroke-linejoin:miter;stroke-miterlimit:4;stroke-dasharray:none;stroke-opacity:1" />
    <path
       id="use14131"
       d="M 264.6854,629.34466 L 316.70826,681.36751"
       style="fill:none;fill-rule:evenodd;stroke:#6c9eab;stroke-width:0.69999981;stroke-linecap:butt;stroke-linejoin:miter;stroke-miterlimit:4;stroke-dasharray:none;stroke-opacity:1" />
    <path
       id="use14133"
       d="M 269.64135,629.34466 L 321.66421,681.36751"
       style="fill:none;fill-rule:evenodd;stroke:#6c9eab;stroke-width:0.69999981;stroke-linecap:butt;stroke-linejoin:miter;stroke-miterlimit:4;stroke-dasharray:none;stroke-opacity:1" />
    <path
       id="use14135"
       d="M 274.5973,629.34466 L 326.62016,681.36751"
       style="fill:none;fill-rule:evenodd;stroke:#6c9eab;stroke-width:0.69999981;stroke-linecap:butt;stroke-linejoin:miter;stroke-miterlimit:4;stroke-dasharray:none;stroke-opacity:1" />
    <path
       id="use14137"
       d="M 279.55325,629.34466 L 331.5761,681.36751"
       style="fill:none;fill-rule:evenodd;stroke:#6c9eab;stroke-width:0.69999981;stroke-linecap:butt;stroke-linejoin:miter;stroke-miterlimit:4;stroke-dasharray:none;stroke-opacity:1" />
    <path
       id="use14139"
       d="M 284.50919,629.34466 L 336.53205,681.36751"
       style="fill:none;fill-rule:evenodd;stroke:#6c9eab;stroke-width:0.69999981;stroke-linecap:butt;stroke-linejoin:miter;stroke-miterlimit:4;stroke-dasharray:none;stroke-opacity:1" />
    <path
       id="use14141"
       d="M 289.46514,629.34466 L 341.488,681.36751"
       style="fill:none;fill-rule:evenodd;stroke:#6c9eab;stroke-width:0.69999981;stroke-linecap:butt;stroke-linejoin:miter;stroke-miterlimit:4;stroke-dasharray:none;stroke-opacity:1" />
    <path
       id="use14143"
       d="M 294.42109,629.34466 L 346.44395,681.36751"
       style="fill:none;fill-rule:evenodd;stroke:#6c9eab;stroke-width:0.69999981;stroke-linecap:butt;stroke-linejoin:miter;stroke-miterlimit:4;stroke-dasharray:none;stroke-opacity:1" />
    <path
       id="use14145"
       d="M 299.37704,629.34466 L 351.3999,681.36751"
       style="fill:none;fill-rule:evenodd;stroke:#6c9eab;stroke-width:0.69999981;stroke-linecap:butt;stroke-linejoin:miter;stroke-miterlimit:4;stroke-dasharray:none;stroke-opacity:1" />
    <path
       id="use14147"
       d="M 304.33299,629.34466 L 356.35585,681.36751"
       style="fill:none;fill-rule:evenodd;stroke:#6c9eab;stroke-width:0.69999981;stroke-linecap:butt;stroke-linejoin:miter;stroke-miterlimit:4;stroke-dasharray:none;stroke-opacity:1" />
    <path
       id="use14149"
       d="M 309.28894,629.34466 L 361.3118,681.36751"
       style="fill:none;fill-rule:evenodd;stroke:#6c9eab;stroke-width:0.69999981;stroke-linecap:butt;stroke-linejoin:miter;stroke-miterlimit:4;stroke-dasharray:none;stroke-opacity:1" />
    <path
       id="use14151"
       d="M 314.24489,629.34466 L 366.26775,681.36751"
       style="fill:none;fill-rule:evenodd;stroke:#6c9eab;stroke-width:0.69999981;stroke-linecap:butt;stroke-linejoin:miter;stroke-miterlimit:4;stroke-dasharray:none;stroke-opacity:1" />
    <path
       id="use14153"
       d="M 319.20084,629.34466 L 371.2237,681.36751"
       style="fill:none;fill-rule:evenodd;stroke:#6c9eab;stroke-width:0.69999981;stroke-linecap:butt;stroke-linejoin:miter;stroke-miterlimit:4;stroke-dasharray:none;stroke-opacity:1" />
    <path
       id="use14155"
       d="M 324.15678,629.34466 L 376.17964,681.36751"
       style="fill:none;fill-rule:evenodd;stroke:#6c9eab;stroke-width:0.69999981;stroke-linecap:butt;stroke-linejoin:miter;stroke-miterlimit:4;stroke-dasharray:none;stroke-opacity:1" />
    <path
       id="use14157"
       d="M 329.11273,629.34466 L 381.13559,681.36751"
       style="fill:none;fill-rule:evenodd;stroke:#6c9eab;stroke-width:0.69999981;stroke-linecap:butt;stroke-linejoin:miter;stroke-miterlimit:4;stroke-dasharray:none;stroke-opacity:1" />
    <path
       id="use14159"
       d="M 334.06868,629.34466 L 386.09154,681.36751"
       style="fill:none;fill-rule:evenodd;stroke:#6c9eab;stroke-width:0.69999981;stroke-linecap:butt;stroke-linejoin:miter;stroke-miterlimit:4;stroke-dasharray:none;stroke-opacity:1" />
    <path
       id="use14161"
       d="M 339.02463,629.34466 L 391.04749,681.36751"
       style="fill:none;fill-rule:evenodd;stroke:#6c9eab;stroke-width:0.69999981;stroke-linecap:butt;stroke-linejoin:miter;stroke-miterlimit:4;stroke-dasharray:none;stroke-opacity:1" />
    <path
       id="use14163"
       d="M 343.98058,629.34466 L 396.00344,681.36751"
       style="fill:none;fill-rule:evenodd;stroke:#6c9eab;stroke-width:0.69999981;stroke-linecap:butt;stroke-linejoin:miter;stroke-miterlimit:4;stroke-dasharray:none;stroke-opacity:1" />
    <path
       id="use14165"
       d="M 348.93653,629.34466 L 400.95939,681.36751"
       style="fill:none;fill-rule:evenodd;stroke:#6c9eab;stroke-width:0.69999981;stroke-linecap:butt;stroke-linejoin:miter;stroke-miterlimit:4;stroke-dasharray:none;stroke-opacity:1" />
    <path
       id="use14167"
       d="M 353.89248,629.34466 L 405.91534,681.36751"
       style="fill:none;fill-rule:evenodd;stroke:#6c9eab;stroke-width:0.69999981;stroke-linecap:butt;stroke-linejoin:miter;stroke-miterlimit:4;stroke-dasharray:none;stroke-opacity:1" />
    <path
       id="use14169"
       d="M 358.84843,629.34466 L 410.87129,681.36751"
       style="fill:none;fill-rule:evenodd;stroke:#6c9eab;stroke-width:0.69999981;stroke-linecap:butt;stroke-linejoin:miter;stroke-miterlimit:4;stroke-dasharray:none;stroke-opacity:1" />
    <path
       id="use14171"
       d="M 363.80437,629.34466 L 415.82723,681.36751"
       style="fill:none;fill-rule:evenodd;stroke:#6c9eab;stroke-width:0.69999981;stroke-linecap:butt;stroke-linejoin:miter;stroke-miterlimit:4;stroke-dasharray:none;stroke-opacity:1" />
    <path
       id="use14173"
       d="M 368.76032,629.34466 L 420.78318,681.36751"
       style="fill:none;fill-rule:evenodd;stroke:#6c9eab;stroke-width:0.69999981;stroke-linecap:butt;stroke-linejoin:miter;stroke-miterlimit:4;stroke-dasharray:none;stroke-opacity:1" />
    <path
       id="use14175"
       d="M 373.71627,629.34466 L 425.73913,681.36751"
       style="fill:none;fill-rule:evenodd;stroke:#6c9eab;stroke-width:0.69999981;stroke-linecap:butt;stroke-linejoin:miter;stroke-miterlimit:4;stroke-dasharray:none;stroke-opacity:1" />
    <path
       id="use14177"
       d="M 378.67222,629.34466 L 430.69508,681.36751"
       style="fill:none;fill-rule:evenodd;stroke:#6c9eab;stroke-width:0.69999981;stroke-linecap:butt;stroke-linejoin:miter;stroke-miterlimit:4;stroke-dasharray:none;stroke-opacity:1" />
    <path
       id="use14179"
       d="M 383.62817,629.34466 L 435.65103,681.36751"
       style="fill:none;fill-rule:evenodd;stroke:#6c9eab;stroke-width:0.69999981;stroke-linecap:butt;stroke-linejoin:miter;stroke-miterlimit:4;stroke-dasharray:none;stroke-opacity:1" />
    <path
       id="use14181"
       d="M 388.58412,629.34466 L 440.60698,681.36751"
       style="fill:none;fill-rule:evenodd;stroke:#6c9eab;stroke-width:0.69999981;stroke-linecap:butt;stroke-linejoin:miter;stroke-miterlimit:4;stroke-dasharray:none;stroke-opacity:1" />
    <path
       id="use14183"
       d="M 393.54007,629.34466 L 445.56293,681.36751"
       style="fill:none;fill-rule:evenodd;stroke:#6c9eab;stroke-width:0.69999981;stroke-linecap:butt;stroke-linejoin:miter;stroke-miterlimit:4;stroke-dasharray:none;stroke-opacity:1" />
    <path
       id="use14185"
       d="M 398.49602,629.34466 L 450.51888,681.36751"
       style="fill:none;fill-rule:evenodd;stroke:#6c9eab;stroke-width:0.69999981;stroke-linecap:butt;stroke-linejoin:miter;stroke-miterlimit:4;stroke-dasharray:none;stroke-opacity:1" />
    <path
       id="use14187"
       d="M 403.45197,629.34466 L 455.47483,681.36751"
       style="fill:none;fill-rule:evenodd;stroke:#6c9eab;stroke-width:0.69999981;stroke-linecap:butt;stroke-linejoin:miter;stroke-miterlimit:4;stroke-dasharray:none;stroke-opacity:1" />
    <path
       id="use14189"
       d="M 408.40791,629.34466 L 460.43077,681.36751"
       style="fill:none;fill-rule:evenodd;stroke:#6c9eab;stroke-width:0.69999981;stroke-linecap:butt;stroke-linejoin:miter;stroke-miterlimit:4;stroke-dasharray:none;stroke-opacity:1" />
    <path
       id="use14191"
       d="M 413.36386,629.34466 L 465.38672,681.36751"
       style="fill:none;fill-rule:evenodd;stroke:#6c9eab;stroke-width:0.69999981;stroke-linecap:butt;stroke-linejoin:miter;stroke-miterlimit:4;stroke-dasharray:none;stroke-opacity:1" />
    <path
       id="use14193"
       d="M 418.31981,629.34466 L 470.34267,681.36751"
       style="fill:none;fill-rule:evenodd;stroke:#6c9eab;stroke-width:0.69999981;stroke-linecap:butt;stroke-linejoin:miter;stroke-miterlimit:4;stroke-dasharray:none;stroke-opacity:1" />
    <path
       id="use14195"
       d="M 423.27576,629.34466 L 475.29862,681.36751"
       style="fill:none;fill-rule:evenodd;stroke:#6c9eab;stroke-width:0.69999981;stroke-linecap:butt;stroke-linejoin:miter;stroke-miterlimit:4;stroke-dasharray:none;stroke-opacity:1" />
    <path
       id="use14197"
       d="M 428.23171,629.34466 L 480.25457,681.36751"
       style="fill:none;fill-rule:evenodd;stroke:#6c9eab;stroke-width:0.69999981;stroke-linecap:butt;stroke-linejoin:miter;stroke-miterlimit:4;stroke-dasharray:none;stroke-opacity:1" />
    <path
       id="use14199"
       d="M 433.18766,629.34466 L 485.21052,681.36751"
       style="fill:none;fill-rule:evenodd;stroke:#6c9eab;stroke-width:0.69999981;stroke-linecap:butt;stroke-linejoin:miter;stroke-miterlimit:4;stroke-dasharray:none;stroke-opacity:1" />
    <path
       id="use14201"
       d="M 438.14361,629.34466 L 490.16647,681.36751"
       style="fill:none;fill-rule:evenodd;stroke:#6c9eab;stroke-width:0.69999981;stroke-linecap:butt;stroke-linejoin:miter;stroke-miterlimit:4;stroke-dasharray:none;stroke-opacity:1" />
    <path
       id="use14203"
       d="M 443.09954,629.34463 L 492.404,678.64908"
       style="fill:none;fill-rule:evenodd;stroke:#6c9eab;stroke-width:0.69999981;stroke-linecap:butt;stroke-linejoin:miter;stroke-miterlimit:4;stroke-dasharray:none;stroke-opacity:1" />
    <path
       id="use14205"
       d="M 448.05551,629.34468 L 495.46891,676.75807"
       style="fill:none;fill-rule:evenodd;stroke:#6c9eab;stroke-width:0.69999981;stroke-linecap:butt;stroke-linejoin:miter;stroke-miterlimit:4;stroke-dasharray:none;stroke-opacity:1" />
    <path
       id="use14207"
       d="M 453.01147,629.34469 L 498.06104,674.39425"
       style="fill:none;fill-rule:evenodd;stroke:#6c9eab;stroke-width:0.69999987;stroke-linecap:butt;stroke-linejoin:miter;stroke-miterlimit:4;stroke-dasharray:none;stroke-opacity:1" />
    <path
       id="use14209"
       d="M 457.96741,629.34467 L 502.18964,673.5669"
       style="fill:none;fill-rule:evenodd;stroke:#6c9eab;stroke-width:0.69999981;stroke-linecap:butt;stroke-linejoin:miter;stroke-miterlimit:4;stroke-dasharray:none;stroke-opacity:1" />
    <path
       id="use14211"
       d="M 462.92335,629.34466 L 504.07261,670.49391"
       style="fill:none;fill-rule:evenodd;stroke:#6c9eab;stroke-width:0.69999981;stroke-linecap:butt;stroke-linejoin:miter;stroke-miterlimit:4;stroke-dasharray:none;stroke-opacity:1" />
    <path
       id="use14213"
       d="M 467.8793,629.34467 L 505.71921,667.18456"
       style="fill:none;fill-rule:evenodd;stroke:#6c9eab;stroke-width:0.69999981;stroke-linecap:butt;stroke-linejoin:miter;stroke-miterlimit:4;stroke-dasharray:none;stroke-opacity:1" />
    <path
       id="use14215"
       d="M 472.83527,629.34468 L 507.01124,663.52065"
       style="fill:none;fill-rule:evenodd;stroke:#6c9eab;stroke-width:0.69999987;stroke-linecap:butt;stroke-linejoin:miter;stroke-miterlimit:4;stroke-dasharray:none;stroke-opacity:1" />
    <path
       id="use14217"
       d="M 477.79119,629.34464 L 508.53961,660.09305"
       style="fill:none;fill-rule:evenodd;stroke:#6c9eab;stroke-width:0.69999975;stroke-linecap:butt;stroke-linejoin:miter;stroke-miterlimit:4;stroke-dasharray:none;stroke-opacity:1" />
    <path
       id="use14219"
       d="M 482.74713,629.34464 L 510.1862,656.7837"
       style="fill:none;fill-rule:evenodd;stroke:#6c9eab;stroke-width:0.69999975;stroke-linecap:butt;stroke-linejoin:miter;stroke-miterlimit:4;stroke-dasharray:none;stroke-opacity:1" />
    <path
       id="use14221"
       d="M 487.70311,629.34468 L 510.17815,651.81971"
       style="fill:none;fill-rule:evenodd;stroke:#6c9eab;stroke-width:0.69999981;stroke-linecap:butt;stroke-linejoin:miter;stroke-miterlimit:4;stroke-dasharray:none;stroke-opacity:1" />
    <path
       id="use14223"
       d="M 492.65904,629.34467 L 509.81547,646.50109"
       style="fill:none;fill-rule:evenodd;stroke:#6c9eab;stroke-width:0.69999987;stroke-linecap:butt;stroke-linejoin:miter;stroke-miterlimit:4;stroke-dasharray:none;stroke-opacity:1" />
    <path
       id="use14225"
       d="M 497.61501,629.34469 L 508.50729,640.23696"
       style="fill:none;fill-rule:evenodd;stroke:#6c9eab;stroke-width:0.69999993;stroke-linecap:butt;stroke-linejoin:miter;stroke-miterlimit:4;stroke-dasharray:none;stroke-opacity:1" />
    <path
       id="use14227"
       d="M 502.57094,629.34467 L 508.85377,635.62749"
       style="fill:none;fill-rule:evenodd;stroke:#6c9eab;stroke-width:0.69999987;stroke-linecap:butt;stroke-linejoin:miter;stroke-miterlimit:4;stroke-dasharray:none;stroke-opacity:1" />
    <path
       style="fill:none;fill-opacity:1;stroke:#ffffff;stroke-width:10.00000095;stroke-linejoin:miter;stroke-miterlimit:4;stroke-dasharray:none;stroke-opacity:1"
       d="M 293.67747,436.54916 L 509.35257,436.54916 L 509.23001,652.03395 C 509.23001,668.16379 496.27484,681.14919 480.18254,681.14919 L 264.67458,681.14919 L 264.63,465.66439 C 264.63,449.53456 277.58518,436.54916 293.67747,436.54916 z "
       id="rect6047"
       sodipodi:nodetypes="ccccccc" />
    <path
       sodipodi:nodetypes="ccccc"
       id="path3262"
       d="M 361.21684,552.09114 C 356.66924,542.96999 357.14288,538.16973 361.16076,530.57193 L 345.91776,518.38495 C 340.73409,527.1895 334.53786,541.3411 345.28431,561.58673 L 361.21684,552.09114 z"
       style="fill:#262729;fill-opacity:1;fill-rule:evenodd;stroke:#262729;stroke-width:1.50000000000000000;stroke-linecap:butt;stroke-linejoin:round;stroke-miterlimit:4;stroke-dasharray:none;stroke-opacity:1" />
    <path
       sodipodi:nodetypes="ccccc"
       id="path3266"
       d="M 390.88248,565.66288 C 383.01557,566.34124 374.31648,562.00657 366.7335,557.84716 L 353.16072,571.19777 C 368.74672,582.277 383.89845,587.48866 398.28005,582.2953 L 390.88248,565.66288 z"
       style="fill:#262729;fill-opacity:1;fill-rule:evenodd;stroke:#262729;stroke-width:1.50000000000000000;stroke-linecap:butt;stroke-linejoin:round;stroke-miterlimit:4;stroke-dasharray:none;stroke-opacity:1" />
    <path
       sodipodi:nodetypes="ccccccccccccccccccccccc"
       id="path3258"
       d="M 315.94809,561.75286 C 329.69599,564.29494 340.70982,572.16976 346.20506,582.85001 L 365.70663,582.9682 L 371.02523,579.71794 C 371.50746,578.61245 371.11791,577.72491 371.02523,576.76315 C 368.98953,573.46902 367.3971,573.0561 365.64753,571.62183 L 359.67887,576.054 L 355.66037,572.44917 L 363.3428,565.41679 C 362.08376,561.64063 360.60933,562.17243 359.2061,561.28009 L 350.57878,566.26108 L 346.34465,562.02694 L 352.11463,555.25234 C 351.6706,553.05665 350.48277,551.50559 347.68245,551.35202 L 340.53188,558.32531 L 335.21327,555.13414 L 340.2955,546.97894 L 333.38131,543.61049 L 327.70812,552.65213 L 321.79856,550.93835 L 324.33967,542.01491 L 315.94809,540.00566 L 315.94809,561.75286 z"
       style="fill:#ffffff;fill-opacity:1;fill-rule:evenodd;stroke:#262729;stroke-width:2.5;stroke-linecap:round;stroke-linejoin:round;stroke-miterlimit:4;stroke-dasharray:none;stroke-opacity:1" />
    <path
       style="fill:#262729;fill-opacity:1;fill-rule:evenodd;stroke:#262729;stroke-width:1.50000000000000000;stroke-linecap:butt;stroke-linejoin:round;stroke-miterlimit:4;stroke-dasharray:none;stroke-opacity:1"
       d="M 416.10417,545.34266 C 414.31487,555.37632 407.33382,560.36185 399.57748,564.06443 L 409.02124,581.52538 C 418.43303,577.54939 433.05329,568.623 436.50117,545.96282 L 416.10417,545.34266 z"
       id="path3264"
       sodipodi:nodetypes="ccccc" />
    <path
       style="fill:#ffffff;fill-rule:evenodd;stroke:#262729;stroke-width:2.5;stroke-linecap:round;stroke-linejoin:round;stroke-opacity:1;fill-opacity:1;stroke-miterlimit:4;stroke-dasharray:none"
       d="M 200.51154,129.73093 C 186.76364,132.27301 175.74981,140.14783 170.25457,150.82808 L 150.753,150.94627 L 145.4344,147.69601 C 144.95217,146.59052 145.34172,145.70298 145.4344,144.74122 C 147.4701,141.44709 149.06253,141.03417 150.8121,139.5999 L 156.78076,144.03207 L 160.79926,140.42724 L 153.11683,133.39486 C 154.37587,129.6187 155.8503,130.1505 157.25353,129.25816 L 165.88085,134.23915 L 170.11498,130.00501 L 164.345,123.23041 C 164.78903,121.03472 165.97686,119.48366 168.77718,119.33009 L 175.92775,126.30338 L 181.24636,123.11221 L 176.16413,114.95701 L 183.07832,111.58856 L 188.75151,120.6302 L 194.66107,118.91642 L 192.11996,109.99298 L 200.51154,107.98373 L 200.51154,129.73093 z"
       id="path3246"
       transform="translate(259.63,431.54916)"
       sodipodi:nodetypes="ccccccccccccccccccccccc" />
    <rect
       style="opacity:1;fill:none;fill-opacity:1;fill-rule:nonzero;stroke:#ffffff;stroke-width:11.50699999999999967;stroke-linecap:butt;stroke-linejoin:round;stroke-miterlimit:4.30000019000000044;stroke-dasharray:none;stroke-dashoffset:0;stroke-opacity:1"
       id="rect2474"
       width="155.32402"
       height="117.50279"
       x="310.20554"
       y="470.32156" />
    <path
       style="fill:#262729;fill-opacity:1;fill-rule:evenodd;stroke:#262729;stroke-width:1.50000000000000000;stroke-linecap:butt;stroke-linejoin:round;stroke-miterlimit:4;stroke-dasharray:none;stroke-opacity:1"
       d="M 366.35674,523.51797 C 372.34522,517.23442 382.74622,514.47706 391.88606,516.07191 L 394.55059,498.85654 C 375.5207,496.9761 362.78925,500.64219 352.88294,512.28979 L 366.35674,523.51797 z"
       id="path3260"
       sodipodi:nodetypes="ccccc" />
    <path
       sodipodi:nodetypes="ccccc"
       id="path3268"
       d="M 401.75011,518.49904 C 409.77001,521.8196 415.1187,530.92157 416.92604,540.02178 L 437.37605,537.96769 C 432.26968,519.53951 418.01496,504.78025 403.5793,499.73908 L 401.75011,518.49904 z"
       style="fill:#262729;fill-opacity:1;fill-rule:evenodd;stroke:#262729;stroke-width:1.50000000000000000;stroke-linecap:butt;stroke-linejoin:round;stroke-miterlimit:4;stroke-dasharray:none;stroke-opacity:1" />
    <path
       sodipodi:type="arc"
       style="opacity:1;fill:#ffffff;fill-opacity:1;fill-rule:nonzero;stroke:none;stroke-width:0.5;stroke-linecap:round;stroke-linejoin:round;stroke-miterlimit:4;stroke-dasharray:none;stroke-dashoffset:0;stroke-opacity:1"
       id="path3272"
       sodipodi:cx="3.4275477"
       sodipodi:cy="104.14251"
       sodipodi:rx="25.174747"
       sodipodi:ry="23.992834"
       d="M 28.602295,104.14251 A 25.174747,23.992834 0 1 1 -21.7472,104.14251 A 25.174747,23.992834 0 1 1 28.602295,104.14251 z"
       transform="matrix(1.1032864,0,0,1.1133005,383.61323,424.59561)" />
    <path
       sodipodi:type="arc"
       style="opacity:1;fill:#262729;fill-opacity:1;fill-rule:nonzero;stroke:#262729;stroke-width:0.5;stroke-linecap:round;stroke-linejoin:round;stroke-miterlimit:4;stroke-dasharray:none;stroke-dashoffset:0;stroke-opacity:1"
       id="path3270"
       sodipodi:cx="-18.20146"
       sodipodi:cy="105.91538"
       sodipodi:rx="7.3278608"
       sodipodi:ry="7.5642433"
       d="M -10.873599,105.91538 A 7.3278608,7.5642433 0 1 1 -25.529321,105.91538 A 7.3278608,7.5642433 0 1 1 -10.873599,105.91538 z"
       transform="translate(405.47806,433.91299)" />
  </g>
</svg>
