<?xml version="1.0" encoding="UTF-8" standalone="no"?>
<!-- Created with Inkscape (http://www.inkscape.org/) -->
<svg
   xmlns:dc="http://purl.org/dc/elements/1.1/"
   xmlns:cc="http://web.resource.org/cc/"
   xmlns:rdf="http://www.w3.org/1999/02/22-rdf-syntax-ns#"
   xmlns:svg="http://www.w3.org/2000/svg"
   xmlns="http://www.w3.org/2000/svg"
   xmlns:xlink="http://www.w3.org/1999/xlink"
   xmlns:sodipodi="http://sodipodi.sourceforge.net/DTD/sodipodi-0.dtd"
   xmlns:inkscape="http://www.inkscape.org/namespaces/inkscape"
   version="1.0"
   width="378"
   height="450"
   id="svg2"
   sodipodi:version="0.32"
   inkscape:version="0.45.1"
   sodipodi:docname="gnome-session-halt.svg"
   inkscape:output_extension="org.inkscape.output.svg.inkscape"
   sodipodi:docbase="/home/leto-ii/.cairo-dock/themes/TapisVert/launchers">
  <metadata
     id="metadata11">
    <rdf:RDF>
      <cc:Work
         rdf:about="">
        <dc:format>image/svg+xml</dc:format>
        <dc:type
           rdf:resource="http://purl.org/dc/dcmitype/StillImage" />
      </cc:Work>
    </rdf:RDF>
  </metadata>
  <sodipodi:namedview
     inkscape:window-height="925"
     inkscape:window-width="1280"
     inkscape:pageshadow="2"
     inkscape:pageopacity="0.0"
     guidetolerance="10.0"
     gridtolerance="10.0"
     objecttolerance="10.0"
     borderopacity="1.0"
     bordercolor="#666666"
     pagecolor="#ffffff"
     id="base"
     inkscape:zoom="1.4882813"
     inkscape:cx="19.698814"
     inkscape:cy="215.36396"
     inkscape:window-x="0"
     inkscape:window-y="47"
     inkscape:current-layer="svg2"
     width="378px"
     height="450px"
     showgrid="true" />
  <defs
     id="defs5">
    <linearGradient
       id="linearGradient10110">
      <stop
         style="stop-color:#ffffff;stop-opacity:0.67346936;"
         offset="0"
         id="stop10112" />
      <stop
         style="stop-color:#ffffff;stop-opacity:0.84693879;"
         offset="1"
         id="stop10114" />
    </linearGradient>
    <linearGradient
       inkscape:collect="always"
       xlink:href="#linearGradient10110"
       id="linearGradient4094"
       gradientUnits="userSpaceOnUse"
       gradientTransform="matrix(0.9424525,0,0,1.0015861,16.679129,-4.4660155)"
       x1="50"
       y1="225.1693"
       x2="323.83466"
       y2="225.1693" />
    <linearGradient
       id="linearGradient2165">
      <stop
         id="stop2167"
         offset="0"
         style="stop-color:#4d4d4d;stop-opacity:1" />
      <stop
         style="stop-color:#9c9c9c;stop-opacity:0.96938777;"
         offset="0.15000001"
         id="stop2171" />
      <stop
         id="stop2173"
         offset="0.37594745"
         style="stop-color:#ffffff;stop-opacity:1;" />
      <stop
         style="stop-color:#acacac;stop-opacity:1;"
         offset="0.70074689"
         id="stop2175" />
      <stop
         id="stop2179"
         offset="0.92919499"
         style="stop-color:#414141;stop-opacity:1;" />
      <stop
         id="stop2177"
         offset="0.9929195"
         style="stop-color:#cccccc;stop-opacity:1;" />
      <stop
         id="stop2169"
         offset="1"
         style="stop-color:#ececec;stop-opacity:1;" />
    </linearGradient>
    <linearGradient
       id="linearGradient2185">
      <stop
         style="stop-color:#cc0000;stop-opacity:0.64444447;"
         offset="0"
         id="stop2187" />
      <stop
         style="stop-color:#f20000;stop-opacity:0.73333335;"
         offset="1"
         id="stop2189" />
    </linearGradient>
    <linearGradient
       x1="79.286087"
       y1="103.81102"
       x2="56.440948"
       y2="26.727036"
       id="linearGradient2191"
       xlink:href="#linearGradient2185"
       gradientUnits="userSpaceOnUse"
       gradientTransform="translate(4.0314958,-3.0236222)" />
    <linearGradient
       inkscape:collect="always"
       xlink:href="#linearGradient2165"
       id="linearGradient2163"
       x1="99.107613"
       y1="94.404198"
       x2="26.540682"
       y2="17.133858"
       gradientUnits="userSpaceOnUse" />
    <linearGradient
       inkscape:collect="always"
       xlink:href="#linearGradient2185"
       id="linearGradient9520"
       gradientUnits="userSpaceOnUse"
       x1="25.196846"
       y1="67.527557"
       x2="104.14698"
       y2="67.527557" />
    <linearGradient
       inkscape:collect="always"
       xlink:href="#linearGradient2165"
       id="linearGradient9522"
       gradientUnits="userSpaceOnUse"
       x1="99.107613"
       y1="94.404198"
       x2="26.540682"
       y2="17.133858" />
    <linearGradient
       inkscape:collect="always"
       xlink:href="#linearGradient2165"
       id="linearGradient9524"
       gradientUnits="userSpaceOnUse"
       x1="99.107613"
       y1="94.404198"
       x2="26.540682"
       y2="17.133858" />
    <linearGradient
       inkscape:collect="always"
       xlink:href="#linearGradient2185"
       id="linearGradient9536"
       gradientUnits="userSpaceOnUse"
       x1="25.196846"
       y1="67.527557"
       x2="104.14698"
       y2="67.527557" />
    <linearGradient
       inkscape:collect="always"
       xlink:href="#linearGradient2165"
       id="linearGradient9538"
       gradientUnits="userSpaceOnUse"
       x1="99.107613"
       y1="94.404198"
       x2="26.540682"
       y2="17.133858" />
    <linearGradient
       inkscape:collect="always"
       xlink:href="#linearGradient2165"
       id="linearGradient9540"
       gradientUnits="userSpaceOnUse"
       x1="99.107613"
       y1="94.404198"
       x2="26.540682"
       y2="17.133858" />
    <linearGradient
       inkscape:collect="always"
       xlink:href="#linearGradient2185"
       id="linearGradient9558"
       gradientUnits="userSpaceOnUse"
       x1="25.196846"
       y1="67.527557"
       x2="104.14698"
       y2="67.527557" />
    <linearGradient
       inkscape:collect="always"
       xlink:href="#linearGradient2165"
       id="linearGradient9560"
       gradientUnits="userSpaceOnUse"
       x1="99.107613"
       y1="94.404198"
       x2="26.540682"
       y2="17.133858" />
    <linearGradient
       inkscape:collect="always"
       xlink:href="#linearGradient2165"
       id="linearGradient9562"
       gradientUnits="userSpaceOnUse"
       x1="99.107613"
       y1="94.404198"
       x2="26.540682"
       y2="17.133858" />
    <linearGradient
       inkscape:collect="always"
       xlink:href="#linearGradient2185"
       id="linearGradient9564"
       gradientUnits="userSpaceOnUse"
       x1="25.196846"
       y1="67.527557"
       x2="104.14698"
       y2="67.527557" />
    <linearGradient
       inkscape:collect="always"
       xlink:href="#linearGradient2165"
       id="linearGradient9566"
       gradientUnits="userSpaceOnUse"
       x1="99.107613"
       y1="94.404198"
       x2="26.540682"
       y2="17.133858" />
    <linearGradient
       inkscape:collect="always"
       xlink:href="#linearGradient2165"
       id="linearGradient9568"
       gradientUnits="userSpaceOnUse"
       x1="99.107613"
       y1="94.404198"
       x2="26.540682"
       y2="17.133858" />
    <linearGradient
       inkscape:collect="always"
       xlink:href="#linearGradient2185"
       id="linearGradient9578"
       gradientUnits="userSpaceOnUse"
       x1="25.196846"
       y1="67.527557"
       x2="104.14698"
       y2="67.527557" />
    <linearGradient
       inkscape:collect="always"
       xlink:href="#linearGradient2165"
       id="linearGradient9580"
       gradientUnits="userSpaceOnUse"
       x1="99.107613"
       y1="94.404198"
       x2="26.540682"
       y2="17.133858" />
    <linearGradient
       inkscape:collect="always"
       xlink:href="#linearGradient2165"
       id="linearGradient9582"
       gradientUnits="userSpaceOnUse"
       x1="99.107613"
       y1="94.404198"
       x2="26.540682"
       y2="17.133858" />
  </defs>
  <rect
     ry="0.88059312"
     rx="1.7443415"
     y="16.405598"
     x="64.273033"
     height="409.30954"
     width="257.13373"
     id="rect7058"
     style="fill:url(#linearGradient4094);fill-opacity:1;fill-rule:nonzero;stroke:#000000;stroke-width:0.97156942;stroke-linecap:round;stroke-linejoin:round;stroke-miterlimit:4;stroke-dasharray:none;stroke-dashoffset:1.5;stroke-opacity:1" />
  <g
     id="g9526"
     transform="matrix(-1,0,0,1,162.98498,0)">
    <path
       transform="matrix(0.4235246,0,0,0.5646373,54.460322,-5.3331879)"
       d="M 104.14698 67.527557 A 39.475067 30.236221 0 1 1  25.196846,67.527557 A 39.475067 30.236221 0 1 1  104.14698 67.527557 z"
       sodipodi:ry="30.236221"
       sodipodi:rx="39.475067"
       sodipodi:cy="67.527557"
       sodipodi:cx="64.671913"
       id="path2181"
       style="opacity:0.98999999;fill:url(#linearGradient9536);fill-opacity:1;fill-rule:nonzero;stroke:none;stroke-width:1.10000002;stroke-linecap:round;stroke-linejoin:round;stroke-miterlimit:4;stroke-dasharray:none;stroke-dashoffset:1.5;stroke-opacity:1"
       sodipodi:type="arc" />
    <g
       style="fill:url(#linearGradient9538);fill-opacity:1"
       id="g2161"
       transform="matrix(0.5266047,0,0,0.5266047,45.14018,0.8618568)">
      <path
         id="path2173"
         style="fill:url(#linearGradient9540);fill-opacity:1"
         d="M 24.031496,59.304462 L 24.031496,15.304462 L 69.031496,15.304462 L 114.0315,15.304462 L 114.0315,59.304462 L 114.0315,103.30447 L 69.031496,103.30447 L 24.031496,103.30447 L 24.031496,59.304462 z M 111.54054,100.05447 C 111.84147,98.816968 111.96254,79.579462 111.80959,57.304462 L 111.5315,16.804462 L 69.031496,16.804462 L 26.531496,16.804462 L 26.253406,57.304462 C 26.100456,79.579462 26.221529,98.816968 26.522458,100.05447 L 27.0696,102.30447 L 69.031496,102.30447 L 110.9934,102.30447 L 111.54054,100.05447 z M 28.031496,59.304462 L 28.031496,18.304462 L 69.031496,18.304462 L 110.0315,18.304462 L 110.0315,59.304462 L 110.0315,100.30447 L 69.031496,100.30447 L 28.031496,100.30447 L 28.031496,59.304462 z M 81.531496,87.830468 C 91.978055,83.126159 98.23509,73.626196 98.871817,61.502919 C 99.217825,54.914934 98.94708,53.57529 96.1014,47.794893 C 88.920486,33.208386 73.323628,26.8559 58.400198,32.439471 C 46.636948,36.840667 39.839052,46.418321 39.20084,59.489724 C 38.88114,66.037575 39.191572,67.97436 41.298366,72.576206 C 48.492173,88.289548 65.875881,94.880528 81.531496,87.830468 z M 62.916567,79.977604 C 53.270513,76.389694 48.50842,69.212667 49.222602,59.339209 C 50.030164,48.174771 57.820478,40.951949 69.136874,40.875609 C 76.545629,40.82563 83.32073,44.829991 86.78177,51.304462 C 90.107326,57.525485 89.658111,66.349755 85.727098,72.022209 C 80.719473,79.248213 70.519487,82.805558 62.916567,79.977604 z M 73.813231,60.554462 L 73.531496,48.804462 L 69.031496,48.804462 L 64.531496,48.804462 L 64.249761,60.554462 L 63.968025,72.304462 L 69.031496,72.304462 L 74.094967,72.304462 L 73.813231,60.554462 z " />
    </g>
  </g>
  <g
     id="g9531">
    <path
       transform="matrix(0.4235246,0,0,0.5646373,276.67387,-4.6848977)"
       d="M 104.14698 67.527557 A 39.475067 30.236221 0 1 1  25.196846,67.527557 A 39.475067 30.236221 0 1 1  104.14698 67.527557 z"
       sodipodi:ry="30.236221"
       sodipodi:rx="39.475067"
       sodipodi:cy="67.527557"
       sodipodi:cx="64.671913"
       id="path9514"
       style="opacity:0.98999999;fill:url(#linearGradient9520);fill-opacity:1;fill-rule:nonzero;stroke:none;stroke-width:1.10000002;stroke-linecap:round;stroke-linejoin:round;stroke-miterlimit:4;stroke-dasharray:none;stroke-dashoffset:1.5;stroke-opacity:1"
       sodipodi:type="arc" />
    <g
       style="fill:url(#linearGradient9522);fill-opacity:1"
       id="g9516"
       transform="matrix(0.5266047,0,0,0.5266047,267.35373,1.5101468)">
      <path
         id="path9518"
         style="fill:url(#linearGradient9524);fill-opacity:1"
         d="M 24.031496,59.304462 L 24.031496,15.304462 L 69.031496,15.304462 L 114.0315,15.304462 L 114.0315,59.304462 L 114.0315,103.30447 L 69.031496,103.30447 L 24.031496,103.30447 L 24.031496,59.304462 z M 111.54054,100.05447 C 111.84147,98.816968 111.96254,79.579462 111.80959,57.304462 L 111.5315,16.804462 L 69.031496,16.804462 L 26.531496,16.804462 L 26.253406,57.304462 C 26.100456,79.579462 26.221529,98.816968 26.522458,100.05447 L 27.0696,102.30447 L 69.031496,102.30447 L 110.9934,102.30447 L 111.54054,100.05447 z M 28.031496,59.304462 L 28.031496,18.304462 L 69.031496,18.304462 L 110.0315,18.304462 L 110.0315,59.304462 L 110.0315,100.30447 L 69.031496,100.30447 L 28.031496,100.30447 L 28.031496,59.304462 z M 81.531496,87.830468 C 91.978055,83.126159 98.23509,73.626196 98.871817,61.502919 C 99.217825,54.914934 98.94708,53.57529 96.1014,47.794893 C 88.920486,33.208386 73.323628,26.8559 58.400198,32.439471 C 46.636948,36.840667 39.839052,46.418321 39.20084,59.489724 C 38.88114,66.037575 39.191572,67.97436 41.298366,72.576206 C 48.492173,88.289548 65.875881,94.880528 81.531496,87.830468 z M 62.916567,79.977604 C 53.270513,76.389694 48.50842,69.212667 49.222602,59.339209 C 50.030164,48.174771 57.820478,40.951949 69.136874,40.875609 C 76.545629,40.82563 83.32073,44.829991 86.78177,51.304462 C 90.107326,57.525485 89.658111,66.349755 85.727098,72.022209 C 80.719473,79.248213 70.519487,82.805558 62.916567,79.977604 z M 73.813231,60.554462 L 73.531496,48.804462 L 69.031496,48.804462 L 64.531496,48.804462 L 64.249761,60.554462 L 63.968025,72.304462 L 69.031496,72.304462 L 74.094967,72.304462 L 73.813231,60.554462 z " />
    </g>
  </g>
  <g
     id="g9542"
     transform="matrix(1,0,0,-1,222.45418,440.0853)">
    <path
       transform="matrix(0.4235246,0,0,0.5646373,54.460322,-5.3331879)"
       d="M 104.14698 67.527557 A 39.475067 30.236221 0 1 1  25.196846,67.527557 A 39.475067 30.236221 0 1 1  104.14698 67.527557 z"
       sodipodi:ry="30.236221"
       sodipodi:rx="39.475067"
       sodipodi:cy="67.527557"
       sodipodi:cx="64.671913"
       id="path9544"
       style="opacity:0.98999999;fill:url(#linearGradient9558);fill-opacity:1;fill-rule:nonzero;stroke:none;stroke-width:1.10000002;stroke-linecap:round;stroke-linejoin:round;stroke-miterlimit:4;stroke-dasharray:none;stroke-dashoffset:1.5;stroke-opacity:1"
       sodipodi:type="arc" />
    <g
       style="fill:url(#linearGradient9560);fill-opacity:1"
       id="g9546"
       transform="matrix(0.5266047,0,0,0.5266047,45.14018,0.8618568)">
      <path
         id="path9548"
         style="fill:url(#linearGradient9562);fill-opacity:1"
         d="M 24.031496,59.304462 L 24.031496,15.304462 L 69.031496,15.304462 L 114.0315,15.304462 L 114.0315,59.304462 L 114.0315,103.30447 L 69.031496,103.30447 L 24.031496,103.30447 L 24.031496,59.304462 z M 111.54054,100.05447 C 111.84147,98.816968 111.96254,79.579462 111.80959,57.304462 L 111.5315,16.804462 L 69.031496,16.804462 L 26.531496,16.804462 L 26.253406,57.304462 C 26.100456,79.579462 26.221529,98.816968 26.522458,100.05447 L 27.0696,102.30447 L 69.031496,102.30447 L 110.9934,102.30447 L 111.54054,100.05447 z M 28.031496,59.304462 L 28.031496,18.304462 L 69.031496,18.304462 L 110.0315,18.304462 L 110.0315,59.304462 L 110.0315,100.30447 L 69.031496,100.30447 L 28.031496,100.30447 L 28.031496,59.304462 z M 81.531496,87.830468 C 91.978055,83.126159 98.23509,73.626196 98.871817,61.502919 C 99.217825,54.914934 98.94708,53.57529 96.1014,47.794893 C 88.920486,33.208386 73.323628,26.8559 58.400198,32.439471 C 46.636948,36.840667 39.839052,46.418321 39.20084,59.489724 C 38.88114,66.037575 39.191572,67.97436 41.298366,72.576206 C 48.492173,88.289548 65.875881,94.880528 81.531496,87.830468 z M 62.916567,79.977604 C 53.270513,76.389694 48.50842,69.212667 49.222602,59.339209 C 50.030164,48.174771 57.820478,40.951949 69.136874,40.875609 C 76.545629,40.82563 83.32073,44.829991 86.78177,51.304462 C 90.107326,57.525485 89.658111,66.349755 85.727098,72.022209 C 80.719473,79.248213 70.519487,82.805558 62.916567,79.977604 z M 73.813231,60.554462 L 73.531496,48.804462 L 69.031496,48.804462 L 64.531496,48.804462 L 64.249761,60.554462 L 63.968025,72.304462 L 69.031496,72.304462 L 74.094967,72.304462 L 73.813231,60.554462 z " />
    </g>
  </g>
  <g
     id="g9550"
     transform="matrix(-1,0,0,-1,385.43916,440.0853)">
    <path
       transform="matrix(0.4235246,0,0,0.5646373,276.67387,-4.6848977)"
       d="M 104.14698 67.527557 A 39.475067 30.236221 0 1 1  25.196846,67.527557 A 39.475067 30.236221 0 1 1  104.14698 67.527557 z"
       sodipodi:ry="30.236221"
       sodipodi:rx="39.475067"
       sodipodi:cy="67.527557"
       sodipodi:cx="64.671913"
       id="path9552"
       style="opacity:0.98999999;fill:url(#linearGradient9564);fill-opacity:1;fill-rule:nonzero;stroke:none;stroke-width:1.10000002;stroke-linecap:round;stroke-linejoin:round;stroke-miterlimit:4;stroke-dasharray:none;stroke-dashoffset:1.5;stroke-opacity:1"
       sodipodi:type="arc" />
    <g
       style="fill:url(#linearGradient9566);fill-opacity:1"
       id="g9554"
       transform="matrix(0.5266047,0,0,0.5266047,267.35373,1.5101468)">
      <path
         id="path9556"
         style="fill:url(#linearGradient9568);fill-opacity:1"
         d="M 24.031496,59.304462 L 24.031496,15.304462 L 69.031496,15.304462 L 114.0315,15.304462 L 114.0315,59.304462 L 114.0315,103.30447 L 69.031496,103.30447 L 24.031496,103.30447 L 24.031496,59.304462 z M 111.54054,100.05447 C 111.84147,98.816968 111.96254,79.579462 111.80959,57.304462 L 111.5315,16.804462 L 69.031496,16.804462 L 26.531496,16.804462 L 26.253406,57.304462 C 26.100456,79.579462 26.221529,98.816968 26.522458,100.05447 L 27.0696,102.30447 L 69.031496,102.30447 L 110.9934,102.30447 L 111.54054,100.05447 z M 28.031496,59.304462 L 28.031496,18.304462 L 69.031496,18.304462 L 110.0315,18.304462 L 110.0315,59.304462 L 110.0315,100.30447 L 69.031496,100.30447 L 28.031496,100.30447 L 28.031496,59.304462 z M 81.531496,87.830468 C 91.978055,83.126159 98.23509,73.626196 98.871817,61.502919 C 99.217825,54.914934 98.94708,53.57529 96.1014,47.794893 C 88.920486,33.208386 73.323628,26.8559 58.400198,32.439471 C 46.636948,36.840667 39.839052,46.418321 39.20084,59.489724 C 38.88114,66.037575 39.191572,67.97436 41.298366,72.576206 C 48.492173,88.289548 65.875881,94.880528 81.531496,87.830468 z M 62.916567,79.977604 C 53.270513,76.389694 48.50842,69.212667 49.222602,59.339209 C 50.030164,48.174771 57.820478,40.951949 69.136874,40.875609 C 76.545629,40.82563 83.32073,44.829991 86.78177,51.304462 C 90.107326,57.525485 89.658111,66.349755 85.727098,72.022209 C 80.719473,79.248213 70.519487,82.805558 62.916567,79.977604 z M 73.813231,60.554462 L 73.531496,48.804462 L 69.031496,48.804462 L 64.531496,48.804462 L 64.249761,60.554462 L 63.968025,72.304462 L 69.031496,72.304462 L 74.094967,72.304462 L 73.813231,60.554462 z " />
    </g>
  </g>
  <g
     id="g9570"
     transform="matrix(-6.553128,0,0,4.5211263,729.3216,76.043821)">
    <path
       transform="matrix(0.4235246,0,0,0.5646373,54.460322,-5.3331879)"
       d="M 104.14698 67.527557 A 39.475067 30.236221 0 1 1  25.196846,67.527557 A 39.475067 30.236221 0 1 1  104.14698 67.527557 z"
       sodipodi:ry="30.236221"
       sodipodi:rx="39.475067"
       sodipodi:cy="67.527557"
       sodipodi:cx="64.671913"
       id="path9572"
       style="opacity:0.98999999;fill:url(#linearGradient9578);fill-opacity:1;fill-rule:nonzero;stroke:none;stroke-width:1.10000002;stroke-linecap:round;stroke-linejoin:round;stroke-miterlimit:4;stroke-dasharray:none;stroke-dashoffset:1.5;stroke-opacity:1"
       sodipodi:type="arc" />
    <g
       style="fill:url(#linearGradient9580);fill-opacity:1"
       id="g9574"
       transform="matrix(0.5266047,0,0,0.5266047,45.14018,0.8618568)">
      <path
         id="path9576"
         style="fill:url(#linearGradient9582);fill-opacity:1"
         d="M 24.031496,59.304462 L 24.031496,15.304462 L 69.031496,15.304462 L 114.0315,15.304462 L 114.0315,59.304462 L 114.0315,103.30447 L 69.031496,103.30447 L 24.031496,103.30447 L 24.031496,59.304462 z M 111.54054,100.05447 C 111.84147,98.816968 111.96254,79.579462 111.80959,57.304462 L 111.5315,16.804462 L 69.031496,16.804462 L 26.531496,16.804462 L 26.253406,57.304462 C 26.100456,79.579462 26.221529,98.816968 26.522458,100.05447 L 27.0696,102.30447 L 69.031496,102.30447 L 110.9934,102.30447 L 111.54054,100.05447 z M 28.031496,59.304462 L 28.031496,18.304462 L 69.031496,18.304462 L 110.0315,18.304462 L 110.0315,59.304462 L 110.0315,100.30447 L 69.031496,100.30447 L 28.031496,100.30447 L 28.031496,59.304462 z M 81.531496,87.830468 C 91.978055,83.126159 98.23509,73.626196 98.871817,61.502919 C 99.217825,54.914934 98.94708,53.57529 96.1014,47.794893 C 88.920486,33.208386 73.323628,26.8559 58.400198,32.439471 C 46.636948,36.840667 39.839052,46.418321 39.20084,59.489724 C 38.88114,66.037575 39.191572,67.97436 41.298366,72.576206 C 48.492173,88.289548 65.875881,94.880528 81.531496,87.830468 z M 62.916567,79.977604 C 53.270513,76.389694 48.50842,69.212667 49.222602,59.339209 C 50.030164,48.174771 57.820478,40.951949 69.136874,40.875609 C 76.545629,40.82563 83.32073,44.829991 86.78177,51.304462 C 90.107326,57.525485 89.658111,66.349755 85.727098,72.022209 C 80.719473,79.248213 70.519487,82.805558 62.916567,79.977604 z M 73.813231,60.554462 L 73.531496,48.804462 L 69.031496,48.804462 L 64.531496,48.804462 L 64.249761,60.554462 L 63.968025,72.304462 L 69.031496,72.304462 L 74.094967,72.304462 L 73.813231,60.554462 z " />
    </g>
  </g>
</svg>
