<?xml version="1.0" encoding="UTF-8" standalone="no"?>
<!-- Created with Inkscape (http://www.inkscape.org/) -->
<svg
   xmlns:dc="http://purl.org/dc/elements/1.1/"
   xmlns:cc="http://web.resource.org/cc/"
   xmlns:rdf="http://www.w3.org/1999/02/22-rdf-syntax-ns#"
   xmlns:svg="http://www.w3.org/2000/svg"
   xmlns="http://www.w3.org/2000/svg"
   xmlns:xlink="http://www.w3.org/1999/xlink"
   xmlns:sodipodi="http://sodipodi.sourceforge.net/DTD/sodipodi-0.dtd"
   xmlns:inkscape="http://www.inkscape.org/namespaces/inkscape"
   version="1.0"
   width="378"
   height="450"
   id="svg2"
   sodipodi:version="0.32"
   inkscape:version="0.45.1"
   sodipodi:docname="xchat2.svg"
   sodipodi:docbase="/home/leto-ii/.cairo-dock/themes/TapisVert/launchers"
   inkscape:output_extension="org.inkscape.output.svg.inkscape">
  <metadata
     id="metadata19">
    <rdf:RDF>
      <cc:Work
         rdf:about="">
        <dc:format>image/svg+xml</dc:format>
        <dc:type
           rdf:resource="http://purl.org/dc/dcmitype/StillImage" />
      </cc:Work>
    </rdf:RDF>
  </metadata>
  <sodipodi:namedview
     inkscape:window-height="925"
     inkscape:window-width="1280"
     inkscape:pageshadow="2"
     inkscape:pageopacity="0.0"
     guidetolerance="10.0"
     gridtolerance="10.0"
     objecttolerance="10.0"
     borderopacity="1.0"
     bordercolor="#666666"
     pagecolor="#ffffff"
     id="base"
     width="378px"
     height="450px"
     inkscape:zoom="1.1241893"
     inkscape:cx="191.17599"
     inkscape:cy="171.90684"
     inkscape:window-x="0"
     inkscape:window-y="47"
     inkscape:current-layer="svg2" />
  <defs
     id="defs4">
    <linearGradient
       id="linearGradient5404">
      <stop
         id="stop5406"
         offset="0"
         style="stop-color:#5d5e00;stop-opacity:1;" />
      <stop
         id="stop5408"
         offset="1"
         style="stop-color:#000000;stop-opacity:0;" />
    </linearGradient>
    <linearGradient
       id="linearGradient5390">
      <stop
         id="stop5392"
         offset="0"
         style="stop-color:#000000;stop-opacity:0.90370369;" />
      <stop
         id="stop5394"
         offset="1"
         style="stop-color:#000000;stop-opacity:0;" />
    </linearGradient>
    <linearGradient
       inkscape:collect="always"
       id="linearGradient3364">
      <stop
         style="stop-color:#000000;stop-opacity:1;"
         offset="0"
         id="stop3366" />
      <stop
         style="stop-color:#000000;stop-opacity:0;"
         offset="1"
         id="stop3368" />
    </linearGradient>
    <linearGradient
       id="linearGradient4119">
      <stop
         style="stop-color:#906d6e;stop-opacity:1"
         offset="0"
         id="stop4121" />
      <stop
         style="stop-color:#c5c5bd;stop-opacity:0.98039216"
         offset="1"
         id="stop4123" />
    </linearGradient>
    <linearGradient
       id="linearGradient3138">
      <stop
         style="stop-color:#ff141a;stop-opacity:1"
         offset="0"
         id="stop3140" />
      <stop
         style="stop-color:#fbff41;stop-opacity:1"
         offset="1"
         id="stop3142" />
    </linearGradient>
    <linearGradient
       x1="65.193283"
       y1="123.02965"
       x2="65.193283"
       y2="3.0714285"
       id="linearGradient3148"
       xlink:href="#linearGradient3138"
       gradientUnits="userSpaceOnUse"
       gradientTransform="matrix(0.8331331,0,0,0.8321308,-2.3503992,2.9444085)" />
    <linearGradient
       x1="25.856251"
       y1="64.015625"
       x2="108.05"
       y2="64.015625"
       id="linearGradient6082"
       xlink:href="#linearGradient4119"
       gradientUnits="userSpaceOnUse"
       gradientTransform="translate(10.69634,-5.5578535)" />
    <linearGradient
       gradientUnits="userSpaceOnUse"
       y2="63.86235"
       x2="147.45474"
       y1="63.86235"
       x1="54.377457"
       id="linearGradient6103"
       xlink:href="#linearGradient8144"
       inkscape:collect="always" />
    <linearGradient
       gradientUnits="userSpaceOnUse"
       y2="363.38739"
       x2="345.85681"
       y1="363.38739"
       x1="252.77954"
       id="linearGradient6101"
       xlink:href="#linearGradient8144"
       inkscape:collect="always" />
    <linearGradient
       gradientUnits="userSpaceOnUse"
       y2="254.04535"
       x2="250.95135"
       y1="254.74464"
       x1="111.60946"
       id="linearGradient3156"
       xlink:href="#linearGradient8144"
       inkscape:collect="always" />
    <linearGradient
       gradientTransform="matrix(0.9440256,0,0,1.0032578,13.747745,-1.1053612)"
       gradientUnits="userSpaceOnUse"
       y2="225.1693"
       x2="323.83466"
       y1="225.1693"
       x1="50"
       id="linearGradient10116"
       xlink:href="#linearGradient10110"
       inkscape:collect="always" />
    <linearGradient
       id="linearGradient3250">
      <stop
         id="stop3252"
         offset="0"
         style="stop-color:#ff1111;stop-opacity:1;" />
      <stop
         id="stop3254"
         offset="1"
         style="stop-color:#ff1111;stop-opacity:1;" />
    </linearGradient>
    <linearGradient
       id="linearGradient8144">
      <stop
         id="stop8146"
         offset="0"
         style="stop-color:#fffb2f;stop-opacity:1;" />
      <stop
         style="stop-color:#f9b51d;stop-opacity:1;"
         offset="0.5"
         id="stop8152" />
      <stop
         id="stop8148"
         offset="1"
         style="stop-color:#f46f0b;stop-opacity:1;" />
    </linearGradient>
    <linearGradient
       id="linearGradient10110">
      <stop
         id="stop10112"
         offset="0"
         style="stop-color:#ffffff;stop-opacity:0.67346936;" />
      <stop
         id="stop10114"
         offset="1"
         style="stop-color:#ffffff;stop-opacity:0.84693879;" />
    </linearGradient>
    <linearGradient
       id="linearGradient5118">
      <stop
         style="stop-color:#fffb2f;stop-opacity:1;"
         offset="0"
         id="stop5120" />
      <stop
         id="stop5122"
         offset="0.5"
         style="stop-color:#f9b51d;stop-opacity:1;" />
      <stop
         style="stop-color:#f46f0b;stop-opacity:1;"
         offset="1"
         id="stop5124" />
    </linearGradient>
    <linearGradient
       inkscape:collect="always"
       xlink:href="#linearGradient8144"
       id="linearGradient2377"
       gradientUnits="userSpaceOnUse"
       x1="111.60946"
       y1="254.74464"
       x2="250.95135"
       y2="254.04535" />
    <linearGradient
       inkscape:collect="always"
       xlink:href="#linearGradient8144"
       id="linearGradient2384"
       gradientUnits="userSpaceOnUse"
       x1="252.77954"
       y1="363.38739"
       x2="345.85681"
       y2="363.38739"
       gradientTransform="matrix(1.0193296,0,0,1.0193296,-0.3832385,-5.7963472)" />
    <linearGradient
       inkscape:collect="always"
       xlink:href="#linearGradient8144"
       id="linearGradient2388"
       gradientUnits="userSpaceOnUse"
       x1="54.377457"
       y1="63.86235"
       x2="147.45474"
       y2="63.86235"
       gradientTransform="matrix(1.0193296,0,0,1.0193296,-0.3832385,-5.7963472)" />
    <linearGradient
       inkscape:collect="always"
       xlink:href="#linearGradient10110"
       id="linearGradient2393"
       gradientUnits="userSpaceOnUse"
       gradientTransform="matrix(0.9622732,0,0,1.0226504,14.189282,-6.5329934)"
       x1="50"
       y1="225.1693"
       x2="323.83466"
       y2="225.1693" />
    <linearGradient
       inkscape:collect="always"
       xlink:href="#linearGradient3364"
       id="linearGradient3370"
       x1="186.24568"
       y1="383.3672"
       x2="357.20412"
       y2="383.3672"
       gradientUnits="userSpaceOnUse" />
    <linearGradient
       inkscape:collect="always"
       xlink:href="#linearGradient8144"
       id="linearGradient3372"
       gradientUnits="userSpaceOnUse"
       x1="111.60946"
       y1="254.74464"
       x2="250.95135"
       y2="254.04535" />
    <linearGradient
       inkscape:collect="always"
       xlink:href="#linearGradient3250"
       id="linearGradient4401"
       gradientUnits="userSpaceOnUse"
       gradientTransform="matrix(-0.4385839,0,0,-0.4380563,336.68392,439.34465)"
       x1="65.193283"
       y1="123.02965"
       x2="65.193283"
       y2="3.0714285" />
    <linearGradient
       inkscape:collect="always"
       xlink:href="#linearGradient5390"
       id="linearGradient5382"
       x1="269.64322"
       y1="409.65735"
       x2="322.61987"
       y2="409.65735"
       gradientUnits="userSpaceOnUse" />
    <linearGradient
       inkscape:collect="always"
       xlink:href="#linearGradient4119"
       id="linearGradient5402"
       x1="269.64322"
       y1="409.65735"
       x2="322.61987"
       y2="409.65735"
       gradientUnits="userSpaceOnUse" />
    <linearGradient
       inkscape:collect="always"
       xlink:href="#linearGradient3250"
       id="linearGradient6385"
       x1="272.9353"
       y1="410.12091"
       x2="316.20432"
       y2="410.12091"
       gradientUnits="userSpaceOnUse" />
    <linearGradient
       inkscape:collect="always"
       xlink:href="#linearGradient4119"
       id="linearGradient8344"
       gradientUnits="userSpaceOnUse"
       x1="269.64322"
       y1="409.65735"
       x2="322.61987"
       y2="409.65735" />
    <linearGradient
       inkscape:collect="always"
       xlink:href="#linearGradient5390"
       id="linearGradient8346"
       gradientUnits="userSpaceOnUse"
       x1="269.64322"
       y1="409.65735"
       x2="322.61987"
       y2="409.65735" />
    <linearGradient
       inkscape:collect="always"
       xlink:href="#linearGradient3250"
       id="linearGradient8348"
       gradientUnits="userSpaceOnUse"
       x1="272.9353"
       y1="410.12091"
       x2="316.20432"
       y2="410.12091" />
    <linearGradient
       inkscape:collect="always"
       xlink:href="#linearGradient3250"
       id="linearGradient8350"
       gradientUnits="userSpaceOnUse"
       gradientTransform="matrix(-0.4385839,0,0,-0.4380563,336.68392,439.34465)"
       x1="65.193283"
       y1="123.02965"
       x2="65.193283"
       y2="3.0714285" />
    <linearGradient
       inkscape:collect="always"
       xlink:href="#linearGradient4119"
       id="linearGradient8364"
       gradientUnits="userSpaceOnUse"
       x1="269.64322"
       y1="409.65735"
       x2="322.61987"
       y2="409.65735" />
    <linearGradient
       inkscape:collect="always"
       xlink:href="#linearGradient5390"
       id="linearGradient8366"
       gradientUnits="userSpaceOnUse"
       x1="269.64322"
       y1="409.65735"
       x2="322.61987"
       y2="409.65735" />
    <linearGradient
       inkscape:collect="always"
       xlink:href="#linearGradient3250"
       id="linearGradient8368"
       gradientUnits="userSpaceOnUse"
       x1="272.9353"
       y1="410.12091"
       x2="316.20432"
       y2="410.12091" />
    <linearGradient
       inkscape:collect="always"
       xlink:href="#linearGradient3250"
       id="linearGradient8370"
       gradientUnits="userSpaceOnUse"
       gradientTransform="matrix(-0.4385839,0,0,-0.4380563,336.68392,439.34465)"
       x1="65.193283"
       y1="123.02965"
       x2="65.193283"
       y2="3.0714285" />
    <linearGradient
       inkscape:collect="always"
       xlink:href="#linearGradient4119"
       id="linearGradient8384"
       gradientUnits="userSpaceOnUse"
       gradientTransform="translate(10.69634,-5.5578535)"
       x1="25.856251"
       y1="64.015625"
       x2="108.05"
       y2="64.015625" />
    <linearGradient
       inkscape:collect="always"
       xlink:href="#linearGradient3138"
       id="linearGradient8386"
       gradientUnits="userSpaceOnUse"
       gradientTransform="matrix(0.8331331,0,0,0.8321308,-2.3503992,2.9444085)"
       x1="65.193283"
       y1="123.02965"
       x2="65.193283"
       y2="3.0714285" />
    <linearGradient
       inkscape:collect="always"
       xlink:href="#linearGradient4119"
       id="linearGradient8400"
       gradientUnits="userSpaceOnUse"
       gradientTransform="translate(10.69634,-5.5578535)"
       x1="25.856251"
       y1="64.015625"
       x2="108.05"
       y2="64.015625" />
    <linearGradient
       inkscape:collect="always"
       xlink:href="#linearGradient3138"
       id="linearGradient8402"
       gradientUnits="userSpaceOnUse"
       gradientTransform="matrix(0.8331331,0,0,0.8321308,-2.3503992,2.9444085)"
       x1="65.193283"
       y1="123.02965"
       x2="65.193283"
       y2="3.0714285" />
    <linearGradient
       inkscape:collect="always"
       xlink:href="#linearGradient4119"
       id="linearGradient8416"
       gradientUnits="userSpaceOnUse"
       gradientTransform="translate(10.69634,-5.5578535)"
       x1="25.856251"
       y1="64.015625"
       x2="108.05"
       y2="64.015625" />
    <linearGradient
       inkscape:collect="always"
       xlink:href="#linearGradient3138"
       id="linearGradient8418"
       gradientUnits="userSpaceOnUse"
       gradientTransform="matrix(0.8331331,0,0,0.8321308,-2.3503992,2.9444085)"
       x1="65.193283"
       y1="123.02965"
       x2="65.193283"
       y2="3.0714285" />
    <linearGradient
       inkscape:collect="always"
       xlink:href="#linearGradient3250"
       id="linearGradient8423"
       gradientUnits="userSpaceOnUse"
       gradientTransform="matrix(1.1465913,0.1460673,-0.1458916,1.1452119,55.932528,72.142074)"
       x1="65.193283"
       y1="123.02965"
       x2="65.193283"
       y2="3.0714285" />
    <linearGradient
       inkscape:collect="always"
       xlink:href="#linearGradient4119"
       id="linearGradient9404"
       x1="82.314163"
       y1="163.31075"
       x2="221.85767"
       y2="163.31075"
       gradientUnits="userSpaceOnUse" />
    <linearGradient
       inkscape:collect="always"
       xlink:href="#linearGradient4119"
       id="linearGradient9413"
       gradientUnits="userSpaceOnUse"
       x1="82.314163"
       y1="163.31075"
       x2="221.85767"
       y2="163.31075" />
    <linearGradient
       inkscape:collect="always"
       xlink:href="#linearGradient3250"
       id="linearGradient9415"
       gradientUnits="userSpaceOnUse"
       gradientTransform="matrix(1.1465913,0.1460673,-0.1458916,1.1452119,55.932528,72.142074)"
       x1="65.193283"
       y1="123.02965"
       x2="65.193283"
       y2="3.0714285" />
  </defs>
  <rect
     style="fill:url(#linearGradient2393);fill-opacity:1;fill-rule:nonzero;stroke:#000000;stroke-width:0.99200255;stroke-linecap:round;stroke-linejoin:round;stroke-miterlimit:4;stroke-dasharray:none;stroke-dashoffset:1.5;stroke-opacity:1"
     id="rect3258"
     width="262.5415"
     height="417.91776"
     x="62.784092"
     y="14.777601"
     rx="1.7810268"
     ry="0.89911288" />
  <path
     style="fill:none;fill-rule:evenodd;stroke:#000000;stroke-width:0.67154408px;stroke-linecap:butt;stroke-linejoin:miter;stroke-opacity:1"
     d="M 62.022846,316.3022 L 324.83824,126.34932 L 62.022846,316.3022 z "
     id="path7146" />
  <rect
     style="fill:none;fill-opacity:0;fill-rule:nonzero;stroke:none;stroke-width:0.1;stroke-linecap:round;stroke-linejoin:round;stroke-miterlimit:4;stroke-dasharray:none;stroke-dashoffset:1.5;stroke-opacity:0.82491581"
     id="rect2269"
     width="275.70056"
     height="400.90958"
     x="56.220966"
     y="26.401188"
     rx="1.8866298"
     ry="0.89619309" />
  <g
     id="g8332"
     transform="matrix(0.9913453,0.1312806,-0.1312806,0.9913453,58.943602,-37.088563)">
    <path
       d="M 280.56192,429.24502 C 288.06275,434.2989 298.07509,435.37668 306.83393,431.762 L 292.45589,417.43331 L 280.56192,429.24502 z M 273.09323,398.05421 C 268.70446,405.4674 268.51507,414.73841 273.66901,422.43437 L 273.73481,422.51662 C 273.82811,422.65476 273.93513,422.77564 274.03093,422.91144 L 285.90845,410.98458 L 273.09323,398.05421 z M 308.77513,388.47982 C 300.72218,384.40796 290.64271,384.22929 282.27281,388.98979 C 281.08649,389.66452 280.04262,390.46622 279.01554,391.27646 L 292.50524,404.70035 L 308.77513,388.47982 z M 314.61518,426.909 C 323.15502,419.13263 325.11914,406.7164 318.54693,396.90265 C 317.79606,395.78144 316.95163,394.76025 316.0464,393.79344 L 298.97042,411.09973 L 314.61518,426.909 z "
       style="fill:url(#linearGradient8344);fill-opacity:1;stroke:url(#linearGradient8346);stroke-width:0.31585634;stroke-linecap:round;stroke-linejoin:round;stroke-miterlimit:4;stroke-opacity:1"
       id="path8334" />
    <path
       d="M 314.61518,426.909 L 298.97042,411.09973 L 316.0464,393.79344 C 313.96327,391.5686 311.46886,389.84186 308.77513,388.47982 L 292.50524,404.70035 L 279.01554,391.27646 C 276.5489,393.22232 274.59053,395.52509 273.09323,398.05421 L 285.90845,410.98458 L 274.03093,422.91144 C 275.82177,425.45022 278.05032,427.55276 280.56192,429.24502 L 292.45589,417.43331 L 306.83393,431.762 C 307.88794,431.32702 308.9502,430.92133 309.95959,430.34723 C 311.69692,429.3591 313.22194,428.17768 314.61518,426.909 z "
       style="fill:#000000;fill-opacity:1;stroke:url(#linearGradient8348);stroke-width:0.31585634;stroke-linecap:round;stroke-linejoin:round;stroke-miterlimit:4;stroke-dasharray:none;stroke-opacity:1"
       id="path8336" />
    <path
       d="M 327.92403,437.78241 L 334.19564,431.48721 L 314.65213,411.75238 L 334.19564,391.94332 L 327.93385,385.66752 L 308.19933,405.3512 L 288.44357,385.68051 L 282.07798,391.92364 L 301.5955,411.63096 L 281.98675,431.34596 L 288.4699,437.62596 L 308.14394,418.07409 L 327.92403,437.78241 z "
       style="fill:url(#linearGradient8350);fill-opacity:1;fill-rule:evenodd;stroke:#000000;stroke-width:0.43383193px;stroke-linecap:butt;stroke-linejoin:miter;stroke-opacity:1"
       id="path8338" />
    <text
       x="-344.23523"
       y="-366.659"
       transform="scale(-0.9333626,-1.071395)"
       style="font-size:18.38229561px;font-style:normal;font-weight:normal;fill:#ffff00;fill-opacity:1;stroke:none;stroke-width:1px;stroke-linecap:butt;stroke-linejoin:miter;stroke-opacity:1;font-family:Purisa"
       id="text8340"
       xml:space="preserve"><tspan
         x="-344.23523"
         y="-366.659"
         style="font-size:18.38229561px;font-style:italic;font-weight:normal;fill:#ffff00;fill-opacity:1;font-family:Purisa"
         id="tspan8342">CHAT</tspan></text>
  </g>
  <g
     id="g9406"
     transform="matrix(0.9950354,9.9522051e-2,-9.9522051e-2,0.9950354,15.689093,-8.1790911)">
    <path
       d="M 199.28884,117.23661 C 181.36256,101.52614 155.54622,95.373953 131.44411,101.90675 L 164.2606,144.1548 L 199.28884,117.23661 z M 208.42638,201.26624 C 222.36887,183.34756 225.95163,159.17341 215.04076,137.33735 L 214.89612,137.1004 C 214.69821,136.7082 214.4587,136.35655 214.25348,135.9696 L 179.22988,163.19432 L 208.42638,201.26624 z M 111.9544,214.413 C 131.65113,227.74005 157.94241,231.56403 181.40933,221.90618 C 184.73543,220.53732 187.73143,218.7891 190.68639,217.01295 L 159.89096,177.42617 L 111.9544,214.413 z M 109.4853,112.00248 C 84.5697,129.48813 75.299761,161.29378 89.213104,189.13873 C 90.802696,192.31999 92.670196,195.27092 94.714744,198.09993 L 145.12028,158.54307 L 109.4853,112.00248 z "
       style="fill:url(#linearGradient9413);fill-opacity:1;stroke:#ff711d;stroke-width:0.83241767;stroke-linecap:round;stroke-linejoin:round;stroke-miterlimit:4;stroke-opacity:1"
       id="path8406" />
    <path
       d="M 109.4853,112.00248 L 145.12028,158.54307 L 94.714744,198.09993 C 99.419707,204.61012 105.36578,209.95507 111.9544,214.413 L 159.89096,177.42617 L 190.68639,217.01295 C 197.78297,212.74737 203.66969,207.37946 208.42638,201.26624 L 179.22988,163.19432 L 214.25348,135.9696 C 210.4172,128.73604 205.29134,122.49716 199.28884,117.23661 L 164.2606,144.1548 L 131.44411,101.90675 C 128.54373,102.69289 125.63156,103.39971 122.80151,104.56442 C 117.93049,106.56909 113.55018,109.14976 109.4853,112.00248 z "
       style="fill:#000000;fill-opacity:1;stroke:#ff711d;stroke-width:0.83241767;stroke-linecap:round;stroke-linejoin:round;stroke-miterlimit:4;stroke-dasharray:none;stroke-opacity:1"
       id="path8408" />
    <path
       d="M 78.313261,79.143676 L 59.820789,93.512513 L 104.34091,151.61418 L 46.65097,196.89224 L 60.931066,215.38452 L 119.0786,170.49786 L 164.17496,228.50251 L 182.89578,214.3011 L 138.43444,156.28002 L 196.26359,111.2696 L 181.40619,92.692599 L 123.46069,137.25481 L 78.313261,79.143676 z "
       style="fill:url(#linearGradient9415);fill-opacity:1;fill-rule:evenodd;stroke:#000000;stroke-width:1.14333415px;stroke-linecap:butt;stroke-linejoin:miter;stroke-opacity:1"
       id="path8410" />
    <text
       x="112.66133"
       y="174.59872"
       transform="matrix(0.9258798,0.1179503,-0.1353937,1.0628056,0,0)"
       style="font-size:48.44527435px;font-style:normal;font-weight:normal;fill:#ffff00;fill-opacity:1;stroke:none;stroke-width:1px;stroke-linecap:butt;stroke-linejoin:miter;stroke-opacity:1;font-family:Purisa"
       id="text8412"
       xml:space="preserve"><tspan
         x="112.66133"
         y="174.59872"
         style="font-size:48.44527435px;font-style:italic;font-weight:normal;fill:#ffff00;fill-opacity:1;font-family:Purisa"
         id="tspan8414">CHAT</tspan></text>
  </g>
  <g
     id="g8372"
     transform="matrix(-1.3519592,-0.3114187,0.3114187,-1.3519592,319.45089,377.18624)">
    <path
       d="M 104.25884,22.129647 C 90.010282,12.529308 70.990862,10.481957 54.35259,17.348397 L 81.66509,44.567147 L 104.25884,22.129647 z M 118.44635,81.379647 C 126.78325,67.297562 127.14301,49.68638 117.3526,35.067147 L 117.2276,34.910897 C 117.05037,34.648496 116.84708,34.418876 116.6651,34.160897 L 94.10259,56.817147 L 118.44635,81.379647 z M 50.66509,99.567147 C 65.96245,107.30204 85.109386,107.64143 101.00884,98.598397 C 103.26236,97.316677 105.2453,95.793777 107.19635,94.254647 L 81.57134,68.754647 L 50.66509,99.567147 z M 39.57134,26.567147 C 23.349072,41.339126 19.618036,64.924965 32.10259,83.567147 C 33.528943,85.697005 35.133023,87.636849 36.85259,89.473397 L 69.29009,56.598397 L 39.57134,26.567147 z "
       style="fill:#fcff41;fill-opacity:1;stroke:#ff711d;stroke-width:0.60000002;stroke-linecap:round;stroke-linejoin:round;stroke-miterlimit:4;stroke-opacity:1"
       id="path8374" />
    <path
       d="M 39.57134,26.567147 L 69.29009,56.598397 L 36.85259,89.473397 C 40.809698,93.699707 45.548082,96.979807 50.66509,99.567147 L 81.57134,68.754647 L 107.19635,94.254647 C 111.88196,90.558291 115.60209,86.183959 118.44635,81.379647 L 94.10259,56.817147 L 116.6651,34.160897 C 113.26322,29.338241 109.02988,25.344256 104.25884,22.129647 L 81.66509,44.567147 L 54.35259,17.348397 C 52.350385,18.174686 50.332526,18.945329 48.41509,20.035897 C 45.114852,21.912952 42.217937,24.157159 39.57134,26.567147 z "
       style="fill:url(#linearGradient8384);fill-opacity:1;stroke:#ff711d;stroke-width:0.60000002;stroke-linecap:round;stroke-linejoin:round;stroke-miterlimit:4;stroke-dasharray:none;stroke-opacity:1"
       id="path8376" />
    <path
       d="M 14.289885,5.9120445 L 2.3763388,17.870389 L 39.501158,55.358638 L 2.3763388,92.98789 L 14.271214,104.90938 L 51.758871,67.518306 L 89.286875,104.8847 L 101.37894,93.02527 L 64.303494,55.589285 L 101.55223,18.138718 L 89.236855,6.2092325 L 51.864103,43.349924 L 14.289885,5.9120445 z "
       style="fill:url(#linearGradient8386);fill-opacity:1;fill-rule:evenodd;stroke:#000000;stroke-width:0.82410622px;stroke-linecap:butt;stroke-linejoin:miter;stroke-opacity:1"
       id="path8378" />
    <text
       x="28.799017"
       y="85.207596"
       transform="scale(0.9333626,1.071395)"
       style="font-size:34.9189682px;font-style:normal;font-weight:normal;fill:#ffffff;fill-opacity:1;stroke:none;stroke-width:1px;stroke-linecap:butt;stroke-linejoin:miter;stroke-opacity:1;font-family:Purisa"
       id="text8380"
       xml:space="preserve"><tspan
         x="28.799017"
         y="85.207596"
         style="font-size:34.9189682px;font-style:italic;font-weight:normal;fill:#ffffff;font-family:Purisa"
         id="tspan8382">CHAT</tspan></text>
  </g>
  <g
     id="g8388"
     transform="matrix(0.5156713,6.5692737e-2,-6.5692737e-2,0.5156713,55.489953,3.5954045)">
    <path
       d="M 104.25884,22.129647 C 90.010282,12.529308 70.990862,10.481957 54.35259,17.348397 L 81.66509,44.567147 L 104.25884,22.129647 z M 118.44635,81.379647 C 126.78325,67.297562 127.14301,49.68638 117.3526,35.067147 L 117.2276,34.910897 C 117.05037,34.648496 116.84708,34.418876 116.6651,34.160897 L 94.10259,56.817147 L 118.44635,81.379647 z M 50.66509,99.567147 C 65.96245,107.30204 85.109386,107.64143 101.00884,98.598397 C 103.26236,97.316677 105.2453,95.793777 107.19635,94.254647 L 81.57134,68.754647 L 50.66509,99.567147 z M 39.57134,26.567147 C 23.349072,41.339126 19.618036,64.924965 32.10259,83.567147 C 33.528943,85.697005 35.133023,87.636849 36.85259,89.473397 L 69.29009,56.598397 L 39.57134,26.567147 z "
       style="fill:#fcff41;fill-opacity:1;stroke:#ff711d;stroke-width:0.60000002;stroke-linecap:round;stroke-linejoin:round;stroke-miterlimit:4;stroke-opacity:1"
       id="path8390" />
    <path
       d="M 39.57134,26.567147 L 69.29009,56.598397 L 36.85259,89.473397 C 40.809698,93.699707 45.548082,96.979807 50.66509,99.567147 L 81.57134,68.754647 L 107.19635,94.254647 C 111.88196,90.558291 115.60209,86.183959 118.44635,81.379647 L 94.10259,56.817147 L 116.6651,34.160897 C 113.26322,29.338241 109.02988,25.344256 104.25884,22.129647 L 81.66509,44.567147 L 54.35259,17.348397 C 52.350385,18.174686 50.332526,18.945329 48.41509,20.035897 C 45.114852,21.912952 42.217937,24.157159 39.57134,26.567147 z "
       style="fill:url(#linearGradient8400);fill-opacity:1;stroke:#ff711d;stroke-width:0.60000002;stroke-linecap:round;stroke-linejoin:round;stroke-miterlimit:4;stroke-dasharray:none;stroke-opacity:1"
       id="path8392" />
    <path
       d="M 14.289885,5.9120445 L 2.3763388,17.870389 L 39.501158,55.358638 L 2.3763388,92.98789 L 14.271214,104.90938 L 51.758871,67.518306 L 89.286875,104.8847 L 101.37894,93.02527 L 64.303494,55.589285 L 101.55223,18.138718 L 89.236855,6.2092325 L 51.864103,43.349924 L 14.289885,5.9120445 z "
       style="fill:url(#linearGradient8402);fill-opacity:1;fill-rule:evenodd;stroke:#000000;stroke-width:0.82410622px;stroke-linecap:butt;stroke-linejoin:miter;stroke-opacity:1"
       id="path8394" />
    <text
       x="28.799017"
       y="85.207596"
       transform="scale(0.9333626,1.071395)"
       style="font-size:34.9189682px;font-style:normal;font-weight:normal;fill:#ffffff;fill-opacity:1;stroke:none;stroke-width:1px;stroke-linecap:butt;stroke-linejoin:miter;stroke-opacity:1;font-family:Purisa"
       id="text8396"
       xml:space="preserve"><tspan
         x="28.799017"
         y="85.207596"
         style="font-size:34.9189682px;font-style:italic;font-weight:normal;fill:#ffffff;font-family:Purisa"
         id="tspan8398">CHAT</tspan></text>
  </g>
</svg>
