<?xml version="1.0" encoding="UTF-8" standalone="no"?>
<!-- Created with Inkscape (http://www.inkscape.org/) -->
<svg
   xmlns:svg="http://www.w3.org/2000/svg"
   xmlns="http://www.w3.org/2000/svg"
   xmlns:xlink="http://www.w3.org/1999/xlink"
   version="1.0"
   width="48"
   height="48"
   id="svg2256">
  <defs
     id="defs2258">
    <linearGradient
       id="linearGradient3139">
      <stop
         style="stop-color:#63d8e3;stop-opacity:1"
         offset="0"
         id="stop3141" />
      <stop
         style="stop-color:#63d8e3;stop-opacity:0"
         offset="1"
         id="stop3143" />
    </linearGradient>
    <linearGradient
       id="linearGradient2172">
      <stop
         style="stop-color:#000000;stop-opacity:1"
         offset="0"
         id="stop2174" />
      <stop
         style="stop-color:#63d2f0;stop-opacity:0"
         offset="1"
         id="stop2176" />
    </linearGradient>
    <linearGradient
       x1="52.706474"
       y1="539.58783"
       x2="744.57416"
       y2="539.58783"
       id="linearGradient3145"
       xlink:href="#linearGradient3139"
       gradientUnits="userSpaceOnUse" />
    <linearGradient
       x1="52.706474"
       y1="539.58783"
       x2="744.57416"
       y2="539.58783"
       id="linearGradient3151"
       xlink:href="#linearGradient2172"
       gradientUnits="userSpaceOnUse"
       spreadMethod="reflect" />
    <radialGradient
       cx="2.5837498"
       cy="26.222816"
       r="7.5177755"
       fx="2.5837498"
       fy="26.222816"
       id="radialGradient4157"
       xlink:href="#linearGradient2172"
       gradientUnits="userSpaceOnUse"
       gradientTransform="matrix(1,0,0,0.9596465,0,1.0581828)" />
    <radialGradient
       cx="2.5837498"
       cy="26.222816"
       r="7.5177755"
       fx="2.5837498"
       fy="26.222816"
       id="radialGradient4159"
       xlink:href="#linearGradient3139"
       gradientUnits="userSpaceOnUse"
       gradientTransform="matrix(1,0,0,0.9596465,0,1.0581828)" />
    <radialGradient
       cx="2.5837498"
       cy="26.222816"
       r="7.5177755"
       fx="2.5837498"
       fy="26.222816"
       id="radialGradient4163"
       xlink:href="#linearGradient2172"
       gradientUnits="userSpaceOnUse"
       gradientTransform="matrix(1,0,0,0.9596465,0,1.0581828)" />
    <radialGradient
       cx="2.5837498"
       cy="26.222816"
       r="7.5177755"
       fx="2.5837498"
       fy="26.222816"
       id="radialGradient4165"
       xlink:href="#linearGradient3139"
       gradientUnits="userSpaceOnUse"
       gradientTransform="matrix(1,0,0,0.9596465,0,1.0581828)" />
  </defs>
  <g
     transform="translate(-312.53174,-503.31639)"
     id="layer1">
    <path
       d="M 343.02608,502.37424 C 323.7276,482.98488 347.28284,454.60829 366.82886,448.18684 C 408.57329,434.47253 447.37496,471.05428 454.23388,510.31765 C 465.0076,571.99097 412.59629,624.68639 353.77503,630.94031 C 272.49281,639.58229 205.23614,570.48581 199.93475,492.15342 C 193.1118,391.33873 279.21731,309.28635 377.04967,305.09551 C 497.37136,299.9413 594.33058,403.21022 597.32521,520.53846 C 600.89387,660.35679 480.37624,772.28491 343.55422,774.03164 C 184.24407,776.06545 57.308626,638.24706 56.843421,481.93261 C 56.311299,303.13307 211.46455,161.16479 387.27048,162.00418 C 585.55808,162.95092 742.57706,335.46258 740.41654,530.75928 C 738.00735,748.53419 548.1203,920.61685 333.33341,917.12296 C 234.18119,915.51007 137.4441,877.55773 62.856946,812.36199"
       transform="matrix(3.1228681e-2,1.7850436e-2,-3.1037471e-2,5.4298915e-2,342.45293,490.58699)"
       style="opacity:1;fill:url(#linearGradient3151);fill-opacity:1;fill-rule:evenodd;stroke:url(#linearGradient3145);stroke-width:8.27116299;stroke-linecap:round;stroke-linejoin:round;marker-start:none;stroke-miterlimit:4;stroke-dasharray:none;stroke-dashoffset:0;stroke-opacity:0.89164082"
       id="path2162" />
    <path
       d="M 10.101525,24.261416 L 5.1981422,27.662913 L 7.4756578,33.178914 L 2.7254137,29.56664 L -1.816824,33.437224 L 0.1507469,27.803219 L -4.934026,24.679371 L 1.0322438,24.809638 L 2.431919,19.00841 L 4.1517056,24.722924 L 10.101525,24.261416 z "
       transform="matrix(0.8992236,0,0,0.9737465,340.26042,514.79661)"
       style="opacity:1;fill:url(#radialGradient4157);fill-opacity:1;fill-rule:nonzero;stroke:url(#radialGradient4159);stroke-width:0.1;stroke-linecap:round;stroke-linejoin:round;stroke-miterlimit:4;stroke-dasharray:none;stroke-dashoffset:1.5;stroke-opacity:0.82491581"
       id="path4155" />
  </g>
</svg>
