<?xml version="1.0" encoding="UTF-8" standalone="no"?>
<!-- Created with Sodipodi ("http://www.sodipodi.com/") -->
<svg
   xmlns:dc="http://purl.org/dc/elements/1.1/"
   xmlns:cc="http://web.resource.org/cc/"
   xmlns:rdf="http://www.w3.org/1999/02/22-rdf-syntax-ns#"
   xmlns:svg="http://www.w3.org/2000/svg"
   xmlns="http://www.w3.org/2000/svg"
   xmlns:xlink="http://www.w3.org/1999/xlink"
   xmlns:sodipodi="http://sodipodi.sourceforge.net/DTD/sodipodi-0.dtd"
   xmlns:inkscape="http://www.inkscape.org/namespaces/inkscape"
   height="48"
   id="svg32"
   sodipodi:docbase="/usr/share/openclipart/svg/buildings/homes"
   sodipodi:docname="home10.svg"
   sodipodi:version="0.32"
   style="fill:#000000;fill-opacity:0.5;stroke:none"
   width="48"
   inkscape:version="0.45"
   inkscape:output_extension="org.inkscape.output.svg.inkscape"
   sodipodi:modified="true"
   version="1.0">
  <metadata
     id="metadata11191">
    <rdf:RDF>
      <cc:Work
         rdf:about="">
        <dc:title>Homes Clipart</dc:title>
        <dc:description />
        <dc:subject>
          <rdf:Bag>
            <rdf:li>house</rdf:li>
            <rdf:li />
            <rdf:li>building</rdf:li>
            <rdf:li>home</rdf:li>
          </rdf:Bag>
        </dc:subject>
        <dc:publisher>
          <cc:Agent
             rdf:about="http://www.openclipart.org">
            <dc:title>Jose Hevia </dc:title>
          </cc:Agent>
        </dc:publisher>
        <dc:creator>
          <cc:Agent>
            <dc:title>Jose Hevia</dc:title>
          </cc:Agent>
        </dc:creator>
        <dc:rights>
          <cc:Agent>
            <dc:title>Jose Hevia </dc:title>
          </cc:Agent>
        </dc:rights>
        <dc:date />
        <dc:format>image/svg+xml</dc:format>
        <dc:type
           rdf:resource="http://purl.org/dc/dcmitype/StillImage" />
        <cc:license
           rdf:resource="http://web.resource.org/cc/PublicDomain" />
        <dc:language>en</dc:language>
      </cc:Work>
      <cc:License
         rdf:about="http://web.resource.org/cc/PublicDomain">
        <cc:permits
           rdf:resource="http://web.resource.org/cc/Reproduction" />
        <cc:permits
           rdf:resource="http://web.resource.org/cc/Distribution" />
        <cc:permits
           rdf:resource="http://web.resource.org/cc/DerivativeWorks" />
      </cc:License>
    </rdf:RDF>
  </metadata>
  <defs
     id="defs34">
    <linearGradient
       id="linearGradient129">
      <stop
         id="stop130"
         offset="0.000000"
         style="stop-color:#0017a2;stop-opacity:0.164706;" />
      <stop
         id="stop131"
         offset="1.000000"
         style="stop-color:#ffffff;stop-opacity:1;" />
    </linearGradient>
    <linearGradient
       id="linearGradient132"
       x1="165.30552"
       x2="138.25165"
       xlink:href="#linearGradient129"
       y1="346.49676"
       y2="47.618705"
       gradientTransform="matrix(0.1029018,0,0,9.341456e-2,-0.3707325,-0.9979155)"
       gradientUnits="userSpaceOnUse" />
    <linearGradient
       id="linearGradient142"
       x1="248.2814"
       x2="333.287"
       xlink:href="#linearGradient129"
       y1="336.28583"
       y2="105.362"
       gradientTransform="matrix(9.0675228e-2,0,0,0.1060104,-0.3707325,-0.9979155)"
       gradientUnits="userSpaceOnUse" />
    <linearGradient
       id="linearGradient71"
       x1="107.95786"
       x2="22.310382"
       xlink:href="#linearGradient129"
       y1="560.43691"
       y2="760.15613"
       gradientTransform="matrix(0.1880011,0,0,5.1130187e-2,-0.3707325,-0.9979155)"
       gradientUnits="userSpaceOnUse" />
  </defs>
  <sodipodi:namedview
     id="base"
     width="48px"
     height="48px"
     inkscape:zoom="2.6312453"
     inkscape:cx="29.639092"
     inkscape:cy="27.329278"
     inkscape:window-width="910"
     inkscape:window-height="623"
     inkscape:window-x="57"
     inkscape:window-y="74"
     inkscape:current-layer="svg32" />
  <path
     d="M 3.6034921,20.903539 C 3.8668119,23.622571 2.2497613,24.000527 2.0435099,25.134246 C 3.5012188,27.058085 -0.28439581,29.989644 0.42115646,30.851483 C 0.92208562,31.654705 8.3697848,37.155042 9.5938294,37.36898 C 17.089205,40.018205 32.643502,38.124731 35.489528,35.653837 C 38.900067,32.13596 40.624713,31.754515 41.167599,30.051066 C 40.846214,28.638507 37.831434,26.002891 38.484599,24.905645 C 37.940381,23.659209 35.594661,23.788342 36.11336,21.132306 C 34.469375,20.271515 35.792255,21.126727 34.615834,19.531471 C 34.176264,19.3301 34.06171,17.587563 33.617379,17.587563 C 29.609487,12.657651 10.052536,14.271751 5.9122769,18.388155 C 5.3216827,20.54024 4.2935222,20.482131 3.6034921,20.903539 z "
     id="path19"
     style="fill:#42aaff;fill-opacity:1;fill-rule:evenodd;stroke:none;stroke-width:1px;stroke-linecap:butt;stroke-linejoin:miter;stroke-opacity:1" />
  <path
     d="M 3.311855,26.04445 C 2.6025924,26.04445 1.3627676,30.128012 2.1269746,30.557833 C 2.0357646,31.85793 16.349282,38.009412 25.124585,34.253297 C 26.688243,35.859682 29.066836,35.749364 30.16049,35.767857 C 31.720844,36.674914 32.182313,36.282789 34.065181,36.161624 C 36.720473,31.760316 40.947972,31.799781 39.477977,31.799781 C 32.652863,26.628388 35.290616,34.737973 33.23041,35.343815 C 32.460935,34.478385 26.226133,32.513045 24.855329,31.829938 C 15.377406,37.645798 6.0879255,30.436663 3.311855,26.04445 z "
     id="path70"
     style="fill:url(#linearGradient71);fill-opacity:1;fill-rule:evenodd;stroke:none;stroke-width:1px;stroke-linecap:butt;stroke-linejoin:miter;stroke-opacity:1" />
  <path
     d="M 34.429669,29.808811 C 34.598362,29.429295 35.310166,23.919917 35.78358,23.919917 C 39.377961,23.089616 38.852676,30.735087 38.852676,31.331732 C 37.003043,30.061793 33.89492,29.808811 34.429669,29.808811 z "
     id="path133"
     style="fill:#3069bf;fill-opacity:1;fill-rule:evenodd;stroke:none;stroke-width:1px;stroke-linecap:butt;stroke-linejoin:miter;stroke-opacity:1" />
  <path
     d="M 41.218912,22.280097 C 41.316022,22.289101 41.413127,22.298104 41.510125,22.307097"
     id="path57"
     style="fill:none;fill-opacity:1;fill-rule:evenodd;stroke:#000000;stroke-width:0.11082307px;stroke-linecap:butt;stroke-linejoin:miter;stroke-opacity:1" />
  <path
     d="M 3.2918448,25.578559 C 3.9459793,16.950104 7.2561392,5.0607539 16.690345,4.7881521 C 18.35833,4.6565496 18.939179,4.8681042 21.028956,5.1197368 C 34.333881,6.7141359 36.132184,20.551683 35.526353,26.396368 C 34.072153,27.942416 34.072153,28.025165 32.61796,28.849995 C 32.133263,25.119498 30.436718,17.504294 26.801286,18.763182 C 22.681518,19.853084 24.377602,30.857474 24.377602,32.121431 C 15.410093,37.846388 5.3808867,29.940505 3.2918448,25.578559 z "
     id="path58"
     style="font-size:12px;fill:#0094de;fill-opacity:1;fill-rule:evenodd;stroke:#00ffff;stroke-width:0.09739739;stroke-opacity:1" />
  <path
     d="M 8.5292389,9.1333212 C 6.9337968,11.404223 5.5700513,13.220244 3.3558469,25.487662 C 9.1263238,32.543715 16.515494,39.418738 34.073984,27.104518 C 38.415536,22.569339 32.532458,10.953018 29.861645,8.8288077 C 28.235172,7.0171676 23.632815,4.9027687 18.006873,4.6321303 C 15.122277,4.3628302 11.43339,5.5105735 8.5292389,9.1333212 z "
     id="path128"
     sodipodi:nodetypes="cccccc"
     style="fill:url(#linearGradient132);fill-opacity:1;fill-rule:evenodd;stroke:none;stroke-width:1px;stroke-linecap:butt;stroke-linejoin:miter;stroke-opacity:1" />
  <path
     d="M 35.374266,33.82678 C 35.162868,28.101718 36.376918,25.466387 37.151631,24.739481 C 38.281374,23.650317 38.450069,28.980058 38.767268,31.403321 C 39.452807,30.918644 39.547488,30.160541 40.113738,29.828342 C 39.790569,20.043778 37.987773,21.496762 36.666835,22.013256 C 34.133134,23.136618 32.385069,29.829892 33.596914,35.371605 C 33.596914,35.553294 35.131923,34.190286 35.374266,33.82678 z "
     id="path62"
     style="fill:#7fb8ff;fill-opacity:1;fill-rule:evenodd;stroke:none;stroke-width:1px;stroke-linecap:butt;stroke-linejoin:miter;stroke-opacity:1" />
  <path
     d="M 24.279333,31.797192 C 26.331088,32.615001 29.799849,33.859526 33.677724,35.462405 C 32.334194,24.308729 35.883769,22.467558 38.067121,21.801177 C 34.722711,20.71067 28.802344,17.742305 26.406671,18.560116 C 22.857104,22.10415 23.794635,27.162744 24.279333,31.797192 z "
     id="path61"
     style="fill:#0093df;fill-opacity:1;fill-rule:evenodd;stroke:none;stroke-width:1px;stroke-linecap:butt;stroke-linejoin:miter;stroke-opacity:1" />
  <path
     d="M 4.1092586,21.013644 C 6.6312076,26.964002 17.735057,31.265523 23.713544,28.557981 C 24.69589,28.0165 31.460117,29.814802 33.145092,30.59604 C 33.580199,31.017814 34.970289,30.094335 35.391534,29.623292"
     id="path80"
     style="font-size:12px;fill:none;fill-opacity:1;fill-rule:evenodd;stroke:#00ffff;stroke-width:0.24510875;stroke-dasharray:none;stroke-opacity:1" />
  <path
     d="M 4.8379626,17.357425 C 6.6691346,21.621757 17.547343,26.454742 23.01368,24.830282 C 23.42858,24.830282 23.643933,24.267 23.983074,24.648587 C 24.431133,24.648587 32.55634,27.011209 33.658724,27.011209 C 34.45768,27.011209 35.214301,26.924332 35.695693,27.80587"
     id="path81"
     style="font-size:12px;fill:none;fill-opacity:1;fill-rule:evenodd;stroke:#00ffff;stroke-width:0.24510875;stroke-dasharray:none;stroke-opacity:1" />
  <path
     d="M 6.2096889,13.925559 C 11.083963,20.668628 20.831604,21.690446 24.52802,21.081303 C 25.070299,20.437865 34.409736,23.150355 35.131826,23.558068 C 35.486859,24.160397 36.323004,25.269192 36.323004,25.667611"
     id="path82"
     style="font-size:12px;fill:none;fill-opacity:1;fill-rule:evenodd;stroke:#00ffff;stroke-width:0.24510875;stroke-dasharray:none;stroke-opacity:1" />
  <path
     d="M 7.6638816,11.19943 C 13.418937,16.454493 20.147074,19.891416 30.858324,14.805559 C 31.116013,14.515702 33.189723,13.585407 32.58793,12.432709"
     id="path83"
     style="font-size:12px;fill:none;fill-opacity:1;fill-rule:evenodd;stroke:#00ffff;stroke-width:0.24510875;stroke-dasharray:none;stroke-opacity:1" />
  <path
     d="M 30.66465,18.896562 C 33.072176,18.151989 34.545654,16.535791 33.823563,15.091179"
     id="path84"
     style="font-size:12px;fill:none;fill-opacity:1;fill-rule:evenodd;stroke:#00ffff;stroke-width:0.24510875;stroke-dasharray:none;stroke-opacity:1" />
  <path
     d="M 9.7867205,8.2487389 C 10.321008,8.993305 10.256907,9.0435128 10.781744,9.7880843 C 14.349586,13.320964 21.812029,15.075373 28.792431,11.858684 C 29.590927,11.298915 30.94823,10.315724 30.506419,9.7064732"
     id="path86"
     style="font-size:12px;fill:none;fill-opacity:1;fill-rule:evenodd;stroke:#00ffff;stroke-width:0.24510875;stroke-dasharray:none;stroke-opacity:1" />
  <path
     d="M 12.593628,5.8397351 C 12.649002,6.2459014 12.861413,7.1082304 13.243264,7.4466335 C 15.503117,9.3267507 21.345235,10.283596 26.279753,8.7578938 C 27.272944,8.4528561 27.764622,7.8529029 27.30619,7.1083334"
     id="path87"
     style="font-size:12px;fill:none;fill-opacity:1;fill-rule:evenodd;stroke:#00ffff;stroke-width:0.24510875;stroke-dasharray:none;stroke-opacity:1" />
  <path
     d="M 5.0185082,27.827254 C 4.9583567,25.936289 5.6304912,24.865195 5.9121456,23.803706"
     id="path88"
     style="font-size:12px;fill:none;fill-opacity:1;fill-rule:evenodd;stroke:#00ffff;stroke-width:0.24510875;stroke-dasharray:none;stroke-opacity:1" />
  <path
     d="M 8.6210216,21.330767 C 8.0645087,22.413735 7.7530071,23.914446 7.632705,25.211345"
     id="path89"
     style="font-size:12px;fill:none;fill-opacity:1;fill-rule:evenodd;stroke:#00ffff;stroke-width:0.24510875;stroke-dasharray:none;stroke-opacity:1" />
  <path
     d="M 10.721594,27.189395 C 10.300351,28.339306 10.037339,29.339124 10.097577,31.718994"
     id="path90"
     style="font-size:12px;fill:none;fill-opacity:1;fill-rule:evenodd;stroke:#00ffff;stroke-width:0.24510875;stroke-dasharray:none;stroke-opacity:1" />
  <path
     d="M 17.884378,29.348832 C 17.70383,30.729507 18.002932,32.627806 17.786393,33.846202"
     id="path91"
     style="font-size:12px;fill:none;fill-opacity:1;fill-rule:evenodd;stroke:#00ffff;stroke-width:0.24510875;stroke-dasharray:none;stroke-opacity:1" />
  <path
     d="M 20.634527,17.349876 C 20.453989,18.270573 20.631223,19.613131 20.450774,20.963542"
     id="path98"
     style="font-size:12px;fill:none;fill-opacity:1;fill-rule:evenodd;stroke:#00ffff;stroke-width:0.24510875;stroke-dasharray:none;stroke-opacity:1" />
  <path
     d="M 14.862295,16.145323 C 14.198894,16.754575 14.149303,17.780424 13.968756,19.52347"
     id="path99"
     style="font-size:12px;fill:none;fill-opacity:1;fill-rule:evenodd;stroke:#00ffff;stroke-width:0.24510875;stroke-dasharray:none;stroke-opacity:1" />
  <path
     d="M 9.5080907,12.92781 C 9.0082441,13.536954 8.7347616,14.609706 8.2533642,16.166814"
     id="path100"
     style="font-size:12px;fill:none;fill-opacity:1;fill-rule:evenodd;stroke:#00ffff;stroke-width:0.24510875;stroke-dasharray:none;stroke-opacity:1" />
  <path
     d="M 11.142809,18.368951 C 10.40106,19.541796 9.7710821,20.010353 10.011779,22.003894"
     id="path101"
     style="font-size:12px;fill:none;fill-opacity:1;fill-rule:evenodd;stroke:#00ffff;stroke-width:0.24510875;stroke-dasharray:none;stroke-opacity:1" />
  <path
     d="M 7.4610396,15.557582 C 6.4380989,16.348224 5.9500933,18.534515 5.9500933,18.985625"
     id="path102"
     style="font-size:12px;fill:none;fill-opacity:1;fill-rule:evenodd;stroke:#00ffff;stroke-width:0.24510875;stroke-dasharray:none;stroke-opacity:1" />
  <path
     d="M 17.741783,20.689069 C 17.41321,21.298215 17.716164,23.244339 17.174621,24.683696"
     id="path103"
     style="font-size:12px;fill:none;fill-opacity:1;fill-rule:evenodd;stroke:#00ffff;stroke-width:0.24510875;stroke-dasharray:none;stroke-opacity:1" />
  <path
     d="M 14.216032,24.099573 C 14.035484,24.682372 13.148543,26.441535 13.329091,28.161856"
     id="path104"
     style="font-size:12px;fill:none;fill-opacity:1;fill-rule:evenodd;stroke:#00ffff;stroke-width:0.24510875;stroke-dasharray:none;stroke-opacity:1" />
  <path
     d="M 20.247912,25.101026 C 20.247912,25.952093 20.285835,28.140974 20.045138,29.167128"
     id="path105"
     style="font-size:12px;fill:none;fill-opacity:1;fill-rule:evenodd;stroke:#00ffff;stroke-width:0.24510875;stroke-dasharray:none;stroke-opacity:1" />
  <path
     d="M 29.983699,11.178057 C 30.855208,11.245717 31.938295,13.38635 31.938295,13.743865"
     id="path108"
     style="font-size:12px;fill:none;fill-opacity:1;fill-rule:evenodd;stroke:#00ffff;stroke-width:0.24510875;stroke-dasharray:none;stroke-opacity:1" />
  <path
     d="M 27.297092,12.471653 C 27.477639,13.303198 28.44374,14.627883 28.323342,15.742982"
     id="path109"
     style="font-size:12px;fill:none;fill-opacity:1;fill-rule:evenodd;stroke:#00ffff;stroke-width:0.24510875;stroke-dasharray:none;stroke-opacity:1" />
  <path
     d="M 26.035752,8.8792704 C 26.732773,9.3530949 28.104961,11.151919 28.104961,11.918904"
     id="path110"
     style="font-size:12px;fill:none;fill-opacity:1;fill-rule:evenodd;stroke:#00ffff;stroke-width:0.24510875;stroke-dasharray:none;stroke-opacity:1" />
  <path
     d="M 19.943663,5.0024045 C 20.866508,5.2731473 21.930495,6.5102401 22.893282,7.2223736 C 21.318419,7.1430419 18.424539,6.7386308 17.702448,6.5742846"
     id="path111"
     style="font-size:12px;fill:none;fill-opacity:1;fill-rule:evenodd;stroke:#00ffff;stroke-width:0.24510875;stroke-dasharray:none;stroke-opacity:1" />
  <path
     d="M 19.902524,5.0700641 C 19.086204,5.0700641 17.080735,5.2343073 16.677579,5.2343073 C 16.632677,5.6233268 17.37415,5.7901525 17.735234,6.5028033"
     id="path112"
     style="font-size:12px;fill:none;fill-opacity:1;fill-rule:evenodd;stroke:#00ffff;stroke-width:0.24510875;stroke-dasharray:none;stroke-opacity:1" />
  <path
     d="M 16.465815,5.2268699 C 15.116315,5.2945301 13.803817,5.6366519 12.739555,6.1781381"
     id="path113"
     style="font-size:12px;fill:none;fill-opacity:1;fill-rule:evenodd;stroke:#00ffff;stroke-width:0.24510875;stroke-dasharray:none;stroke-opacity:1" />
  <path
     d="M 19.778823,9.5561727 C 19.944124,10.486781 19.883514,12.442828 19.823267,13.280061"
     id="path114"
     style="font-size:12px;fill:none;fill-opacity:1;fill-rule:evenodd;stroke:#00ffff;stroke-width:0.24510875;stroke-dasharray:none;stroke-opacity:1" />
  <path
     d="M 22.570121,13.486961 C 22.871056,14.187943 23.157676,16.236641 23.111753,17.032862"
     id="path115"
     style="font-size:12px;fill:none;fill-opacity:1;fill-rule:evenodd;stroke:#00ffff;stroke-width:0.24510875;stroke-dasharray:none;stroke-opacity:1" />
  <path
     d="M 17.339521,13.098455 C 17.339521,14.007171 17.038673,15.496932 16.918276,16.483837"
     id="path116"
     style="font-size:12px;fill:none;fill-opacity:1;fill-rule:evenodd;stroke:#00ffff;stroke-width:0.24510875;stroke-dasharray:none;stroke-opacity:1" />
  <path
     d="M 13.449429,11.82986 C 12.213621,12.709849 12.172383,13.398438 11.871537,14.328008"
     id="path117"
     style="font-size:12px;fill:none;fill-opacity:1;fill-rule:evenodd;stroke:#00ffff;stroke-width:0.24510875;stroke-dasharray:none;stroke-opacity:1" />
  <path
     d="M 13.059412,7.4040747 C 12.165589,8.0132205 11.646546,9.1537332 11.104905,10.012438"
     id="path118"
     style="font-size:12px;fill:none;fill-opacity:1;fill-rule:evenodd;stroke:#00ffff;stroke-width:0.24510875;stroke-dasharray:none;stroke-opacity:1" />
  <path
     d="M 10.128804,8.8830846 C 9.3970652,8.8830846 8.6556896,11.094073 8.535292,11.880068"
     id="path119"
     style="font-size:12px;fill:none;fill-opacity:1;fill-rule:evenodd;stroke:#00ffff;stroke-width:0.24510875;stroke-dasharray:none;stroke-opacity:1" />
  <path
     d="M 37.555509,24.466774 C 37.555509,23.69928 38.146556,21.808306 38.385695,21.808306"
     id="path120"
     style="font-size:12px;fill:none;fill-opacity:1;fill-rule:evenodd;stroke:#00ffff;stroke-width:0.24510875;stroke-dasharray:none;stroke-opacity:1" />
  <path
     d="M 38.24298,26.687397 C 38.604076,26.163579 39.250132,25.618272 39.656033,25.415184"
     id="path121"
     style="font-size:12px;fill:none;fill-opacity:1;fill-rule:evenodd;stroke:#00ffff;stroke-width:0.24510875;stroke-dasharray:none;stroke-opacity:1" />
  <path
     d="M 38.604076,29.278107 C 39.430493,28.9397 39.956891,28.209179 39.956891,27.891958"
     id="path122"
     style="font-size:12px;fill:none;fill-opacity:1;fill-rule:evenodd;stroke:#00ffff;stroke-width:0.24510875;stroke-dasharray:none;stroke-opacity:1" />
  <path
     d="M 17.851131,6.5580674 C 16.647647,7.3302163 16.544054,8.453269 16.286552,8.9270957"
     id="path124"
     style="font-size:12px;fill:none;fill-opacity:1;fill-rule:evenodd;stroke:#00ffff;stroke-width:0.24510875;stroke-dasharray:none;stroke-opacity:1" />
  <path
     d="M 22.785561,7.1672132 C 23.179892,7.7086988 23.868747,7.639387 24.28999,9.0624155"
     id="path125"
     style="font-size:12px;fill:none;fill-opacity:1;fill-rule:evenodd;stroke:#00ffff;stroke-width:0.24510875;stroke-dasharray:none;stroke-opacity:1" />
  <path
     d="M 20.980288,5.5426515 C 21.461681,5.5426515 22.805582,5.4073309 25.553624,6.2872202"
     id="path126"
     style="font-size:12px;fill:none;fill-opacity:1;fill-rule:evenodd;stroke:#00ffff;stroke-width:0.24510875;stroke-dasharray:none;stroke-opacity:1" />
  <path
     d="M 18.753768,5.0689278 C 18.332525,4.6994327 18.351447,4.9336079 17.911379,4.7305248"
     id="path127"
     style="font-size:12px;fill:none;fill-opacity:1;fill-rule:evenodd;stroke:#00ffff;stroke-width:0.24510875;stroke-dasharray:none;stroke-opacity:1" />
  <path
     d="M 38.491581,29.196605 C 38.059503,28.953546 36.362682,29.095061 35.78358,28.587351"
     id="path134"
     style="font-size:12px;fill:none;fill-opacity:1;fill-rule:evenodd;stroke:#00ffff;stroke-width:0.24510875;stroke-dasharray:none;stroke-opacity:1" />
  <path
     d="M 38.040219,26.759812 C 36.957033,26.844618 37.130874,26.861356 36.32521,26.759812"
     id="path135"
     style="font-size:12px;fill:none;fill-opacity:1;fill-rule:evenodd;stroke:#00ffff;stroke-width:0.24510875;stroke-dasharray:none;stroke-opacity:1" />
  <path
     d="M 24.440388,31.670196 C 22.364289,21.985529 26.029478,18.511319 27.027904,18.538691 C 28.502301,18.200393 35.001311,20.516014 38.070307,21.68627 C 34.158998,22.820173 32.654394,28.342365 33.58715,35.156086 C 33.333504,35.441389 24.863466,31.974828 24.440388,31.670196 z "
     id="path141"
     style="fill:url(#linearGradient142);fill-opacity:1;fill-rule:evenodd;stroke:none;stroke-width:1px;stroke-linecap:butt;stroke-linejoin:miter;stroke-opacity:1" />
  <path
     d="M 33.956354,20.079936 C 34.46309,20.079936 35.302734,19.45281 34.853205,18.401656"
     id="path85"
     style="font-size:12px;fill:none;fill-opacity:1;fill-rule:evenodd;stroke:#00ffff;stroke-width:0.24510875;stroke-dasharray:none;stroke-opacity:1" />
  <path
     d="M 25.760437,28.62182 C 25.399342,29.886914 25.497425,31.32667 25.497425,32.021242"
     id="path92"
     style="font-size:12px;fill:none;fill-opacity:1;fill-rule:evenodd;stroke:#00ffff;stroke-width:0.24510875;stroke-dasharray:none;stroke-opacity:1" />
  <path
     d="M 30.588793,29.712335 C 30.04725,30.832701 30.284545,33.311739 30.284545,34.099282"
     id="path93"
     style="font-size:12px;fill:none;fill-opacity:1;fill-rule:evenodd;stroke:#00ffff;stroke-width:0.24510875;stroke-dasharray:none;stroke-opacity:1" />
  <path
     d="M 28.488272,25.760369 C 27.82633,26.398036 27.8008,28.164623 27.8008,28.939048"
     id="path94"
     style="font-size:12px;fill:none;fill-opacity:1;fill-rule:evenodd;stroke:#00ffff;stroke-width:0.24510875;stroke-dasharray:none;stroke-opacity:1" />
  <path
     d="M 33.0314,22.831056 C 32.436042,22.831056 31.216115,25.18056 31.336512,26.415898"
     id="path95"
     style="font-size:12px;fill:none;fill-opacity:1;fill-rule:evenodd;stroke:#00ffff;stroke-width:0.24510875;stroke-dasharray:none;stroke-opacity:1" />
  <path
     d="M 26.685389,21.177779 C 26.023448,22.048787 25.700287,24.14273 25.700287,24.983269"
     id="path96"
     style="font-size:12px;fill:none;fill-opacity:1;fill-rule:evenodd;stroke:#00ffff;stroke-width:0.24510875;stroke-dasharray:none;stroke-opacity:1" />
  <path
     d="M 32.15999,19.584726 C 30.655562,19.377717 29.731248,21.879691 29.657234,21.879691"
     id="path97"
     style="font-size:12px;fill:none;fill-opacity:1;fill-rule:evenodd;stroke:#00ffff;stroke-width:0.24510875;stroke-dasharray:none;stroke-opacity:1" />
  <path
     d="M 25.437266,16.495093 C 25.437266,17.409281 25.5989,18.506398 25.5989,19.420584"
     id="path106"
     style="font-size:12px;fill:none;fill-opacity:1;fill-rule:evenodd;stroke:#00ffff;stroke-width:0.24510875;stroke-dasharray:none;stroke-opacity:1" />
  <path
     d="M 29.961385,15.311924 C 30.623327,15.942343 31.732127,17.983403 31.732127,18.600922"
     id="path107"
     style="font-size:12px;fill:none;fill-opacity:1;fill-rule:evenodd;stroke:#00ffff;stroke-width:0.24510875;stroke-dasharray:none;stroke-opacity:1" />
  <path
     d="M 33.632164,16.936454 C 34.294104,17.566876 34.740967,19.134109 34.740967,19.751627"
     id="path123"
     style="font-size:12px;fill:none;fill-opacity:1;fill-rule:evenodd;stroke:#00ffff;stroke-width:0.24510875;stroke-dasharray:none;stroke-opacity:1" />
  <path
     d="M 24.049293,28.48898 C 24.049293,27.827871 24.049293,25.205973 24.049293,24.529168"
     id="path136"
     style="font-size:12px;fill:none;fill-opacity:1;fill-rule:evenodd;stroke:#00ffff;stroke-width:0.24510875;stroke-dasharray:none;stroke-opacity:1" />
  <path
     d="M 24.861652,20.671003 C 25.583743,19.059969 26.200132,18.234209 28.382021,18.335754"
     id="path140"
     style="font-size:12px;fill:none;fill-opacity:1;fill-rule:evenodd;stroke:#00ffff;stroke-width:0.24510875;stroke-dasharray:none;stroke-opacity:1" />
  <use
     height="1052.3622"
     id="use1503"
     transform="translate(-0.2693538,0.2236467)"
     width="744.09448"
     x="0"
     xlink:href="#rect899"
     y="0" />
  <path
     d="M 42.962119,26.180829 L 42.114071,29.049836 L 48.095679,28.982874 L 47.734725,32.876032 L 41.867388,31.710495 L 42.190288,34.5056 L 36.783415,29.897372 L 42.962119,26.180829 z "
     id="rect899"
     style="fill:#ff4361;fill-opacity:0.75;fill-rule:evenodd;stroke:#000000;stroke-width:0.37133592;stroke-linecap:round;stroke-linejoin:round;stroke-miterlimit:4;stroke-opacity:1" />
</svg>
