<?xml version="1.0" encoding="UTF-8" standalone="no"?>
<!-- Created with Inkscape (http://www.inkscape.org/) -->
<svg
   xmlns:dc="http://purl.org/dc/elements/1.1/"
   xmlns:cc="http://creativecommons.org/ns#"
   xmlns:rdf="http://www.w3.org/1999/02/22-rdf-syntax-ns#"
   xmlns:svg="http://www.w3.org/2000/svg"
   xmlns="http://www.w3.org/2000/svg"
   xmlns:xlink="http://www.w3.org/1999/xlink"
   xmlns:sodipodi="http://sodipodi.sourceforge.net/DTD/sodipodi-0.dtd"
   xmlns:inkscape="http://www.inkscape.org/namespaces/inkscape"
   id="svg2"
   sodipodi:version="0.32"
   inkscape:version="0.46"
   width="256"
   height="256"
   version="1.0"
   sodipodi:docbase="/home/arkham/Desktop"
   sodipodi:docname="system-monitor.svg"
   inkscape:output_extension="org.inkscape.output.svg.inkscape">
  <sodipodi:namedview
     inkscape:window-height="718"
     inkscape:window-width="911"
     inkscape:pageshadow="2"
     inkscape:pageopacity="0.0"
     guidetolerance="10.0"
     gridtolerance="10.0"
     objecttolerance="10.0"
     borderopacity="1.0"
     bordercolor="#666666"
     pagecolor="#ffffff"
     id="base"
     width="48px"
     height="48px"
     inkscape:zoom="1.9453125"
     inkscape:cx="128"
     inkscape:cy="123.92162"
     inkscape:window-x="269"
     inkscape:window-y="175"
     inkscape:current-layer="svg2"
     showgrid="false" />
  <metadata
     id="metadata7">
    <rdf:RDF>
      <cc:Work
         rdf:about="">
        <dc:format>image/svg+xml</dc:format>
        <dc:type
           rdf:resource="http://purl.org/dc/dcmitype/StillImage" />
      </cc:Work>
    </rdf:RDF>
  </metadata>
  <defs
     id="defs5">
    <linearGradient
       inkscape:collect="always"
       id="linearGradient4123">
      <stop
         style="stop-color:#fafaf9;stop-opacity:1;"
         offset="0"
         id="stop4125" />
      <stop
         style="stop-color:#fafaf9;stop-opacity:0;"
         offset="1"
         id="stop4127" />
    </linearGradient>
    <linearGradient
       inkscape:collect="always"
       xlink:href="#linearGradient4123"
       id="linearGradient4547"
       gradientUnits="userSpaceOnUse"
       gradientTransform="matrix(5.707805,0,0,5.707805,-12.454344,-14.363388)"
       x1="22.86916"
       y1="14.782383"
       x2="22.470797"
       y2="44.088978" />
    <radialGradient
       inkscape:collect="always"
       xlink:href="#linearGradient2980"
       id="radialGradient2630"
       gradientUnits="userSpaceOnUse"
       gradientTransform="matrix(1,0,0,0.34,0,19.89607)"
       cx="28.284271"
       cy="30.145554"
       fx="28.284271"
       fy="30.145554"
       r="13.258252" />
    <linearGradient
       inkscape:collect="always"
       id="linearGradient4931">
      <stop
         style="stop-color:#babdb6;stop-opacity:1;"
         offset="0"
         id="stop4933" />
      <stop
         style="stop-color:#888a85"
         offset="1"
         id="stop4935" />
    </linearGradient>
    <linearGradient
       inkscape:collect="always"
       xlink:href="#linearGradient4931"
       id="linearGradient2628"
       gradientUnits="userSpaceOnUse"
       x1="54.1129"
       y1="12.846775"
       x2="50.079948"
       y2="-3.8813655" />
    <linearGradient
       inkscape:collect="always"
       id="linearGradient23434">
      <stop
         style="stop-color:#2e3436"
         offset="0"
         id="stop23436" />
      <stop
         style="stop-color:#555753"
         offset="1"
         id="stop23438" />
    </linearGradient>
    <linearGradient
       inkscape:collect="always"
       xlink:href="#linearGradient23434"
       id="linearGradient2626"
       gradientUnits="userSpaceOnUse"
       x1="55.878288"
       y1="12.472493"
       x2="52.5"
       y2="-4.6213989" />
    <linearGradient
       id="linearGradient2609"
       inkscape:collect="always">
      <stop
         id="stop2611"
         offset="0"
         style="stop-color:#ffffff;stop-opacity:1" />
      <stop
         id="stop2613"
         offset="1"
         style="stop-color:#eeeeec" />
    </linearGradient>
    <radialGradient
       inkscape:collect="always"
       xlink:href="#linearGradient2609"
       id="radialGradient2624"
       gradientUnits="userSpaceOnUse"
       gradientTransform="matrix(0,1.143443,-1.247217,-1.248581e-6,41.735,-54.25682)"
       cx="45.094624"
       cy="-2.6936908"
       fx="45.094624"
       fy="-2.6936908"
       r="10.498367" />
    <linearGradient
       inkscape:collect="always"
       id="linearGradient19914">
      <stop
         style="stop-color:#000000;stop-opacity:1;"
         offset="0"
         id="stop19916" />
      <stop
         style="stop-color:#000000;stop-opacity:0;"
         offset="1"
         id="stop19918" />
    </linearGradient>
    <linearGradient
       inkscape:collect="always"
       xlink:href="#linearGradient19914"
       id="linearGradient2622"
       gradientUnits="userSpaceOnUse"
       gradientTransform="translate(-1,0)"
       x1="33.985317"
       y1="32.045906"
       x2="37.211494"
       y2="35.272079" />
    <linearGradient
       inkscape:collect="always"
       id="linearGradient19900">
      <stop
         style="stop-color:#888a85"
         offset="0"
         id="stop19902" />
      <stop
         style="stop-color:#d3d7cf"
         offset="1"
         id="stop19904" />
    </linearGradient>
    <linearGradient
       inkscape:collect="always"
       xlink:href="#linearGradient19900"
       id="linearGradient2620"
       gradientUnits="userSpaceOnUse"
       gradientTransform="translate(-1,0)"
       x1="40.25"
       y1="41"
       x2="43.0625"
       y2="38.434578" />
    <linearGradient
       id="linearGradient2690"
       inkscape:collect="always">
      <stop
         id="stop2692"
         offset="0"
         style="stop-color:#2e3436" />
      <stop
         id="stop2694"
         offset="1"
         style="stop-color:#555753" />
    </linearGradient>
    <linearGradient
       inkscape:collect="always"
       xlink:href="#linearGradient2690"
       id="linearGradient2618"
       gradientUnits="userSpaceOnUse"
       x1="81.096306"
       y1="57.148193"
       x2="83.629295"
       y2="54.615208" />
    <linearGradient
       id="linearGradient2698">
      <stop
         id="stop2700"
         offset="0"
         style="stop-color:#555753" />
      <stop
         style="stop-color:#a3a5a2;stop-opacity:1;"
         offset="0.70238096"
         id="stop2706" />
      <stop
         id="stop2702"
         offset="1"
         style="stop-color:#888a85" />
    </linearGradient>
    <linearGradient
       inkscape:collect="always"
       xlink:href="#linearGradient2698"
       id="linearGradient2616"
       gradientUnits="userSpaceOnUse"
       x1="81.332451"
       y1="55.106758"
       x2="82.919647"
       y2="53.511261" />
    <linearGradient
       inkscape:collect="always"
       id="linearGradient2980">
      <stop
         style="stop-color:#000000;stop-opacity:1;"
         offset="0"
         id="stop2982" />
      <stop
         style="stop-color:#000000;stop-opacity:0;"
         offset="1"
         id="stop2984" />
    </linearGradient>
    <radialGradient
       inkscape:collect="always"
       xlink:href="#linearGradient2980"
       id="radialGradient2614"
       gradientUnits="userSpaceOnUse"
       gradientTransform="matrix(1,0,0,0.34,0,19.89607)"
       cx="28.284271"
       cy="30.145554"
       fx="28.284271"
       fy="30.145554"
       r="13.258252" />
    <linearGradient
       id="linearGradient2617">
      <stop
         id="stop2619"
         offset="0"
         style="stop-color:#fbfbfa;stop-opacity:1;" />
      <stop
         id="stop2621"
         offset="1"
         style="stop-color:#d3d7cf" />
    </linearGradient>
    <radialGradient
       inkscape:collect="always"
       xlink:href="#linearGradient2617"
       id="radialGradient2612"
       gradientUnits="userSpaceOnUse"
       gradientTransform="matrix(0,-1.686609,1.66336,0,41.65431,111.7396)"
       cx="59.787472"
       cy="10.901535"
       fx="59.787472"
       fy="10.901535"
       r="10.55559" />
    <linearGradient
       inkscape:collect="always"
       id="linearGradient4952">
      <stop
         style="stop-color:#ffffff;stop-opacity:1;"
         offset="0"
         id="stop4954" />
      <stop
         style="stop-color:#ffffff;stop-opacity:0;"
         offset="1"
         id="stop4956" />
    </linearGradient>
    <radialGradient
       inkscape:collect="always"
       xlink:href="#linearGradient4952"
       id="radialGradient2610"
       gradientUnits="userSpaceOnUse"
       gradientTransform="matrix(2.231289,-0.597872,0.530253,1.979013,-30.74857,-16.49764)"
       cx="16.829521"
       cy="24.743624"
       fx="16.829521"
       fy="24.743624"
       r="16.924615" />
    <linearGradient
       id="linearGradient4919">
      <stop
         style="stop-color:#429eff;stop-opacity:1;"
         offset="0"
         id="stop4921" />
      <stop
         style="stop-color:#0044a7;stop-opacity:1;"
         offset="1"
         id="stop4923" />
    </linearGradient>
    <radialGradient
       inkscape:collect="always"
       xlink:href="#linearGradient4919"
       id="radialGradient2608"
       gradientUnits="userSpaceOnUse"
       gradientTransform="matrix(1.459545,0,0,1.345339,-7.403138,-10.82184)"
       cx="17.062258"
       cy="28.851427"
       fx="17.062258"
       fy="28.851427"
       r="13.5" />
    <linearGradient
       id="linearGradient1045">
      <stop
         id="stop1046"
         offset="0.00000000"
         style="stop-color:#ffffff;stop-opacity:0.74901962;" />
      <stop
         id="stop1047"
         offset="1.0000000"
         style="stop-color:#ffffff;stop-opacity:0.00000000;" />
    </linearGradient>
    <linearGradient
       inkscape:collect="always"
       id="linearGradient3169">
      <stop
         style="stop-color:#ffffff;stop-opacity:1;"
         offset="0"
         id="stop3171" />
      <stop
         style="stop-color:#ffffff;stop-opacity:0;"
         offset="1"
         id="stop3173" />
    </linearGradient>
    <linearGradient
       inkscape:collect="always"
       id="linearGradient3159">
      <stop
         style="stop-color:#ffffff;stop-opacity:1;"
         offset="0"
         id="stop3161" />
      <stop
         style="stop-color:#ffffff;stop-opacity:0;"
         offset="1"
         id="stop3163" />
    </linearGradient>
    <inkscape:perspective
       sodipodi:type="inkscape:persp3d"
       inkscape:vp_x="0 : 24 : 1"
       inkscape:vp_y="0 : 1000 : 0"
       inkscape:vp_z="48 : 24 : 1"
       inkscape:persp3d-origin="24 : 16 : 1"
       id="perspective7" />
    <linearGradient
       inkscape:collect="always"
       xlink:href="#linearGradient3159"
       id="linearGradient3165"
       x1="23.807722"
       y1="3.9314766"
       x2="23.446424"
       y2="30.591192"
       gradientUnits="userSpaceOnUse"
       gradientTransform="matrix(0.9997941,-2.0293493e-2,2.0293493e-2,0.9997941,-0.3545885,0.4867899)" />
    <radialGradient
       inkscape:collect="always"
       xlink:href="#linearGradient4919"
       id="radialGradient2462"
       gradientUnits="userSpaceOnUse"
       gradientTransform="matrix(1.459545,0,0,1.345339,-7.403138,-10.82184)"
       cx="17.062258"
       cy="28.851427"
       fx="17.062258"
       fy="28.851427"
       r="13.5" />
    <radialGradient
       inkscape:collect="always"
       xlink:href="#linearGradient4952"
       id="radialGradient2464"
       gradientUnits="userSpaceOnUse"
       gradientTransform="matrix(2.231289,-0.597872,0.530253,1.979013,-30.74857,-16.49764)"
       cx="16.829521"
       cy="24.743624"
       fx="16.829521"
       fy="24.743624"
       r="16.924615" />
    <linearGradient
       inkscape:collect="always"
       xlink:href="#linearGradient19900"
       id="linearGradient2474"
       gradientUnits="userSpaceOnUse"
       gradientTransform="translate(-1,0)"
       x1="40.25"
       y1="41"
       x2="43.0625"
       y2="38.434578" />
    <linearGradient
       inkscape:collect="always"
       xlink:href="#linearGradient19914"
       id="linearGradient2476"
       gradientUnits="userSpaceOnUse"
       gradientTransform="translate(-1,0)"
       x1="33.985317"
       y1="32.045906"
       x2="37.211494"
       y2="35.272079" />
    <radialGradient
       inkscape:collect="always"
       xlink:href="#linearGradient4919"
       id="radialGradient2493"
       gradientUnits="userSpaceOnUse"
       gradientTransform="matrix(1.459545,0,0,1.345339,-7.403138,-10.82184)"
       cx="17.062258"
       cy="28.851427"
       fx="17.062258"
       fy="28.851427"
       r="13.5" />
    <linearGradient
       inkscape:collect="always"
       xlink:href="#linearGradient3169"
       id="linearGradient3262"
       gradientUnits="userSpaceOnUse"
       gradientTransform="matrix(5.3980515,0,0,8.6792199,-1.8151773,-269.3811)"
       x1="23.228916"
       y1="-12.322069"
       x2="23.13253"
       y2="8.9198704" />
    <linearGradient
       inkscape:collect="always"
       xlink:href="#linearGradient3169"
       id="linearGradient3265"
       gradientUnits="userSpaceOnUse"
       gradientTransform="matrix(5.3980515,0,0,8.5469147,-1.8151773,-12.679516)"
       x1="24"
       y1="0.64933401"
       x2="24"
       y2="13.970832" />
  </defs>
  <rect
     style="opacity:0.89655175;fill:url(#linearGradient3265);fill-opacity:1;stroke:none;stroke-width:6.63600016;stroke-miterlimit:4;stroke-dasharray:none;stroke-opacity:1"
     id="rect3167"
     width="223.72647"
     height="168.05501"
     x="15.874823"
     y="13.682052"
     rx="38.480408"
     ry="32.227104" />
  <rect
     ry="32.725975"
     rx="31.156416"
     y="-242.61147"
     x="15.874823"
     height="170.65648"
     width="223.72647"
     id="rect3177"
     style="opacity:0.89655175;fill:url(#linearGradient3262);fill-opacity:1;stroke:none;stroke-width:6.63600016;stroke-miterlimit:4;stroke-dasharray:none;stroke-opacity:1"
     transform="scale(1,-1)" />
  <g
     id="g4556"
     transform="translate(1.194234,0.2752894)">
    <path
       style="fill:none;fill-opacity:1;fill-rule:evenodd;stroke:#1455f9;stroke-width:8.5617075;stroke-linecap:round;stroke-linejoin:round;stroke-miterlimit:4;stroke-dasharray:none;stroke-opacity:1"
       d="M 32.107797,142.42932 C 37.414371,142.48526 43.957839,142.97947 47.511992,142.97947 C 50.262743,142.97947 53.013489,142.97947 55.76424,142.97947 C 59.43191,142.97947 63.099574,142.97947 66.767238,142.97947 C 70.120225,142.97947 73.65588,143.18283 76.669937,142.42932 C 80.612079,141.44379 80.897144,140.5767 82.721586,136.92782 C 84.147162,134.07667 84.922185,131.98642 84.922185,128.67558 C 84.922185,123.55388 85.177769,125.84686 86.022484,129.22573 C 86.772427,132.22549 88.0142,134.85961 89.323382,137.47798 C 90.542267,139.91573 96.279398,139.67857 98.675934,139.67857 C 101.46872,139.67857 104.76433,141.35658 106.92818,142.97947 C 109.00459,144.53678 108.55962,148.95508 109.12878,151.23172 C 110.17901,155.43262 110.22908,155.03503 110.22908,150.68157 C 110.22908,147.5247 111.32938,144.63761 111.32938,141.32902 C 111.32938,138.55714 112.42968,135.90408 112.42968,133.07677 C 112.42968,130.03381 112.78251,126.71412 113.52998,123.72423 C 114.34595,120.46036 113.42215,116.56129 114.08013,113.27138 C 114.61415,110.60126 114.08013,107.19519 114.08013,104.46898 C 114.08013,101.10759 113.52998,98.278962 113.52998,95.116433 C 113.52998,92.085765 114.63028,88.971947 114.63028,85.763886 C 114.63028,82.362531 115.73058,79.37107 115.73058,75.861187 C 115.73058,72.310105 116.83088,68.727384 116.83088,64.858189 C 116.83088,62.774469 118.48133,53.339107 118.48133,60.456991 C 118.48133,64.4125 119.03148,68.177465 119.03148,72.010137 C 119.03148,74.929314 119.58163,78.140901 119.58163,81.362683 C 119.58163,85.210726 120.68193,88.935057 120.68193,92.915834 C 120.68193,96.375951 121.78222,99.711895 121.78222,103.36868 C 121.78222,106.16058 122.78605,109.58455 123.43268,112.17108 C 124.20342,115.25406 124.28822,118.34401 125.08313,121.52363 C 125.92829,124.90427 126.05057,128.56145 126.73357,131.97647 C 127.31801,134.89866 127.14596,138.02723 127.83387,140.77887 C 128.58037,143.76484 128.19399,147.17069 128.93417,150.13142 C 129.54352,152.56881 129.48433,155.95628 129.48433,158.38367 C 129.48433,161.68457 129.48433,164.98547 129.48433,168.28637 C 129.48433,174.60367 128.93417,167.72791 128.93417,164.98547 C 128.93417,161.45325 129.13223,157.98755 130.58462,155.08277 C 132.522,151.20803 131.85461,147.76114 135.53597,144.07977 C 136.94419,142.67155 141.89103,143.52962 143.78822,143.52962 C 147.67218,143.52962 148.87627,144.49322 152.04047,141.32902 C 154.89721,138.47229 155.801,134.35811 157.54197,130.87617 C 158.92552,128.10907 161.80553,124.92776 164.14377,123.17408 C 167.06208,120.98534 169.88915,120.88131 172.94617,123.17408 C 176.57176,125.89327 177.8122,129.60525 179.54796,133.07677 C 181.20863,136.39809 182.34003,139.76119 183.94917,142.97947 C 185.51588,146.11291 192.41913,146.36348 194.95216,145.73022 C 198.01121,144.96546 199.93171,140.19112 201.55396,138.02812 C 203.73737,135.11692 206.13182,133.25344 209.25606,136.37768 C 212.323,139.44462 213.32142,143.99581 218.05845,145.18007 C 220.87469,145.88413 221.59027,145.55703 223.55996,144.07977"
       id="path4131"
       sodipodi:nodetypes="csssssssssssssssssssssssssssssssssssssssssssssssc" />
    <path
       sodipodi:nodetypes="csssssssssssssssssssssssssssssssssssssssssssssssc"
       id="path4121"
       d="M 32.107797,142.42932 C 37.414371,142.48526 43.957839,142.97947 47.511992,142.97947 C 50.262743,142.97947 53.013489,142.97947 55.76424,142.97947 C 59.43191,142.97947 63.099574,142.97947 66.767238,142.97947 C 70.120225,142.97947 73.65588,143.18283 76.669937,142.42932 C 80.612079,141.44379 80.897144,140.5767 82.721586,136.92782 C 84.147162,134.07667 84.922185,131.98642 84.922185,128.67558 C 84.922185,123.55388 85.177769,125.84686 86.022484,129.22573 C 86.772427,132.22549 88.0142,134.85961 89.323382,137.47798 C 90.542267,139.91573 96.279398,139.67857 98.675934,139.67857 C 101.46872,139.67857 104.76433,141.35658 106.92818,142.97947 C 109.00459,144.53678 108.55962,148.95508 109.12878,151.23172 C 110.17901,155.43262 110.22908,155.03503 110.22908,150.68157 C 110.22908,147.5247 111.32938,144.63761 111.32938,141.32902 C 111.32938,138.55714 112.42968,135.90408 112.42968,133.07677 C 112.42968,130.03381 112.78251,126.71412 113.52998,123.72423 C 114.34595,120.46036 113.42215,116.56129 114.08013,113.27138 C 114.61415,110.60126 114.08013,107.19519 114.08013,104.46898 C 114.08013,101.10759 113.52998,98.278962 113.52998,95.116433 C 113.52998,92.085765 114.63028,88.971947 114.63028,85.763886 C 114.63028,82.362531 115.73058,79.37107 115.73058,75.861187 C 115.73058,72.310105 116.83088,68.727384 116.83088,64.858189 C 116.83088,62.774469 118.48133,53.339107 118.48133,60.456991 C 118.48133,64.4125 119.03148,68.177465 119.03148,72.010137 C 119.03148,74.929314 119.58163,78.140901 119.58163,81.362683 C 119.58163,85.210726 120.68193,88.935057 120.68193,92.915834 C 120.68193,96.375951 121.78222,99.711895 121.78222,103.36868 C 121.78222,106.16058 122.78605,109.58455 123.43268,112.17108 C 124.20342,115.25406 124.28822,118.34401 125.08313,121.52363 C 125.92829,124.90427 126.05057,128.56145 126.73357,131.97647 C 127.31801,134.89866 127.14596,138.02723 127.83387,140.77887 C 128.58037,143.76484 128.19399,147.17069 128.93417,150.13142 C 129.54352,152.56881 129.48433,155.95628 129.48433,158.38367 C 129.48433,161.68457 129.48433,164.98547 129.48433,168.28637 C 129.48433,174.60367 128.93417,167.72791 128.93417,164.98547 C 128.93417,161.45325 129.13223,157.98755 130.58462,155.08277 C 132.522,151.20803 131.85461,147.76114 135.53597,144.07977 C 136.94419,142.67155 141.89103,143.52962 143.78822,143.52962 C 147.67218,143.52962 148.87627,144.49322 152.04047,141.32902 C 154.89721,138.47229 155.801,134.35811 157.54197,130.87617 C 158.92552,128.10907 161.80553,124.92776 164.14377,123.17408 C 167.06208,120.98534 169.88915,120.88131 172.94617,123.17408 C 176.57176,125.89327 177.8122,129.60525 179.54796,133.07677 C 181.20863,136.39809 182.34003,139.76119 183.94917,142.97947 C 185.51588,146.11291 192.41913,146.36348 194.95216,145.73022 C 198.01121,144.96546 199.93171,140.19112 201.55396,138.02812 C 203.73737,135.11692 206.13182,133.25344 209.25606,136.37768 C 212.323,139.44462 213.32142,143.99581 218.05845,145.18007 C 220.87469,145.88413 221.59027,145.55703 223.55996,144.07977"
       style="fill:none;fill-opacity:1;fill-rule:evenodd;stroke:url(#linearGradient4547);stroke-width:8.5617075;stroke-linecap:round;stroke-linejoin:round;stroke-miterlimit:4;stroke-dasharray:none;stroke-opacity:1" />
  </g>
</svg>
